<svg xmlns="http://www.w3.org/2000/svg" xmlns:xlink="http://www.w3.org/1999/xlink" width="500" zoomAndPan="magnify" viewBox="0 0 375 374.999991" height="500" preserveAspectRatio="xMidYMid meet" version="1.0"><defs><clipPath id="a8d15e2753"><path d="M 119 116.6875 L 257 116.6875 L 257 253 L 119 253 Z M 119 116.6875 " clip-rule="nonzero"/></clipPath><clipPath id="6e1c5151fb"><path d="M 151.054688 153.058594 L 174 153.058594 L 174 187.558594 L 151.054688 187.558594 Z M 151.054688 153.058594 " clip-rule="nonzero"/></clipPath></defs><rect x="-37.5" width="450" fill="#ffffff" y="-37.499999" height="449.999989" fill-opacity="1"/><rect x="-37.5" width="450" fill="#ffffff" y="-37.499999" height="449.999989" fill-opacity="1"/><path fill="#47b5ff" d="M 143.402344 180.675781 C 143.402344 157.335938 162.324219 138.417969 185.660156 138.417969 C 196.332031 138.417969 206.074219 142.375 213.511719 148.898438 C 205.421875 136.355469 191.328125 128.050781 175.296875 128.050781 C 150.195312 128.050781 129.847656 148.398438 129.847656 173.5 C 129.847656 195.304688 145.207031 213.519531 165.699219 217.925781 C 152.425781 210.800781 143.402344 196.792969 143.402344 180.675781 " fill-opacity="1" fill-rule="nonzero"/><g clip-path="url(#a8d15e2753)"><path fill="#06283d" d="M 229.304688 117 C 228.472656 116.6875 228.101562 117.558594 227.960938 118.730469 C 227.679688 121.015625 228.59375 123.28125 230.328125 124.796875 C 248.445312 140.675781 244.929688 179.574219 233.089844 177.253906 C 225.316406 175.730469 233.59375 152.621094 227.113281 151.835938 C 222.808594 151.3125 218.984375 162.023438 219.257812 176.148438 C 219.414062 184.230469 222.007812 190.898438 224.289062 196.6875 C 227.589844 205.070312 224.554688 214.671875 216.960938 219.519531 C 192.789062 234.945312 160.324219 232.101562 139.210938 210.988281 C 128.054688 199.832031 122.003906 185.507812 121.046875 170.910156 C 116.382812 192.527344 122.472656 215.992188 139.3125 232.761719 C 160.535156 253.902344 194.429688 258.300781 220.371094 243.320312 C 244.996094 229.097656 255.292969 199.835938 256.761719 172.628906 C 258.625 138.023438 238.761719 120.5625 229.304688 117 Z M 225.910156 135.9375 C 235.324219 144.210938 238.882812 158.695312 238.464844 170.367188 C 239.941406 166.746094 240.746094 161.449219 240.558594 155.777344 C 240.316406 148.191406 238.511719 141.089844 235.492188 135.335938 C 231.585938 131.578125 227.738281 129.203125 224.859375 128.117188 C 224.007812 127.796875 223.640625 128.714844 223.503906 129.925781 C 223.25 132.203125 224.191406 134.425781 225.910156 135.9375 " fill-opacity="1" fill-rule="nonzero"/></g><path fill="#47b5ff" d="M 191.917969 192.742188 C 192.035156 192.695312 192.144531 192.648438 192.242188 192.601562 C 195.753906 190.871094 201.601562 183.730469 202.671875 179.871094 C 203.007812 178.65625 202.9375 176.984375 202.746094 175.210938 C 201.621094 170.5 200.15625 165.800781 200.15625 165.800781 C 198.863281 165.378906 196.21875 167.746094 195.789062 169.035156 C 194.808594 171.960938 198.324219 177.621094 198.007812 181.164062 C 197.722656 184.359375 194.585938 190.265625 191.917969 192.742188 " fill-opacity="1" fill-rule="nonzero"/><path fill="#47b5ff" d="M 211.207031 184.292969 C 209.746094 190.5625 202.402344 200.894531 195.828125 205.429688 C 186.363281 211.960938 178.742188 214.085938 175.917969 224.886719 C 175.917969 224.886719 162.507812 204.21875 179.769531 183.347656 C 181.824219 180.863281 185.644531 177.878906 188.605469 179.167969 C 192.09375 180.683594 188.324219 184.792969 186.636719 186.894531 C 185.316406 188.539062 183.515625 192.628906 184.910156 194.210938 C 186.234375 195.710938 191.113281 194.835938 192.90625 193.953125 C 196.875 191.996094 202.941406 184.535156 204.125 180.273438 C 205.339844 175.882812 202.214844 167.949219 204.121094 164.492188 C 204.960938 162.96875 208.839844 160.59375 210.371094 161.421875 C 210.371094 161.421875 212.484375 178.824219 211.207031 184.292969 " fill-opacity="1" fill-rule="nonzero"/><g clip-path="url(#6e1c5151fb)"><path fill="#06283d" d="M 173.953125 176.042969 C 173.953125 182.367188 168.828125 187.492188 162.503906 187.492188 C 156.179688 187.492188 151.054688 182.367188 151.054688 176.042969 C 151.054688 169.71875 162.503906 153.066406 162.503906 153.066406 C 162.503906 153.066406 173.953125 169.71875 173.953125 176.042969 " fill-opacity="1" fill-rule="nonzero"/></g><path fill="#47b5ff" d="M 157.011719 183.257812 C 156.761719 183.257812 156.507812 183.167969 156.300781 182.988281 C 154.324219 181.21875 153.191406 178.6875 153.191406 176.042969 C 153.191406 175.324219 153.445312 173.5625 155.164062 169.832031 C 155.410156 169.296875 156.046875 169.0625 156.582031 169.308594 C 157.117188 169.554688 157.351562 170.1875 157.105469 170.726562 C 155.410156 174.402344 155.324219 175.800781 155.324219 176.042969 C 155.324219 178.082031 156.199219 180.03125 157.726562 181.394531 C 158.164062 181.789062 158.203125 182.464844 157.808594 182.902344 C 157.597656 183.140625 157.308594 183.257812 157.011719 183.257812 " fill-opacity="1" fill-rule="nonzero"/></svg>