<svg xmlns="http://www.w3.org/2000/svg" xmlns:xlink="http://www.w3.org/1999/xlink" width="500" zoomAndPan="magnify" viewBox="0 0 375 374.999991" height="500" preserveAspectRatio="xMidYMid meet" version="1.0"><defs><g/></defs><rect x="-37.5" width="450" fill="#ffffff" y="-37.499999" height="449.999989" fill-opacity="1"/><rect x="-37.5" width="450" fill="#ffffff" y="-37.499999" height="449.999989" fill-opacity="1"/><g fill="#47b5ff" fill-opacity="1"><g transform="translate(72.7566, 188.515335)"><g><path d="M 17.96875 0.71875 C 16.125 0.71875 14.363281 0.441406 12.6875 -0.109375 C 11.019531 -0.671875 9.488281 -1.453125 8.09375 -2.453125 C 6.707031 -3.460938 5.492188 -4.660156 4.453125 -6.046875 C 3.421875 -7.429688 2.617188 -8.953125 2.046875 -10.609375 C 1.484375 -12.265625 1.203125 -14.003906 1.203125 -15.828125 C 1.203125 -17.671875 1.488281 -19.421875 2.0625 -21.078125 C 2.632812 -22.734375 3.4375 -24.242188 4.46875 -25.609375 C 5.5 -26.984375 6.722656 -28.175781 8.140625 -29.1875 C 9.554688 -30.195312 11.101562 -30.976562 12.78125 -31.53125 C 14.46875 -32.082031 16.25 -32.359375 18.125 -32.359375 C 19.457031 -32.359375 20.804688 -32.191406 22.171875 -31.859375 C 23.546875 -31.523438 24.863281 -31.035156 26.125 -30.390625 C 27.394531 -29.742188 28.5625 -28.953125 29.625 -28.015625 C 30.695312 -27.085938 31.597656 -26.007812 32.328125 -24.78125 C 33.054688 -23.550781 33.550781 -22.191406 33.8125 -20.703125 L 26.34375 -20.703125 C 25.582031 -22.242188 24.476562 -23.445312 23.03125 -24.3125 C 21.582031 -25.1875 19.878906 -25.625 17.921875 -25.625 C 16.648438 -25.625 15.445312 -25.398438 14.3125 -24.953125 C 13.1875 -24.503906 12.191406 -23.851562 11.328125 -23 C 10.460938 -22.144531 9.785156 -21.113281 9.296875 -19.90625 C 8.804688 -18.707031 8.5625 -17.34375 8.5625 -15.8125 C 8.5625 -14.25 8.804688 -12.859375 9.296875 -11.640625 C 9.785156 -10.421875 10.460938 -9.394531 11.328125 -8.5625 C 12.191406 -7.726562 13.1875 -7.09375 14.3125 -6.65625 C 15.445312 -6.226562 16.648438 -6.015625 17.921875 -6.015625 C 20.035156 -6.015625 21.8125 -6.488281 23.25 -7.4375 C 24.6875 -8.382812 25.632812 -9.726562 26.09375 -11.46875 L 17.640625 -11.46875 L 17.640625 -17.34375 L 34.25 -17.34375 C 34.28125 -14.570312 33.9375 -12.070312 33.21875 -9.84375 C 32.5 -7.613281 31.4375 -5.710938 30.03125 -4.140625 C 28.632812 -2.566406 26.921875 -1.363281 24.890625 -0.53125 C 22.867188 0.300781 20.5625 0.71875 17.96875 0.71875 Z M 17.96875 0.71875 "/></g></g></g><g fill="#47b5ff" fill-opacity="1"><g transform="translate(110.215422, 188.515335)"><g><path d="M 6.3125 -26.875 C 5.425781 -26.875 4.671875 -27.046875 4.046875 -27.390625 C 3.421875 -27.742188 2.941406 -28.207031 2.609375 -28.78125 C 2.273438 -29.363281 2.109375 -30.015625 2.109375 -30.734375 C 2.109375 -31.441406 2.269531 -32.082031 2.59375 -32.65625 C 2.925781 -33.238281 3.40625 -33.707031 4.03125 -34.0625 C 4.664062 -34.425781 5.4375 -34.609375 6.34375 -34.609375 C 7.269531 -34.609375 8.046875 -34.425781 8.671875 -34.0625 C 9.304688 -33.707031 9.785156 -33.238281 10.109375 -32.65625 C 10.441406 -32.082031 10.609375 -31.441406 10.609375 -30.734375 C 10.609375 -29.648438 10.238281 -28.734375 9.5 -27.984375 C 8.769531 -27.242188 7.707031 -26.875 6.3125 -26.875 Z M 9.90625 0 L 2.765625 0 L 2.765625 -24.046875 L 9.90625 -24.046875 Z M 9.90625 0 "/></g></g></g><g fill="#47b5ff" fill-opacity="1"><g transform="translate(124.906932, 188.515335)"><g><path d="M 16.171875 0 L 9.609375 0 L 0.15625 -24.046875 L 7.734375 -24.046875 L 12.234375 -11.765625 L 12.90625 -8.9375 L 13.53125 -11.765625 L 18.03125 -24.046875 L 25.640625 -24.046875 Z M 16.171875 0 "/></g></g></g><g fill="#47b5ff" fill-opacity="1"><g transform="translate(152.711114, 188.515335)"><g><path d="M 26.390625 -12.203125 C 26.390625 -11.816406 26.375 -11.484375 26.34375 -11.203125 C 26.320312 -10.929688 26.289062 -10.609375 26.25 -10.234375 L 8.515625 -10.234375 C 8.804688 -8.640625 9.4375 -7.429688 10.40625 -6.609375 C 11.375 -5.796875 12.546875 -5.390625 13.921875 -5.390625 C 15.179688 -5.390625 16.144531 -5.625 16.8125 -6.09375 C 17.488281 -6.5625 17.957031 -7.144531 18.21875 -7.84375 L 25.875 -7.84375 C 25.613281 -6.78125 25.15625 -5.734375 24.5 -4.703125 C 23.84375 -3.679688 23.003906 -2.757812 21.984375 -1.9375 C 20.972656 -1.113281 19.800781 -0.457031 18.46875 0.03125 C 17.144531 0.519531 15.675781 0.765625 14.0625 0.765625 C 12.1875 0.765625 10.472656 0.429688 8.921875 -0.234375 C 7.367188 -0.898438 6.023438 -1.816406 4.890625 -2.984375 C 3.765625 -4.160156 2.894531 -5.523438 2.28125 -7.078125 C 1.675781 -8.628906 1.375 -10.273438 1.375 -12.015625 C 1.375 -13.765625 1.675781 -15.410156 2.28125 -16.953125 C 2.894531 -18.503906 3.765625 -19.867188 4.890625 -21.046875 C 6.023438 -22.222656 7.367188 -23.144531 8.921875 -23.8125 C 10.472656 -24.476562 12.1875 -24.8125 14.0625 -24.8125 C 15.945312 -24.8125 17.644531 -24.476562 19.15625 -23.8125 C 20.664062 -23.144531 21.960938 -22.226562 23.046875 -21.0625 C 24.128906 -19.90625 24.957031 -18.566406 25.53125 -17.046875 C 26.101562 -15.535156 26.390625 -13.921875 26.390625 -12.203125 Z M 8.796875 -15.0625 L 19.078125 -15.0625 C 19.003906 -15.800781 18.734375 -16.460938 18.265625 -17.046875 C 17.796875 -17.640625 17.195312 -18.101562 16.46875 -18.4375 C 15.75 -18.769531 14.957031 -18.9375 14.09375 -18.9375 C 13.363281 -18.9375 12.644531 -18.804688 11.9375 -18.546875 C 11.238281 -18.296875 10.613281 -17.882812 10.0625 -17.3125 C 9.507812 -16.738281 9.085938 -15.988281 8.796875 -15.0625 Z M 8.796875 -15.0625 "/></g></g></g><g fill="#47b5ff" fill-opacity="1"><g transform="translate(182.2095, 188.515335)"><g><path d="M 16.96875 0.796875 C 15.414062 0.796875 13.988281 0.445312 12.6875 -0.25 C 11.394531 -0.945312 10.359375 -1.878906 9.578125 -3.046875 L 9.578125 0 L 2.765625 0 L 2.765625 -32.703125 L 9.90625 -32.703125 L 9.90625 -24.203125 L 9.75 -21.171875 C 10.539062 -22.347656 11.570312 -23.242188 12.84375 -23.859375 C 14.125 -24.472656 15.457031 -24.78125 16.84375 -24.78125 C 18.5625 -24.78125 20.132812 -24.445312 21.5625 -23.78125 C 22.988281 -23.125 24.210938 -22.207031 25.234375 -21.03125 C 26.253906 -19.851562 27.039062 -18.492188 27.59375 -16.953125 C 28.15625 -15.410156 28.4375 -13.765625 28.4375 -12.015625 C 28.4375 -10.253906 28.15625 -8.597656 27.59375 -7.046875 C 27.039062 -5.503906 26.25 -4.144531 25.21875 -2.96875 C 24.1875 -1.789062 22.96875 -0.867188 21.5625 -0.203125 C 20.164062 0.460938 18.632812 0.796875 16.96875 0.796875 Z M 15.625 -5.78125 C 16.644531 -5.78125 17.59375 -6.019531 18.46875 -6.5 C 19.34375 -6.976562 20.046875 -7.679688 20.578125 -8.609375 C 21.109375 -9.535156 21.375 -10.671875 21.375 -12.015625 C 21.375 -13.316406 21.109375 -14.429688 20.578125 -15.359375 C 20.054688 -16.285156 19.359375 -16.992188 18.484375 -17.484375 C 17.609375 -17.984375 16.640625 -18.234375 15.578125 -18.234375 C 14.523438 -18.234375 13.5625 -17.957031 12.6875 -17.40625 C 11.8125 -16.863281 11.117188 -16.117188 10.609375 -15.171875 C 10.097656 -14.234375 9.84375 -13.179688 9.84375 -12.015625 C 9.84375 -10.785156 10.109375 -9.703125 10.640625 -8.765625 C 11.171875 -7.828125 11.878906 -7.09375 12.765625 -6.5625 C 13.648438 -6.039062 14.601562 -5.78125 15.625 -5.78125 Z M 15.625 -5.78125 "/></g></g></g><g fill="#47b5ff" fill-opacity="1"><g transform="translate(214.748169, 188.515335)"><g><path d="M 12.4375 0.796875 C 10.832031 0.796875 9.351562 0.460938 8 -0.203125 C 6.644531 -0.867188 5.472656 -1.789062 4.484375 -2.96875 C 3.492188 -4.144531 2.726562 -5.503906 2.1875 -7.046875 C 1.644531 -8.597656 1.375 -10.253906 1.375 -12.015625 C 1.375 -13.765625 1.644531 -15.410156 2.1875 -16.953125 C 2.738281 -18.503906 3.507812 -19.867188 4.5 -21.046875 C 5.488281 -22.222656 6.65625 -23.144531 8 -23.8125 C 9.351562 -24.476562 10.816406 -24.8125 12.390625 -24.8125 C 14.171875 -24.8125 15.742188 -24.476562 17.109375 -23.8125 C 18.484375 -23.144531 19.535156 -22.191406 20.265625 -20.953125 L 20.265625 -24.046875 L 27.03125 -24.046875 L 27.03125 0 L 20.234375 0 L 20.234375 -3.046875 C 19.503906 -1.816406 18.457031 -0.867188 17.09375 -0.203125 C 15.738281 0.460938 14.1875 0.796875 12.4375 0.796875 Z M 14.1875 -5.796875 C 15.28125 -5.796875 16.257812 -6.070312 17.125 -6.625 C 17.988281 -7.175781 18.675781 -7.921875 19.1875 -8.859375 C 19.695312 -9.796875 19.953125 -10.847656 19.953125 -12.015625 C 19.953125 -13.179688 19.695312 -14.234375 19.1875 -15.171875 C 18.675781 -16.109375 17.984375 -16.851562 17.109375 -17.40625 C 16.242188 -17.957031 15.273438 -18.234375 14.203125 -18.234375 C 13.148438 -18.234375 12.1875 -17.984375 11.3125 -17.484375 C 10.4375 -16.992188 9.738281 -16.285156 9.21875 -15.359375 C 8.707031 -14.429688 8.453125 -13.316406 8.453125 -12.015625 C 8.453125 -10.660156 8.71875 -9.519531 9.25 -8.59375 C 9.78125 -7.675781 10.484375 -6.976562 11.359375 -6.5 C 12.234375 -6.03125 13.175781 -5.796875 14.1875 -5.796875 Z M 14.1875 -5.796875 "/></g></g></g><g fill="#47b5ff" fill-opacity="1"><g transform="translate(246.544174, 188.515335)"><g><path d="M 13.953125 0.765625 C 12.085938 0.765625 10.382812 0.429688 8.84375 -0.234375 C 7.3125 -0.898438 5.988281 -1.816406 4.875 -2.984375 C 3.757812 -4.160156 2.894531 -5.523438 2.28125 -7.078125 C 1.675781 -8.628906 1.375 -10.273438 1.375 -12.015625 C 1.375 -13.765625 1.675781 -15.410156 2.28125 -16.953125 C 2.894531 -18.492188 3.757812 -19.851562 4.875 -21.03125 C 5.988281 -22.207031 7.3125 -23.128906 8.84375 -23.796875 C 10.382812 -24.472656 12.085938 -24.8125 13.953125 -24.8125 C 15.609375 -24.8125 17.117188 -24.5625 18.484375 -24.0625 C 19.859375 -23.570312 21.070312 -22.875 22.125 -21.96875 C 23.1875 -21.070312 24.066406 -20.03125 24.765625 -18.84375 C 25.472656 -17.65625 25.984375 -16.363281 26.296875 -14.96875 L 19.046875 -14.96875 C 18.617188 -16.113281 17.945312 -16.9375 17.03125 -17.4375 C 16.125 -17.945312 15.101562 -18.203125 13.96875 -18.203125 C 13.03125 -18.203125 12.140625 -17.960938 11.296875 -17.484375 C 10.453125 -17.015625 9.765625 -16.316406 9.234375 -15.390625 C 8.710938 -14.472656 8.453125 -13.347656 8.453125 -12.015625 C 8.453125 -10.691406 8.710938 -9.5625 9.234375 -8.625 C 9.765625 -7.695312 10.453125 -6.992188 11.296875 -6.515625 C 12.140625 -6.035156 13.03125 -5.796875 13.96875 -5.796875 C 15.101562 -5.796875 16.125 -6.070312 17.03125 -6.625 C 17.945312 -7.175781 18.617188 -8.125 19.046875 -9.46875 L 26.296875 -9.46875 C 26.015625 -7.976562 25.519531 -6.609375 24.8125 -5.359375 C 24.113281 -4.117188 23.226562 -3.039062 22.15625 -2.125 C 21.09375 -1.207031 19.875 -0.5 18.5 0 C 17.125 0.507812 15.609375 0.765625 13.953125 0.765625 Z M 13.953125 0.765625 "/></g></g></g><g fill="#47b5ff" fill-opacity="1"><g transform="translate(275.856894, 188.515335)"><g><path d="M 26.171875 0 L 18.203125 0 L 13.046875 -9.953125 L 9.90625 -6.609375 L 9.90625 0 L 2.765625 0 L 2.765625 -32.703125 L 9.90625 -32.703125 L 9.90625 -14.15625 L 16.65625 -24.046875 L 25.34375 -24.046875 L 18.21875 -14.671875 Z M 26.171875 0 "/></g></g></g></svg>