<svg xmlns="http://www.w3.org/2000/svg" xmlns:xlink="http://www.w3.org/1999/xlink" width="500" zoomAndPan="magnify" viewBox="0 0 375 374.999991" height="500" preserveAspectRatio="xMidYMid meet" version="1.0"><defs><g/><clipPath id="325d5af5c8"><path d="M 119 84.445312 L 257 84.445312 L 257 220 L 119 220 Z M 119 84.445312 " clip-rule="nonzero"/></clipPath><clipPath id="6e2cc897c6"><path d="M 170 129 L 212 129 L 212 192.8125 L 170 192.8125 Z M 170 129 " clip-rule="nonzero"/></clipPath><clipPath id="65cecdea19"><path d="M 151.054688 120.816406 L 174 120.816406 L 174 155.316406 L 151.054688 155.316406 Z M 151.054688 120.816406 " clip-rule="nonzero"/></clipPath></defs><rect x="-37.5" width="450" fill="#ffffff" y="-37.499999" height="449.999989" fill-opacity="1"/><rect x="-37.5" width="450" fill="#ffffff" y="-37.499999" height="449.999989" fill-opacity="1"/><path fill="#47b5ff" d="M 143.402344 148.433594 C 143.402344 125.09375 162.324219 106.175781 185.660156 106.175781 C 196.332031 106.175781 206.074219 110.132812 213.511719 116.65625 C 205.421875 104.113281 191.328125 95.8125 175.296875 95.8125 C 150.195312 95.8125 129.847656 116.160156 129.847656 141.257812 C 129.847656 163.0625 145.207031 181.277344 165.699219 185.683594 C 152.425781 178.558594 143.402344 164.550781 143.402344 148.433594 " fill-opacity="1" fill-rule="nonzero"/><g clip-path="url(#325d5af5c8)"><path fill="#06283d" d="M 229.304688 84.761719 C 228.472656 84.445312 228.101562 85.316406 227.960938 86.488281 C 227.679688 88.777344 228.59375 91.039062 230.328125 92.554688 C 248.445312 108.433594 244.929688 147.332031 233.089844 145.011719 C 225.316406 143.492188 233.59375 120.378906 227.113281 119.59375 C 222.808594 119.070312 218.984375 129.78125 219.257812 143.90625 C 219.414062 151.988281 222.007812 158.65625 224.289062 164.445312 C 227.589844 172.828125 224.554688 182.429688 216.960938 187.277344 C 192.789062 202.703125 160.324219 199.859375 139.210938 178.746094 C 128.054688 167.589844 122.003906 153.265625 121.046875 138.671875 C 116.382812 160.285156 122.472656 183.75 139.3125 200.519531 C 160.535156 221.660156 194.429688 226.058594 220.371094 211.078125 C 244.996094 196.855469 255.292969 167.59375 256.761719 140.386719 C 258.625 105.78125 238.761719 88.320312 229.304688 84.761719 Z M 225.910156 103.695312 C 235.324219 111.96875 238.882812 126.457031 238.464844 138.125 C 239.941406 134.507812 240.746094 129.207031 240.558594 123.535156 C 240.316406 115.953125 238.511719 108.847656 235.492188 103.09375 C 231.585938 99.335938 227.738281 96.960938 224.859375 95.875 C 224.007812 95.554688 223.640625 96.472656 223.503906 97.683594 C 223.25 99.960938 224.191406 102.183594 225.910156 103.695312 " fill-opacity="1" fill-rule="nonzero"/></g><path fill="#47b5ff" d="M 191.917969 160.5 C 192.035156 160.453125 192.144531 160.40625 192.242188 160.359375 C 195.753906 158.628906 201.601562 151.488281 202.671875 147.628906 C 203.007812 146.414062 202.9375 144.746094 202.746094 142.96875 C 201.621094 138.257812 200.15625 133.558594 200.15625 133.558594 C 198.863281 133.136719 196.21875 135.507812 195.789062 136.796875 C 194.808594 139.71875 198.324219 145.378906 198.007812 148.921875 C 197.722656 152.117188 194.585938 158.023438 191.917969 160.5 " fill-opacity="1" fill-rule="nonzero"/><g clip-path="url(#6e2cc897c6)"><path fill="#47b5ff" d="M 211.207031 152.054688 C 209.746094 158.320312 202.402344 168.652344 195.828125 173.191406 C 186.363281 179.71875 178.742188 181.84375 175.917969 192.648438 C 175.917969 192.648438 162.507812 171.976562 179.769531 151.109375 C 181.824219 148.621094 185.644531 145.640625 188.605469 146.925781 C 192.09375 148.441406 188.324219 152.550781 186.636719 154.652344 C 185.316406 156.296875 183.515625 160.386719 184.910156 161.96875 C 186.234375 163.46875 191.113281 162.59375 192.90625 161.710938 C 196.875 159.753906 202.941406 152.292969 204.125 148.03125 C 205.339844 143.644531 202.214844 135.707031 204.121094 132.25 C 204.960938 130.726562 208.839844 128.351562 210.371094 129.179688 C 210.371094 129.179688 212.484375 146.582031 211.207031 152.054688 " fill-opacity="1" fill-rule="nonzero"/></g><g clip-path="url(#65cecdea19)"><path fill="#06283d" d="M 173.953125 143.800781 C 173.953125 150.125 168.828125 155.25 162.503906 155.25 C 156.179688 155.25 151.054688 150.125 151.054688 143.800781 C 151.054688 137.480469 162.503906 120.824219 162.503906 120.824219 C 162.503906 120.824219 173.953125 137.480469 173.953125 143.800781 " fill-opacity="1" fill-rule="nonzero"/></g><path fill="#47b5ff" d="M 157.011719 151.015625 C 156.761719 151.015625 156.507812 150.929688 156.300781 150.746094 C 154.324219 148.976562 153.191406 146.445312 153.191406 143.800781 C 153.191406 143.082031 153.445312 141.324219 155.164062 137.589844 C 155.410156 137.054688 156.046875 136.820312 156.582031 137.066406 C 157.117188 137.3125 157.351562 137.949219 157.105469 138.484375 C 155.410156 142.160156 155.324219 143.558594 155.324219 143.800781 C 155.324219 145.839844 156.199219 147.789062 157.726562 149.152344 C 158.164062 149.546875 158.203125 150.222656 157.808594 150.660156 C 157.597656 150.898438 157.308594 151.015625 157.011719 151.015625 " fill-opacity="1" fill-rule="nonzero"/><g fill="#47b5ff" fill-opacity="1"><g transform="translate(72.7566, 265.618126)"><g><path d="M 17.96875 0.71875 C 16.125 0.71875 14.363281 0.441406 12.6875 -0.109375 C 11.019531 -0.671875 9.488281 -1.453125 8.09375 -2.453125 C 6.707031 -3.460938 5.492188 -4.660156 4.453125 -6.046875 C 3.421875 -7.429688 2.617188 -8.953125 2.046875 -10.609375 C 1.484375 -12.265625 1.203125 -14.003906 1.203125 -15.828125 C 1.203125 -17.671875 1.488281 -19.421875 2.0625 -21.078125 C 2.632812 -22.734375 3.4375 -24.242188 4.46875 -25.609375 C 5.5 -26.984375 6.722656 -28.175781 8.140625 -29.1875 C 9.554688 -30.195312 11.101562 -30.976562 12.78125 -31.53125 C 14.46875 -32.082031 16.25 -32.359375 18.125 -32.359375 C 19.457031 -32.359375 20.804688 -32.191406 22.171875 -31.859375 C 23.546875 -31.523438 24.863281 -31.035156 26.125 -30.390625 C 27.394531 -29.742188 28.5625 -28.953125 29.625 -28.015625 C 30.695312 -27.085938 31.597656 -26.007812 32.328125 -24.78125 C 33.054688 -23.550781 33.550781 -22.191406 33.8125 -20.703125 L 26.34375 -20.703125 C 25.582031 -22.242188 24.476562 -23.445312 23.03125 -24.3125 C 21.582031 -25.1875 19.878906 -25.625 17.921875 -25.625 C 16.648438 -25.625 15.445312 -25.398438 14.3125 -24.953125 C 13.1875 -24.503906 12.191406 -23.851562 11.328125 -23 C 10.460938 -22.144531 9.785156 -21.113281 9.296875 -19.90625 C 8.804688 -18.707031 8.5625 -17.34375 8.5625 -15.8125 C 8.5625 -14.25 8.804688 -12.859375 9.296875 -11.640625 C 9.785156 -10.421875 10.460938 -9.394531 11.328125 -8.5625 C 12.191406 -7.726562 13.1875 -7.09375 14.3125 -6.65625 C 15.445312 -6.226562 16.648438 -6.015625 17.921875 -6.015625 C 20.035156 -6.015625 21.8125 -6.488281 23.25 -7.4375 C 24.6875 -8.382812 25.632812 -9.726562 26.09375 -11.46875 L 17.640625 -11.46875 L 17.640625 -17.34375 L 34.25 -17.34375 C 34.28125 -14.570312 33.9375 -12.070312 33.21875 -9.84375 C 32.5 -7.613281 31.4375 -5.710938 30.03125 -4.140625 C 28.632812 -2.566406 26.921875 -1.363281 24.890625 -0.53125 C 22.867188 0.300781 20.5625 0.71875 17.96875 0.71875 Z M 17.96875 0.71875 "/></g></g></g><g fill="#47b5ff" fill-opacity="1"><g transform="translate(110.215422, 265.618126)"><g><path d="M 6.3125 -26.875 C 5.425781 -26.875 4.671875 -27.046875 4.046875 -27.390625 C 3.421875 -27.742188 2.941406 -28.207031 2.609375 -28.78125 C 2.273438 -29.363281 2.109375 -30.015625 2.109375 -30.734375 C 2.109375 -31.441406 2.269531 -32.082031 2.59375 -32.65625 C 2.925781 -33.238281 3.40625 -33.707031 4.03125 -34.0625 C 4.664062 -34.425781 5.4375 -34.609375 6.34375 -34.609375 C 7.269531 -34.609375 8.046875 -34.425781 8.671875 -34.0625 C 9.304688 -33.707031 9.785156 -33.238281 10.109375 -32.65625 C 10.441406 -32.082031 10.609375 -31.441406 10.609375 -30.734375 C 10.609375 -29.648438 10.238281 -28.734375 9.5 -27.984375 C 8.769531 -27.242188 7.707031 -26.875 6.3125 -26.875 Z M 9.90625 0 L 2.765625 0 L 2.765625 -24.046875 L 9.90625 -24.046875 Z M 9.90625 0 "/></g></g></g><g fill="#47b5ff" fill-opacity="1"><g transform="translate(124.906932, 265.618126)"><g><path d="M 16.171875 0 L 9.609375 0 L 0.15625 -24.046875 L 7.734375 -24.046875 L 12.234375 -11.765625 L 12.90625 -8.9375 L 13.53125 -11.765625 L 18.03125 -24.046875 L 25.640625 -24.046875 Z M 16.171875 0 "/></g></g></g><g fill="#47b5ff" fill-opacity="1"><g transform="translate(152.711114, 265.618126)"><g><path d="M 26.390625 -12.203125 C 26.390625 -11.816406 26.375 -11.484375 26.34375 -11.203125 C 26.320312 -10.929688 26.289062 -10.609375 26.25 -10.234375 L 8.515625 -10.234375 C 8.804688 -8.640625 9.4375 -7.429688 10.40625 -6.609375 C 11.375 -5.796875 12.546875 -5.390625 13.921875 -5.390625 C 15.179688 -5.390625 16.144531 -5.625 16.8125 -6.09375 C 17.488281 -6.5625 17.957031 -7.144531 18.21875 -7.84375 L 25.875 -7.84375 C 25.613281 -6.78125 25.15625 -5.734375 24.5 -4.703125 C 23.84375 -3.679688 23.003906 -2.757812 21.984375 -1.9375 C 20.972656 -1.113281 19.800781 -0.457031 18.46875 0.03125 C 17.144531 0.519531 15.675781 0.765625 14.0625 0.765625 C 12.1875 0.765625 10.472656 0.429688 8.921875 -0.234375 C 7.367188 -0.898438 6.023438 -1.816406 4.890625 -2.984375 C 3.765625 -4.160156 2.894531 -5.523438 2.28125 -7.078125 C 1.675781 -8.628906 1.375 -10.273438 1.375 -12.015625 C 1.375 -13.765625 1.675781 -15.410156 2.28125 -16.953125 C 2.894531 -18.503906 3.765625 -19.867188 4.890625 -21.046875 C 6.023438 -22.222656 7.367188 -23.144531 8.921875 -23.8125 C 10.472656 -24.476562 12.1875 -24.8125 14.0625 -24.8125 C 15.945312 -24.8125 17.644531 -24.476562 19.15625 -23.8125 C 20.664062 -23.144531 21.960938 -22.226562 23.046875 -21.0625 C 24.128906 -19.90625 24.957031 -18.566406 25.53125 -17.046875 C 26.101562 -15.535156 26.390625 -13.921875 26.390625 -12.203125 Z M 8.796875 -15.0625 L 19.078125 -15.0625 C 19.003906 -15.800781 18.734375 -16.460938 18.265625 -17.046875 C 17.796875 -17.640625 17.195312 -18.101562 16.46875 -18.4375 C 15.75 -18.769531 14.957031 -18.9375 14.09375 -18.9375 C 13.363281 -18.9375 12.644531 -18.804688 11.9375 -18.546875 C 11.238281 -18.296875 10.613281 -17.882812 10.0625 -17.3125 C 9.507812 -16.738281 9.085938 -15.988281 8.796875 -15.0625 Z M 8.796875 -15.0625 "/></g></g></g><g fill="#47b5ff" fill-opacity="1"><g transform="translate(182.2095, 265.618126)"><g><path d="M 16.96875 0.796875 C 15.414062 0.796875 13.988281 0.445312 12.6875 -0.25 C 11.394531 -0.945312 10.359375 -1.878906 9.578125 -3.046875 L 9.578125 0 L 2.765625 0 L 2.765625 -32.703125 L 9.90625 -32.703125 L 9.90625 -24.203125 L 9.75 -21.171875 C 10.539062 -22.347656 11.570312 -23.242188 12.84375 -23.859375 C 14.125 -24.472656 15.457031 -24.78125 16.84375 -24.78125 C 18.5625 -24.78125 20.132812 -24.445312 21.5625 -23.78125 C 22.988281 -23.125 24.210938 -22.207031 25.234375 -21.03125 C 26.253906 -19.851562 27.039062 -18.492188 27.59375 -16.953125 C 28.15625 -15.410156 28.4375 -13.765625 28.4375 -12.015625 C 28.4375 -10.253906 28.15625 -8.597656 27.59375 -7.046875 C 27.039062 -5.503906 26.25 -4.144531 25.21875 -2.96875 C 24.1875 -1.789062 22.96875 -0.867188 21.5625 -0.203125 C 20.164062 0.460938 18.632812 0.796875 16.96875 0.796875 Z M 15.625 -5.78125 C 16.644531 -5.78125 17.59375 -6.019531 18.46875 -6.5 C 19.34375 -6.976562 20.046875 -7.679688 20.578125 -8.609375 C 21.109375 -9.535156 21.375 -10.671875 21.375 -12.015625 C 21.375 -13.316406 21.109375 -14.429688 20.578125 -15.359375 C 20.054688 -16.285156 19.359375 -16.992188 18.484375 -17.484375 C 17.609375 -17.984375 16.640625 -18.234375 15.578125 -18.234375 C 14.523438 -18.234375 13.5625 -17.957031 12.6875 -17.40625 C 11.8125 -16.863281 11.117188 -16.117188 10.609375 -15.171875 C 10.097656 -14.234375 9.84375 -13.179688 9.84375 -12.015625 C 9.84375 -10.785156 10.109375 -9.703125 10.640625 -8.765625 C 11.171875 -7.828125 11.878906 -7.09375 12.765625 -6.5625 C 13.648438 -6.039062 14.601562 -5.78125 15.625 -5.78125 Z M 15.625 -5.78125 "/></g></g></g><g fill="#47b5ff" fill-opacity="1"><g transform="translate(214.748169, 265.618126)"><g><path d="M 12.4375 0.796875 C 10.832031 0.796875 9.351562 0.460938 8 -0.203125 C 6.644531 -0.867188 5.472656 -1.789062 4.484375 -2.96875 C 3.492188 -4.144531 2.726562 -5.503906 2.1875 -7.046875 C 1.644531 -8.597656 1.375 -10.253906 1.375 -12.015625 C 1.375 -13.765625 1.644531 -15.410156 2.1875 -16.953125 C 2.738281 -18.503906 3.507812 -19.867188 4.5 -21.046875 C 5.488281 -22.222656 6.65625 -23.144531 8 -23.8125 C 9.351562 -24.476562 10.816406 -24.8125 12.390625 -24.8125 C 14.171875 -24.8125 15.742188 -24.476562 17.109375 -23.8125 C 18.484375 -23.144531 19.535156 -22.191406 20.265625 -20.953125 L 20.265625 -24.046875 L 27.03125 -24.046875 L 27.03125 0 L 20.234375 0 L 20.234375 -3.046875 C 19.503906 -1.816406 18.457031 -0.867188 17.09375 -0.203125 C 15.738281 0.460938 14.1875 0.796875 12.4375 0.796875 Z M 14.1875 -5.796875 C 15.28125 -5.796875 16.257812 -6.070312 17.125 -6.625 C 17.988281 -7.175781 18.675781 -7.921875 19.1875 -8.859375 C 19.695312 -9.796875 19.953125 -10.847656 19.953125 -12.015625 C 19.953125 -13.179688 19.695312 -14.234375 19.1875 -15.171875 C 18.675781 -16.109375 17.984375 -16.851562 17.109375 -17.40625 C 16.242188 -17.957031 15.273438 -18.234375 14.203125 -18.234375 C 13.148438 -18.234375 12.1875 -17.984375 11.3125 -17.484375 C 10.4375 -16.992188 9.738281 -16.285156 9.21875 -15.359375 C 8.707031 -14.429688 8.453125 -13.316406 8.453125 -12.015625 C 8.453125 -10.660156 8.71875 -9.519531 9.25 -8.59375 C 9.78125 -7.675781 10.484375 -6.976562 11.359375 -6.5 C 12.234375 -6.03125 13.175781 -5.796875 14.1875 -5.796875 Z M 14.1875 -5.796875 "/></g></g></g><g fill="#47b5ff" fill-opacity="1"><g transform="translate(246.544174, 265.618126)"><g><path d="M 13.953125 0.765625 C 12.085938 0.765625 10.382812 0.429688 8.84375 -0.234375 C 7.3125 -0.898438 5.988281 -1.816406 4.875 -2.984375 C 3.757812 -4.160156 2.894531 -5.523438 2.28125 -7.078125 C 1.675781 -8.628906 1.375 -10.273438 1.375 -12.015625 C 1.375 -13.765625 1.675781 -15.410156 2.28125 -16.953125 C 2.894531 -18.492188 3.757812 -19.851562 4.875 -21.03125 C 5.988281 -22.207031 7.3125 -23.128906 8.84375 -23.796875 C 10.382812 -24.472656 12.085938 -24.8125 13.953125 -24.8125 C 15.609375 -24.8125 17.117188 -24.5625 18.484375 -24.0625 C 19.859375 -23.570312 21.070312 -22.875 22.125 -21.96875 C 23.1875 -21.070312 24.066406 -20.03125 24.765625 -18.84375 C 25.472656 -17.65625 25.984375 -16.363281 26.296875 -14.96875 L 19.046875 -14.96875 C 18.617188 -16.113281 17.945312 -16.9375 17.03125 -17.4375 C 16.125 -17.945312 15.101562 -18.203125 13.96875 -18.203125 C 13.03125 -18.203125 12.140625 -17.960938 11.296875 -17.484375 C 10.453125 -17.015625 9.765625 -16.316406 9.234375 -15.390625 C 8.710938 -14.472656 8.453125 -13.347656 8.453125 -12.015625 C 8.453125 -10.691406 8.710938 -9.5625 9.234375 -8.625 C 9.765625 -7.695312 10.453125 -6.992188 11.296875 -6.515625 C 12.140625 -6.035156 13.03125 -5.796875 13.96875 -5.796875 C 15.101562 -5.796875 16.125 -6.070312 17.03125 -6.625 C 17.945312 -7.175781 18.617188 -8.125 19.046875 -9.46875 L 26.296875 -9.46875 C 26.015625 -7.976562 25.519531 -6.609375 24.8125 -5.359375 C 24.113281 -4.117188 23.226562 -3.039062 22.15625 -2.125 C 21.09375 -1.207031 19.875 -0.5 18.5 0 C 17.125 0.507812 15.609375 0.765625 13.953125 0.765625 Z M 13.953125 0.765625 "/></g></g></g><g fill="#47b5ff" fill-opacity="1"><g transform="translate(275.856894, 265.618126)"><g><path d="M 26.171875 0 L 18.203125 0 L 13.046875 -9.953125 L 9.90625 -6.609375 L 9.90625 0 L 2.765625 0 L 2.765625 -32.703125 L 9.90625 -32.703125 L 9.90625 -14.15625 L 16.65625 -24.046875 L 25.34375 -24.046875 L 18.21875 -14.671875 Z M 26.171875 0 "/></g></g></g><g fill="#06283d" fill-opacity="1"><g transform="translate(63.945092, 286.649981)"><g><path d="M 1.03125 0 L 1.03125 -9.328125 L 2.046875 -9.328125 L 2.046875 -4.90625 L 6.875 -9.328125 L 8.21875 -9.328125 L 3.15625 -4.765625 L 8.328125 0 L 6.890625 0 L 2.046875 -4.484375 L 2.046875 0 Z M 1.03125 0 "/></g></g></g><g fill="#06283d" fill-opacity="1"><g transform="translate(73.55312, 286.649981)"><g><path d="M 3.890625 -7.28125 C 4.492188 -7.28125 5.015625 -7.144531 5.453125 -6.875 C 5.898438 -6.613281 6.242188 -6.238281 6.484375 -5.75 C 6.722656 -5.269531 6.84375 -4.703125 6.84375 -4.046875 L 6.84375 -3.34375 L 1.953125 -3.34375 C 1.960938 -2.53125 2.164062 -1.910156 2.5625 -1.484375 C 2.957031 -1.066406 3.507812 -0.859375 4.21875 -0.859375 C 4.675781 -0.859375 5.078125 -0.898438 5.421875 -0.984375 C 5.773438 -1.078125 6.140625 -1.203125 6.515625 -1.359375 L 6.515625 -0.328125 C 6.148438 -0.171875 5.789062 -0.0546875 5.4375 0.015625 C 5.082031 0.0976562 4.660156 0.140625 4.171875 0.140625 C 3.484375 0.140625 2.878906 0.00390625 2.359375 -0.265625 C 1.847656 -0.546875 1.445312 -0.957031 1.15625 -1.5 C 0.875 -2.039062 0.734375 -2.710938 0.734375 -3.515625 C 0.734375 -4.296875 0.863281 -4.96875 1.125 -5.53125 C 1.382812 -6.09375 1.753906 -6.523438 2.234375 -6.828125 C 2.710938 -7.128906 3.265625 -7.28125 3.890625 -7.28125 Z M 3.875 -6.3125 C 3.3125 -6.3125 2.867188 -6.128906 2.546875 -5.765625 C 2.222656 -5.410156 2.03125 -4.914062 1.96875 -4.28125 L 5.609375 -4.28125 C 5.597656 -4.882812 5.453125 -5.375 5.171875 -5.75 C 4.898438 -6.125 4.46875 -6.3125 3.875 -6.3125 Z M 5.375 -9.5 C 5.539062 -9.726562 5.679688 -9.929688 5.796875 -10.109375 C 5.921875 -10.296875 6.054688 -10.535156 6.203125 -10.828125 L 7.375 -10.828125 L 7.375 -10.6875 C 7.175781 -10.425781 6.960938 -10.179688 6.734375 -9.953125 C 6.503906 -9.734375 6.273438 -9.53125 6.046875 -9.34375 L 5.375 -9.34375 Z M 5.890625 -8.078125 L 5.234375 -8.078125 C 5.015625 -8.222656 4.789062 -8.382812 4.5625 -8.5625 C 4.332031 -8.75 4.101562 -8.945312 3.875 -9.15625 C 3.632812 -8.945312 3.398438 -8.75 3.171875 -8.5625 C 2.941406 -8.382812 2.71875 -8.222656 2.5 -8.078125 L 1.84375 -8.078125 L 1.84375 -8.234375 C 2.0625 -8.484375 2.300781 -8.753906 2.5625 -9.046875 C 2.820312 -9.335938 3.050781 -9.632812 3.25 -9.9375 L 4.484375 -9.9375 C 4.679688 -9.632812 4.90625 -9.335938 5.15625 -9.046875 C 5.414062 -8.753906 5.660156 -8.484375 5.890625 -8.234375 Z M 5.890625 -8.078125 "/></g></g></g><g fill="#06283d" fill-opacity="1"><g transform="translate(82.454967, 286.649981)"><g><path d="M 1.671875 -1.5 L 1.671875 -5.84375 L 0.234375 -5.84375 L 0.234375 -6.671875 L 1.671875 -6.671875 L 1.671875 -8.375 L 2.640625 -8.625 L 2.640625 -6.671875 L 4.65625 -6.671875 L 4.65625 -5.84375 L 2.640625 -5.84375 L 2.640625 -1.75 C 2.640625 -1.394531 2.71875 -1.140625 2.875 -0.984375 C 3.039062 -0.828125 3.304688 -0.75 3.671875 -0.75 C 3.847656 -0.75 4.007812 -0.757812 4.15625 -0.78125 C 4.3125 -0.8125 4.472656 -0.859375 4.640625 -0.921875 L 4.640625 -0.046875 C 4.472656 0.015625 4.285156 0.0546875 4.078125 0.078125 C 3.867188 0.109375 3.664062 0.125 3.46875 0.125 C 2.882812 0.125 2.4375 -0.0078125 2.125 -0.28125 C 1.820312 -0.5625 1.671875 -0.96875 1.671875 -1.5 Z M 1.671875 -1.5 "/></g></g></g><g fill="#06283d" fill-opacity="1"><g transform="translate(88.70531, 286.649981)"><g/></g></g><g fill="#06283d" fill-opacity="1"><g transform="translate(92.957021, 286.649981)"><g><path d="M 0.84375 0 L 0.84375 -6.671875 L 1.828125 -6.671875 L 1.828125 -5.890625 C 2.085938 -6.191406 2.394531 -6.421875 2.75 -6.578125 C 3.101562 -6.734375 3.5 -6.8125 3.9375 -6.8125 C 4.6875 -6.8125 5.300781 -6.570312 5.78125 -6.09375 C 6.257812 -5.613281 6.5 -4.988281 6.5 -4.21875 L 6.5 0 L 5.53125 0 L 5.53125 -4.03125 C 5.53125 -4.613281 5.359375 -5.078125 5.015625 -5.421875 C 4.679688 -5.765625 4.234375 -5.9375 3.671875 -5.9375 C 3.265625 -5.9375 2.90625 -5.847656 2.59375 -5.671875 C 2.28125 -5.492188 2.023438 -5.242188 1.828125 -4.921875 L 1.828125 0 Z M 0.84375 0 "/></g></g></g><g fill="#06283d" fill-opacity="1"><g transform="translate(101.658997, 286.649981)"><g><path d="M 7.34375 -3.578125 C 7.34375 -2.398438 7.039062 -1.484375 6.4375 -0.828125 C 5.84375 -0.179688 5.035156 0.140625 4.015625 0.140625 C 3.378906 0.140625 2.816406 -0.00390625 2.328125 -0.296875 C 1.835938 -0.585938 1.445312 -1.007812 1.15625 -1.5625 C 0.875 -2.125 0.734375 -2.796875 0.734375 -3.578125 C 0.734375 -4.765625 1.023438 -5.675781 1.609375 -6.3125 C 2.203125 -6.957031 3.015625 -7.28125 4.046875 -7.28125 C 4.691406 -7.28125 5.257812 -7.132812 5.75 -6.84375 C 6.25 -6.550781 6.640625 -6.128906 6.921875 -5.578125 C 7.203125 -5.035156 7.34375 -4.367188 7.34375 -3.578125 Z M 1.953125 -3.578125 C 1.953125 -2.734375 2.117188 -2.066406 2.453125 -1.578125 C 2.785156 -1.085938 3.3125 -0.84375 4.03125 -0.84375 C 4.757812 -0.84375 5.289062 -1.085938 5.625 -1.578125 C 5.957031 -2.066406 6.125 -2.734375 6.125 -3.578125 C 6.125 -4.421875 5.957031 -5.082031 5.625 -5.5625 C 5.289062 -6.050781 4.757812 -6.296875 4.03125 -6.296875 C 3.300781 -6.296875 2.769531 -6.050781 2.4375 -5.5625 C 2.113281 -5.082031 1.953125 -4.421875 1.953125 -3.578125 Z M 5.515625 -9.5 C 5.679688 -9.726562 5.820312 -9.929688 5.9375 -10.109375 C 6.0625 -10.296875 6.195312 -10.535156 6.34375 -10.828125 L 7.515625 -10.828125 L 7.515625 -10.6875 C 7.316406 -10.425781 7.101562 -10.179688 6.875 -9.953125 C 6.644531 -9.734375 6.414062 -9.53125 6.1875 -9.34375 L 5.515625 -9.34375 Z M 6.03125 -8.078125 L 5.375 -8.078125 C 5.15625 -8.222656 4.929688 -8.382812 4.703125 -8.5625 C 4.472656 -8.75 4.242188 -8.945312 4.015625 -9.15625 C 3.773438 -8.945312 3.539062 -8.75 3.3125 -8.5625 C 3.082031 -8.382812 2.859375 -8.222656 2.640625 -8.078125 L 1.984375 -8.078125 L 1.984375 -8.234375 C 2.203125 -8.484375 2.441406 -8.753906 2.703125 -9.046875 C 2.960938 -9.335938 3.191406 -9.632812 3.390625 -9.9375 L 4.625 -9.9375 C 4.820312 -9.632812 5.046875 -9.335938 5.296875 -9.046875 C 5.554688 -8.753906 5.800781 -8.484375 6.03125 -8.234375 Z M 6.03125 -8.078125 "/></g></g></g><g fill="#06283d" fill-opacity="1"><g transform="translate(111.107127, 286.649981)"><g><path d="M 1.328125 -7.953125 C 1.148438 -7.953125 0.992188 -8.019531 0.859375 -8.15625 C 0.734375 -8.289062 0.671875 -8.445312 0.671875 -8.625 C 0.671875 -8.8125 0.734375 -8.96875 0.859375 -9.09375 C 0.992188 -9.226562 1.148438 -9.296875 1.328125 -9.296875 C 1.515625 -9.296875 1.671875 -9.226562 1.796875 -9.09375 C 1.929688 -8.96875 2 -8.8125 2 -8.625 C 2 -8.445312 1.929688 -8.289062 1.796875 -8.15625 C 1.671875 -8.019531 1.515625 -7.953125 1.328125 -7.953125 Z M 1.828125 -6.671875 L 1.828125 0 L 0.84375 0 L 0.84375 -6.671875 Z M 1.828125 -6.671875 "/></g></g></g><g fill="#06283d" fill-opacity="1"><g transform="translate(115.158979, 286.649981)"><g/></g></g><g fill="#06283d" fill-opacity="1"><g transform="translate(119.410693, 286.649981)"><g><path d="M 0.15625 -0.921875 L 0.765625 -1.5625 C 1.066406 -1.28125 1.40625 -1.0625 1.78125 -0.90625 C 2.15625 -0.75 2.539062 -0.671875 2.9375 -0.671875 C 3.46875 -0.671875 3.898438 -0.78125 4.234375 -1 C 4.578125 -1.21875 4.75 -1.503906 4.75 -1.859375 C 4.75 -2.148438 4.644531 -2.375 4.4375 -2.53125 C 4.238281 -2.695312 3.925781 -2.8125 3.5 -2.875 L 2.34375 -3.03125 C 1.675781 -3.132812 1.179688 -3.332031 0.859375 -3.625 C 0.535156 -3.925781 0.375 -4.332031 0.375 -4.84375 C 0.375 -5.394531 0.609375 -5.851562 1.078125 -6.21875 C 1.546875 -6.59375 2.144531 -6.78125 2.875 -6.78125 C 3.351562 -6.78125 3.804688 -6.707031 4.234375 -6.5625 C 4.671875 -6.425781 5.09375 -6.207031 5.5 -5.90625 L 4.984375 -5.234375 C 4.609375 -5.484375 4.242188 -5.671875 3.890625 -5.796875 C 3.546875 -5.921875 3.191406 -5.984375 2.828125 -5.984375 C 2.367188 -5.984375 1.992188 -5.878906 1.703125 -5.671875 C 1.421875 -5.472656 1.28125 -5.207031 1.28125 -4.875 C 1.28125 -4.59375 1.375 -4.375 1.5625 -4.21875 C 1.757812 -4.0625 2.078125 -3.953125 2.515625 -3.890625 L 3.671875 -3.734375 C 4.335938 -3.640625 4.835938 -3.4375 5.171875 -3.125 C 5.503906 -2.820312 5.671875 -2.421875 5.671875 -1.921875 C 5.671875 -1.640625 5.601562 -1.367188 5.46875 -1.109375 C 5.332031 -0.859375 5.140625 -0.640625 4.890625 -0.453125 C 4.648438 -0.273438 4.363281 -0.132812 4.03125 -0.03125 C 3.707031 0.0703125 3.351562 0.125 2.96875 0.125 C 2.414062 0.125 1.894531 0.0351562 1.40625 -0.140625 C 0.925781 -0.328125 0.507812 -0.585938 0.15625 -0.921875 Z M 0.15625 -0.921875 "/></g></g></g><g fill="#06283d" fill-opacity="1"><g transform="translate(126.740285, 286.649981)"><g><path d="M 3.890625 -7.28125 C 4.492188 -7.28125 5.015625 -7.144531 5.453125 -6.875 C 5.898438 -6.613281 6.242188 -6.238281 6.484375 -5.75 C 6.722656 -5.269531 6.84375 -4.703125 6.84375 -4.046875 L 6.84375 -3.34375 L 1.953125 -3.34375 C 1.960938 -2.53125 2.164062 -1.910156 2.5625 -1.484375 C 2.957031 -1.066406 3.507812 -0.859375 4.21875 -0.859375 C 4.675781 -0.859375 5.078125 -0.898438 5.421875 -0.984375 C 5.773438 -1.078125 6.140625 -1.203125 6.515625 -1.359375 L 6.515625 -0.328125 C 6.148438 -0.171875 5.789062 -0.0546875 5.4375 0.015625 C 5.082031 0.0976562 4.660156 0.140625 4.171875 0.140625 C 3.484375 0.140625 2.878906 0.00390625 2.359375 -0.265625 C 1.847656 -0.546875 1.445312 -0.957031 1.15625 -1.5 C 0.875 -2.039062 0.734375 -2.710938 0.734375 -3.515625 C 0.734375 -4.296875 0.863281 -4.96875 1.125 -5.53125 C 1.382812 -6.09375 1.753906 -6.523438 2.234375 -6.828125 C 2.710938 -7.128906 3.265625 -7.28125 3.890625 -7.28125 Z M 3.875 -6.3125 C 3.3125 -6.3125 2.867188 -6.128906 2.546875 -5.765625 C 2.222656 -5.410156 2.03125 -4.914062 1.96875 -4.28125 L 5.609375 -4.28125 C 5.597656 -4.882812 5.453125 -5.375 5.171875 -5.75 C 4.898438 -6.125 4.46875 -6.3125 3.875 -6.3125 Z M 5.40625 -9.734375 C 5.40625 -9.390625 5.300781 -9.125 5.09375 -8.9375 C 4.894531 -8.757812 4.640625 -8.632812 4.328125 -8.5625 L 4.265625 -7.859375 L 3.546875 -7.859375 L 3.453125 -9 C 3.773438 -9.050781 4.03125 -9.128906 4.21875 -9.234375 C 4.40625 -9.335938 4.5 -9.488281 4.5 -9.6875 C 4.5 -9.90625 4.414062 -10.046875 4.25 -10.109375 C 4.09375 -10.179688 3.890625 -10.21875 3.640625 -10.21875 C 3.523438 -10.21875 3.40625 -10.210938 3.28125 -10.203125 C 3.164062 -10.191406 3.070312 -10.179688 3 -10.171875 L 3 -10.859375 C 3.15625 -10.910156 3.398438 -10.9375 3.734375 -10.9375 C 4.265625 -10.9375 4.675781 -10.835938 4.96875 -10.640625 C 5.257812 -10.441406 5.40625 -10.140625 5.40625 -9.734375 Z M 5.40625 -9.734375 "/></g></g></g><g fill="#06283d" fill-opacity="1"><g transform="translate(135.642134, 286.649981)"><g/></g></g><g fill="#06283d" fill-opacity="1"><g transform="translate(139.893848, 286.649981)"><g><path d="M 3.953125 -0.765625 C 4.304688 -0.765625 4.648438 -0.835938 4.984375 -0.984375 C 5.316406 -1.128906 5.625 -1.335938 5.90625 -1.609375 L 6.515625 -0.953125 C 6.160156 -0.609375 5.757812 -0.34375 5.3125 -0.15625 C 4.875 0.03125 4.414062 0.125 3.9375 0.125 C 3.457031 0.125 3.007812 0.0351562 2.59375 -0.140625 C 2.175781 -0.316406 1.816406 -0.5625 1.515625 -0.875 C 1.210938 -1.1875 0.972656 -1.554688 0.796875 -1.984375 C 0.617188 -2.410156 0.53125 -2.863281 0.53125 -3.34375 C 0.53125 -3.820312 0.617188 -4.269531 0.796875 -4.6875 C 0.972656 -5.113281 1.210938 -5.484375 1.515625 -5.796875 C 1.816406 -6.109375 2.175781 -6.351562 2.59375 -6.53125 C 3.007812 -6.71875 3.457031 -6.8125 3.9375 -6.8125 C 4.414062 -6.8125 4.882812 -6.71875 5.34375 -6.53125 C 5.800781 -6.34375 6.203125 -6.082031 6.546875 -5.75 L 5.921875 -5.03125 C 5.648438 -5.3125 5.34375 -5.523438 5 -5.671875 C 4.65625 -5.828125 4.300781 -5.90625 3.9375 -5.90625 C 3.601562 -5.90625 3.285156 -5.835938 2.984375 -5.703125 C 2.679688 -5.566406 2.421875 -5.382812 2.203125 -5.15625 C 1.984375 -4.925781 1.8125 -4.65625 1.6875 -4.34375 C 1.5625 -4.03125 1.5 -3.695312 1.5 -3.34375 C 1.5 -2.976562 1.5625 -2.640625 1.6875 -2.328125 C 1.820312 -2.015625 2 -1.742188 2.21875 -1.515625 C 2.4375 -1.285156 2.695312 -1.101562 3 -0.96875 C 3.300781 -0.832031 3.617188 -0.765625 3.953125 -0.765625 Z M 3.953125 -0.765625 "/></g></g></g><g fill="#06283d" fill-opacity="1"><g transform="translate(148.116159, 286.649981)"><g><path d="M 0.84375 0 L 0.84375 -9.328125 L 1.828125 -9.5625 L 1.828125 -5.890625 C 2.085938 -6.191406 2.394531 -6.421875 2.75 -6.578125 C 3.101562 -6.734375 3.5 -6.8125 3.9375 -6.8125 C 4.6875 -6.8125 5.300781 -6.570312 5.78125 -6.09375 C 6.257812 -5.613281 6.5 -4.988281 6.5 -4.21875 L 6.5 0 L 5.53125 0 L 5.53125 -4.03125 C 5.53125 -4.613281 5.359375 -5.078125 5.015625 -5.421875 C 4.679688 -5.765625 4.234375 -5.9375 3.671875 -5.9375 C 3.265625 -5.9375 2.90625 -5.847656 2.59375 -5.671875 C 2.28125 -5.492188 2.023438 -5.242188 1.828125 -4.921875 L 1.828125 0 Z M 0.84375 0 "/></g></g></g><g fill="#06283d" fill-opacity="1"><g transform="translate(156.818137, 286.649981)"><g><path d="M 1.328125 -7.953125 C 1.148438 -7.953125 0.992188 -8.019531 0.859375 -8.15625 C 0.734375 -8.289062 0.671875 -8.445312 0.671875 -8.625 C 0.671875 -8.8125 0.734375 -8.96875 0.859375 -9.09375 C 0.992188 -9.226562 1.148438 -9.296875 1.328125 -9.296875 C 1.515625 -9.296875 1.671875 -9.226562 1.796875 -9.09375 C 1.929688 -8.96875 2 -8.8125 2 -8.625 C 2 -8.445312 1.929688 -8.289062 1.796875 -8.15625 C 1.671875 -8.019531 1.515625 -7.953125 1.328125 -7.953125 Z M 1.828125 -6.671875 L 1.828125 0 L 0.84375 0 L 0.84375 -6.671875 Z M 1.828125 -6.671875 "/></g></g></g><g fill="#06283d" fill-opacity="1"><g transform="translate(160.869986, 286.649981)"><g><path d="M 2.953125 0.125 C 2.222656 0.125 1.628906 -0.0625 1.171875 -0.4375 C 0.710938 -0.8125 0.484375 -1.296875 0.484375 -1.890625 C 0.484375 -2.515625 0.722656 -3.007812 1.203125 -3.375 C 1.679688 -3.75 2.328125 -3.9375 3.140625 -3.9375 C 3.492188 -3.9375 3.835938 -3.894531 4.171875 -3.8125 C 4.503906 -3.726562 4.816406 -3.617188 5.109375 -3.484375 L 5.109375 -4.359375 C 5.109375 -4.890625 4.957031 -5.289062 4.65625 -5.5625 C 4.351562 -5.832031 3.910156 -5.96875 3.328125 -5.96875 C 3.003906 -5.96875 2.675781 -5.921875 2.34375 -5.828125 C 2.007812 -5.734375 1.640625 -5.585938 1.234375 -5.390625 L 0.859375 -6.140625 C 1.347656 -6.367188 1.796875 -6.535156 2.203125 -6.640625 C 2.609375 -6.753906 3.015625 -6.8125 3.421875 -6.8125 C 4.265625 -6.8125 4.914062 -6.609375 5.375 -6.203125 C 5.832031 -5.804688 6.0625 -5.234375 6.0625 -4.484375 L 6.0625 0 L 5.109375 0 L 5.109375 -0.65625 C 4.804688 -0.394531 4.472656 -0.195312 4.109375 -0.0625 C 3.753906 0.0625 3.367188 0.125 2.953125 0.125 Z M 1.421875 -1.921875 C 1.421875 -1.546875 1.578125 -1.238281 1.890625 -1 C 2.210938 -0.769531 2.625 -0.65625 3.125 -0.65625 C 3.519531 -0.65625 3.878906 -0.71875 4.203125 -0.84375 C 4.535156 -0.96875 4.835938 -1.160156 5.109375 -1.421875 L 5.109375 -2.671875 C 4.828125 -2.859375 4.53125 -2.992188 4.21875 -3.078125 C 3.90625 -3.171875 3.554688 -3.21875 3.171875 -3.21875 C 2.640625 -3.21875 2.210938 -3.097656 1.890625 -2.859375 C 1.578125 -2.617188 1.421875 -2.304688 1.421875 -1.921875 Z M 1.421875 -1.921875 "/></g></g></g><g fill="#06283d" fill-opacity="1"><g transform="translate(169.132265, 286.649981)"><g><path d="M 1.015625 -0.984375 L 2.078125 -0.984375 L 1.015625 1.828125 L 0.234375 1.828125 Z M 1.015625 -0.984375 "/></g></g></g><g fill="#06283d" fill-opacity="1"><g transform="translate(173.157472, 286.649981)"><g/></g></g><g fill="#06283d" fill-opacity="1"><g transform="translate(177.409181, 286.649981)"><g><path d="M 0.84375 0 L 0.84375 -9.328125 L 1.828125 -9.5625 L 1.828125 -3.671875 L 5.3125 -6.671875 L 6.515625 -6.671875 L 2.859375 -3.5 L 6.6875 0 L 5.34375 0 L 1.828125 -3.203125 L 1.828125 0 Z M 0.84375 0 "/></g></g></g><g fill="#06283d" fill-opacity="1"><g transform="translate(185.378331, 286.649981)"><g><path d="M 0.84375 0 L 0.84375 -9.328125 L 1.828125 -9.5625 L 1.828125 -5.890625 C 2.085938 -6.191406 2.394531 -6.421875 2.75 -6.578125 C 3.101562 -6.734375 3.5 -6.8125 3.9375 -6.8125 C 4.6875 -6.8125 5.300781 -6.570312 5.78125 -6.09375 C 6.257812 -5.613281 6.5 -4.988281 6.5 -4.21875 L 6.5 0 L 5.53125 0 L 5.53125 -4.03125 C 5.53125 -4.613281 5.359375 -5.078125 5.015625 -5.421875 C 4.679688 -5.765625 4.234375 -5.9375 3.671875 -5.9375 C 3.265625 -5.9375 2.90625 -5.847656 2.59375 -5.671875 C 2.28125 -5.492188 2.023438 -5.242188 1.828125 -4.921875 L 1.828125 0 Z M 0.84375 0 "/></g></g></g><g fill="#06283d" fill-opacity="1"><g transform="translate(194.080304, 286.649981)"><g><path d="M 0.53125 0 Z M 0.53125 -3.34375 C 0.53125 -3.820312 0.617188 -4.273438 0.796875 -4.703125 C 0.972656 -5.128906 1.210938 -5.5 1.515625 -5.8125 C 1.828125 -6.125 2.191406 -6.367188 2.609375 -6.546875 C 3.023438 -6.722656 3.46875 -6.8125 3.9375 -6.8125 C 4.414062 -6.8125 4.859375 -6.722656 5.265625 -6.546875 C 5.679688 -6.367188 6.039062 -6.125 6.34375 -5.8125 C 6.65625 -5.5 6.898438 -5.128906 7.078125 -4.703125 C 7.253906 -4.273438 7.34375 -3.820312 7.34375 -3.34375 C 7.34375 -2.851562 7.253906 -2.394531 7.078125 -1.96875 C 6.898438 -1.539062 6.65625 -1.171875 6.34375 -0.859375 C 6.039062 -0.554688 5.679688 -0.3125 5.265625 -0.125 C 4.859375 0.0507812 4.414062 0.140625 3.9375 0.140625 C 3.46875 0.140625 3.023438 0.0507812 2.609375 -0.125 C 2.191406 -0.3125 1.828125 -0.554688 1.515625 -0.859375 C 1.210938 -1.171875 0.972656 -1.539062 0.796875 -1.96875 C 0.617188 -2.394531 0.53125 -2.851562 0.53125 -3.34375 Z M 3.9375 -0.75 C 4.28125 -0.75 4.597656 -0.8125 4.890625 -0.9375 C 5.191406 -1.070312 5.453125 -1.257812 5.671875 -1.5 C 5.890625 -1.738281 6.0625 -2.015625 6.1875 -2.328125 C 6.3125 -2.640625 6.375 -2.976562 6.375 -3.34375 C 6.375 -3.707031 6.3125 -4.046875 6.1875 -4.359375 C 6.0625 -4.679688 5.890625 -4.957031 5.671875 -5.1875 C 5.453125 -5.414062 5.191406 -5.597656 4.890625 -5.734375 C 4.597656 -5.867188 4.28125 -5.9375 3.9375 -5.9375 C 3.601562 -5.9375 3.285156 -5.867188 2.984375 -5.734375 C 2.691406 -5.597656 2.4375 -5.414062 2.21875 -5.1875 C 2 -4.957031 1.820312 -4.679688 1.6875 -4.359375 C 1.5625 -4.046875 1.5 -3.707031 1.5 -3.34375 C 1.5 -2.976562 1.5625 -2.640625 1.6875 -2.328125 C 1.8125 -2.015625 1.984375 -1.738281 2.203125 -1.5 C 2.421875 -1.257812 2.679688 -1.070312 2.984375 -0.9375 C 3.285156 -0.8125 3.601562 -0.75 3.9375 -0.75 Z M 5.0625 -7.9375 L 3.9375 -9.015625 L 2.828125 -7.9375 L 2.03125 -7.9375 L 3.421875 -9.5625 L 4.484375 -9.5625 L 5.875 -7.9375 Z M 5.0625 -7.9375 "/></g></g></g><g fill="#06283d" fill-opacity="1"><g transform="translate(203.341892, 286.649981)"><g><path d="M 1.328125 -7.953125 C 1.148438 -7.953125 0.992188 -8.019531 0.859375 -8.15625 C 0.734375 -8.289062 0.671875 -8.445312 0.671875 -8.625 C 0.671875 -8.8125 0.734375 -8.96875 0.859375 -9.09375 C 0.992188 -9.226562 1.148438 -9.296875 1.328125 -9.296875 C 1.515625 -9.296875 1.671875 -9.226562 1.796875 -9.09375 C 1.929688 -8.96875 2 -8.8125 2 -8.625 C 2 -8.445312 1.929688 -8.289062 1.796875 -8.15625 C 1.671875 -8.019531 1.515625 -7.953125 1.328125 -7.953125 Z M 1.828125 -6.671875 L 1.828125 0 L 0.84375 0 L 0.84375 -6.671875 Z M 1.828125 -6.671875 "/></g></g></g><g fill="#06283d" fill-opacity="1"><g transform="translate(207.393741, 286.649981)"><g/></g></g><g fill="#06283d" fill-opacity="1"><g transform="translate(211.64545, 286.649981)"><g><path d="M 0.84375 2.734375 L 0.84375 -6.671875 L 1.8125 -6.671875 L 1.8125 -5.953125 C 2.09375 -6.234375 2.414062 -6.441406 2.78125 -6.578125 C 3.15625 -6.710938 3.550781 -6.78125 3.96875 -6.78125 C 4.4375 -6.78125 4.875 -6.691406 5.28125 -6.515625 C 5.695312 -6.335938 6.054688 -6.09375 6.359375 -5.78125 C 6.660156 -5.476562 6.894531 -5.113281 7.0625 -4.6875 C 7.238281 -4.269531 7.328125 -3.820312 7.328125 -3.34375 C 7.328125 -2.863281 7.238281 -2.410156 7.0625 -1.984375 C 6.894531 -1.554688 6.660156 -1.1875 6.359375 -0.875 C 6.054688 -0.570312 5.695312 -0.332031 5.28125 -0.15625 C 4.875 0.0195312 4.429688 0.109375 3.953125 0.109375 C 3.566406 0.109375 3.191406 0.0390625 2.828125 -0.09375 C 2.460938 -0.226562 2.128906 -0.421875 1.828125 -0.671875 L 1.828125 2.734375 Z M 3.875 -5.921875 C 3.457031 -5.921875 3.066406 -5.835938 2.703125 -5.671875 C 2.347656 -5.503906 2.054688 -5.273438 1.828125 -4.984375 L 1.828125 -1.671875 C 2.054688 -1.390625 2.351562 -1.164062 2.71875 -1 C 3.082031 -0.84375 3.46875 -0.765625 3.875 -0.765625 C 4.582031 -0.765625 5.171875 -1.007812 5.640625 -1.5 C 6.117188 -1.988281 6.359375 -2.597656 6.359375 -3.328125 C 6.359375 -3.691406 6.289062 -4.03125 6.15625 -4.34375 C 6.03125 -4.664062 5.851562 -4.941406 5.625 -5.171875 C 5.40625 -5.398438 5.144531 -5.582031 4.84375 -5.71875 C 4.539062 -5.851562 4.21875 -5.921875 3.875 -5.921875 Z M 3.875 -5.921875 "/></g></g></g><g fill="#06283d" fill-opacity="1"><g transform="translate(220.893717, 286.649981)"><g><path d="M 0.84375 0 L 0.84375 -9.328125 L 1.828125 -9.5625 L 1.828125 -5.890625 C 2.085938 -6.191406 2.394531 -6.421875 2.75 -6.578125 C 3.101562 -6.734375 3.5 -6.8125 3.9375 -6.8125 C 4.6875 -6.8125 5.300781 -6.570312 5.78125 -6.09375 C 6.257812 -5.613281 6.5 -4.988281 6.5 -4.21875 L 6.5 0 L 5.53125 0 L 5.53125 -4.03125 C 5.53125 -4.613281 5.359375 -5.078125 5.015625 -5.421875 C 4.679688 -5.765625 4.234375 -5.9375 3.671875 -5.9375 C 3.265625 -5.9375 2.90625 -5.847656 2.59375 -5.671875 C 2.28125 -5.492188 2.023438 -5.242188 1.828125 -4.921875 L 1.828125 0 Z M 0.84375 0 "/></g></g></g><g fill="#06283d" fill-opacity="1"><g transform="translate(229.595691, 286.649981)"><g><path d="M 7.109375 -7.140625 L 7.109375 0 L 6.140625 0 L 5.96875 -0.953125 L 5.921875 -0.953125 C 5.691406 -0.578125 5.367188 -0.300781 4.953125 -0.125 C 4.546875 0.0507812 4.113281 0.140625 3.65625 0.140625 C 2.789062 0.140625 2.140625 -0.0664062 1.703125 -0.484375 C 1.265625 -0.898438 1.046875 -1.5625 1.046875 -2.46875 L 1.046875 -7.140625 L 2.234375 -7.140625 L 2.234375 -2.546875 C 2.234375 -1.410156 2.765625 -0.84375 3.828125 -0.84375 C 4.617188 -0.84375 5.164062 -1.0625 5.46875 -1.5 C 5.78125 -1.945312 5.9375 -2.585938 5.9375 -3.421875 L 5.9375 -7.140625 Z M 3.90625 2.34375 C 3.71875 2.34375 3.554688 2.28125 3.421875 2.15625 C 3.285156 2.03125 3.21875 1.84375 3.21875 1.59375 C 3.21875 1.34375 3.285156 1.15625 3.421875 1.03125 C 3.554688 0.914062 3.71875 0.859375 3.90625 0.859375 C 4.09375 0.859375 4.253906 0.914062 4.390625 1.03125 C 4.523438 1.15625 4.59375 1.34375 4.59375 1.59375 C 4.59375 1.84375 4.523438 2.03125 4.390625 2.15625 C 4.253906 2.28125 4.09375 2.34375 3.90625 2.34375 Z M 3.90625 2.34375 "/></g></g></g><g fill="#06283d" fill-opacity="1"><g transform="translate(239.217036, 286.649981)"><g><path d="M 3.953125 -0.765625 C 4.304688 -0.765625 4.648438 -0.835938 4.984375 -0.984375 C 5.316406 -1.128906 5.625 -1.335938 5.90625 -1.609375 L 6.515625 -0.953125 C 6.160156 -0.609375 5.757812 -0.34375 5.3125 -0.15625 C 4.875 0.03125 4.414062 0.125 3.9375 0.125 C 3.457031 0.125 3.007812 0.0351562 2.59375 -0.140625 C 2.175781 -0.316406 1.816406 -0.5625 1.515625 -0.875 C 1.210938 -1.1875 0.972656 -1.554688 0.796875 -1.984375 C 0.617188 -2.410156 0.53125 -2.863281 0.53125 -3.34375 C 0.53125 -3.820312 0.617188 -4.269531 0.796875 -4.6875 C 0.972656 -5.113281 1.210938 -5.484375 1.515625 -5.796875 C 1.816406 -6.109375 2.175781 -6.351562 2.59375 -6.53125 C 3.007812 -6.71875 3.457031 -6.8125 3.9375 -6.8125 C 4.414062 -6.8125 4.882812 -6.71875 5.34375 -6.53125 C 5.800781 -6.34375 6.203125 -6.082031 6.546875 -5.75 L 5.921875 -5.03125 C 5.648438 -5.3125 5.34375 -5.523438 5 -5.671875 C 4.65625 -5.828125 4.300781 -5.90625 3.9375 -5.90625 C 3.601562 -5.90625 3.285156 -5.835938 2.984375 -5.703125 C 2.679688 -5.566406 2.421875 -5.382812 2.203125 -5.15625 C 1.984375 -4.925781 1.8125 -4.65625 1.6875 -4.34375 C 1.5625 -4.03125 1.5 -3.695312 1.5 -3.34375 C 1.5 -2.976562 1.5625 -2.640625 1.6875 -2.328125 C 1.820312 -2.015625 2 -1.742188 2.21875 -1.515625 C 2.4375 -1.285156 2.695312 -1.101562 3 -0.96875 C 3.300781 -0.832031 3.617188 -0.765625 3.953125 -0.765625 Z M 3.953125 -0.765625 "/></g></g></g><g fill="#06283d" fill-opacity="1"><g transform="translate(247.43934, 286.649981)"><g/></g></g><g fill="#06283d" fill-opacity="1"><g transform="translate(251.691049, 286.649981)"><g><path d="M 0.84375 0 L 0.84375 -9.328125 L 1.828125 -9.5625 L 1.828125 -5.890625 C 2.085938 -6.191406 2.394531 -6.421875 2.75 -6.578125 C 3.101562 -6.734375 3.5 -6.8125 3.9375 -6.8125 C 4.6875 -6.8125 5.300781 -6.570312 5.78125 -6.09375 C 6.257812 -5.613281 6.5 -4.988281 6.5 -4.21875 L 6.5 0 L 5.53125 0 L 5.53125 -4.03125 C 5.53125 -4.613281 5.359375 -5.078125 5.015625 -5.421875 C 4.679688 -5.765625 4.234375 -5.9375 3.671875 -5.9375 C 3.265625 -5.9375 2.90625 -5.847656 2.59375 -5.671875 C 2.28125 -5.492188 2.023438 -5.242188 1.828125 -4.921875 L 1.828125 0 Z M 0.84375 0 "/></g></g></g><g fill="#06283d" fill-opacity="1"><g transform="translate(260.393033, 286.649981)"><g><path d="M 2.40625 0.859375 L 2.78125 -0.015625 L 0.0625 -6.671875 L 1.15625 -6.671875 L 3.3125 -1.203125 L 5.65625 -6.671875 L 6.71875 -6.671875 L 3.40625 1 C 3.113281 1.632812 2.796875 2.09375 2.453125 2.375 C 2.109375 2.664062 1.671875 2.8125 1.140625 2.8125 C 1.015625 2.8125 0.894531 2.800781 0.78125 2.78125 C 0.664062 2.769531 0.570312 2.757812 0.5 2.75 L 0.5 1.859375 C 0.59375 1.867188 0.679688 1.878906 0.765625 1.890625 C 0.847656 1.898438 0.945312 1.90625 1.0625 1.90625 C 1.363281 1.90625 1.617188 1.820312 1.828125 1.65625 C 2.046875 1.488281 2.238281 1.222656 2.40625 0.859375 Z M 2.40625 0.859375 "/></g></g></g><g fill="#06283d" fill-opacity="1"><g transform="translate(268.575375, 286.649981)"><g/></g></g><g fill="#06283d" fill-opacity="1"><g transform="translate(272.827084, 286.649981)"><g><path d="M 2.953125 0 L 0.0625 -6.671875 L 1.15625 -6.671875 L 3.4375 -1.28125 L 5.71875 -6.671875 L 6.765625 -6.671875 L 3.890625 0 Z M 2.953125 0 "/></g></g></g><g fill="#06283d" fill-opacity="1"><g transform="translate(281.049385, 286.649981)"><g><path d="M 7.34375 -3.578125 C 7.34375 -2.398438 7.039062 -1.484375 6.4375 -0.828125 C 5.84375 -0.179688 5.035156 0.140625 4.015625 0.140625 C 3.378906 0.140625 2.816406 -0.00390625 2.328125 -0.296875 C 1.835938 -0.585938 1.445312 -1.007812 1.15625 -1.5625 C 0.875 -2.125 0.734375 -2.796875 0.734375 -3.578125 C 0.734375 -4.765625 1.023438 -5.675781 1.609375 -6.3125 C 2.203125 -6.957031 3.015625 -7.28125 4.046875 -7.28125 C 4.691406 -7.28125 5.257812 -7.132812 5.75 -6.84375 C 6.25 -6.550781 6.640625 -6.128906 6.921875 -5.578125 C 7.203125 -5.035156 7.34375 -4.367188 7.34375 -3.578125 Z M 1.953125 -3.578125 C 1.953125 -2.734375 2.117188 -2.066406 2.453125 -1.578125 C 2.785156 -1.085938 3.3125 -0.84375 4.03125 -0.84375 C 4.757812 -0.84375 5.289062 -1.085938 5.625 -1.578125 C 5.957031 -2.066406 6.125 -2.734375 6.125 -3.578125 C 6.125 -4.421875 5.957031 -5.082031 5.625 -5.5625 C 5.289062 -6.050781 4.757812 -6.296875 4.03125 -6.296875 C 3.300781 -6.296875 2.769531 -6.050781 2.4375 -5.5625 C 2.113281 -5.082031 1.953125 -4.421875 1.953125 -3.578125 Z M 4 2.34375 C 3.8125 2.34375 3.648438 2.28125 3.515625 2.15625 C 3.378906 2.03125 3.3125 1.84375 3.3125 1.59375 C 3.3125 1.34375 3.378906 1.15625 3.515625 1.03125 C 3.648438 0.914062 3.8125 0.859375 4 0.859375 C 4.1875 0.859375 4.347656 0.914062 4.484375 1.03125 C 4.617188 1.15625 4.6875 1.34375 4.6875 1.59375 C 4.6875 1.84375 4.617188 2.03125 4.484375 2.15625 C 4.347656 2.28125 4.1875 2.34375 4 2.34375 Z M 4 2.34375 "/></g></g></g><g fill="#06283d" fill-opacity="1"><g transform="translate(290.497517, 286.649981)"><g><path d="M 0.84375 0 L 0.84375 -6.671875 L 1.828125 -6.671875 L 1.828125 -5.890625 C 2.085938 -6.191406 2.394531 -6.421875 2.75 -6.578125 C 3.101562 -6.734375 3.5 -6.8125 3.9375 -6.8125 C 4.6875 -6.8125 5.300781 -6.570312 5.78125 -6.09375 C 6.257812 -5.613281 6.5 -4.988281 6.5 -4.21875 L 6.5 0 L 5.53125 0 L 5.53125 -4.03125 C 5.53125 -4.613281 5.359375 -5.078125 5.015625 -5.421875 C 4.679688 -5.765625 4.234375 -5.9375 3.671875 -5.9375 C 3.265625 -5.9375 2.90625 -5.847656 2.59375 -5.671875 C 2.28125 -5.492188 2.023438 -5.242188 1.828125 -4.921875 L 1.828125 0 Z M 0.84375 0 "/></g></g></g><g fill="#06283d" fill-opacity="1"><g transform="translate(299.19949, 286.649981)"><g><path d="M 3.859375 0.046875 C 3.398438 0.046875 2.96875 -0.0390625 2.5625 -0.21875 C 2.15625 -0.394531 1.800781 -0.632812 1.5 -0.9375 C 1.195312 -1.25 0.957031 -1.613281 0.78125 -2.03125 C 0.613281 -2.445312 0.53125 -2.894531 0.53125 -3.375 C 0.53125 -3.851562 0.613281 -4.300781 0.78125 -4.71875 C 0.957031 -5.132812 1.195312 -5.492188 1.5 -5.796875 C 1.800781 -6.109375 2.15625 -6.351562 2.5625 -6.53125 C 2.976562 -6.707031 3.421875 -6.796875 3.890625 -6.796875 C 4.273438 -6.796875 4.644531 -6.726562 5 -6.59375 C 5.363281 -6.457031 5.695312 -6.265625 6 -6.015625 L 6 -6.671875 L 6.96875 -6.671875 L 6.96875 0.15625 C 6.96875 1.007812 6.71875 1.664062 6.21875 2.125 C 5.726562 2.582031 5.019531 2.8125 4.09375 2.8125 C 3.632812 2.8125 3.175781 2.75 2.71875 2.625 C 2.269531 2.507812 1.859375 2.34375 1.484375 2.125 L 1.90625 1.34375 C 2.300781 1.5625 2.671875 1.71875 3.015625 1.8125 C 3.359375 1.90625 3.703125 1.953125 4.046875 1.953125 C 4.679688 1.953125 5.160156 1.800781 5.484375 1.5 C 5.816406 1.195312 5.984375 0.753906 5.984375 0.171875 L 5.984375 -0.71875 C 5.679688 -0.46875 5.347656 -0.273438 4.984375 -0.140625 C 4.628906 -0.015625 4.253906 0.046875 3.859375 0.046875 Z M 1.5 -3.375 C 1.5 -3.019531 1.5625 -2.679688 1.6875 -2.359375 C 1.8125 -2.046875 1.984375 -1.773438 2.203125 -1.546875 C 2.421875 -1.328125 2.679688 -1.148438 2.984375 -1.015625 C 3.285156 -0.878906 3.601562 -0.8125 3.9375 -0.8125 C 4.363281 -0.8125 4.753906 -0.890625 5.109375 -1.046875 C 5.472656 -1.210938 5.765625 -1.441406 5.984375 -1.734375 L 5.984375 -5.015625 C 5.765625 -5.296875 5.472656 -5.515625 5.109375 -5.671875 C 4.753906 -5.835938 4.363281 -5.921875 3.9375 -5.921875 C 3.59375 -5.921875 3.269531 -5.851562 2.96875 -5.71875 C 2.675781 -5.59375 2.421875 -5.414062 2.203125 -5.1875 C 1.984375 -4.957031 1.8125 -4.6875 1.6875 -4.375 C 1.5625 -4.0625 1.5 -3.726562 1.5 -3.375 Z M 1.5 -3.375 "/></g></g></g><g fill="#06283d" fill-opacity="1"><g transform="translate(308.394474, 286.649981)"><g><path d="M 1.3125 -1.28125 C 1.5 -1.28125 1.660156 -1.210938 1.796875 -1.078125 C 1.929688 -0.941406 2 -0.78125 2 -0.59375 C 2 -0.40625 1.929688 -0.242188 1.796875 -0.109375 C 1.660156 0.015625 1.5 0.078125 1.3125 0.078125 C 1.132812 0.078125 0.976562 0.015625 0.84375 -0.109375 C 0.707031 -0.242188 0.640625 -0.40625 0.640625 -0.59375 C 0.640625 -0.78125 0.707031 -0.941406 0.84375 -1.078125 C 0.976562 -1.210938 1.132812 -1.28125 1.3125 -1.28125 Z M 1.3125 -1.28125 "/></g></g></g></svg>