<svg xmlns="http://www.w3.org/2000/svg" xmlns:xlink="http://www.w3.org/1999/xlink" width="500" zoomAndPan="magnify" viewBox="0 0 375 374.999991" height="500" preserveAspectRatio="xMidYMid meet" version="1.0"><defs><g/><clipPath id="b4cd79a484"><path d="M 24.304688 37.5 L 350.554688 37.5 L 350.554688 363.75 L 24.304688 363.75 Z M 24.304688 37.5 " clip-rule="nonzero"/></clipPath><clipPath id="56c2110f11"><path d="M 176 82 L 275 82 L 275 227.410156 L 176 227.410156 Z M 176 82 " clip-rule="nonzero"/></clipPath></defs><g clip-path="url(#b4cd79a484)"><path fill="#e3ebf2" d="M 187.496094 37.5 C 97.507812 37.5 24.304688 110.703125 24.304688 200.6875 C 24.304688 290.675781 97.507812 363.878906 187.496094 363.878906 C 277.480469 363.878906 350.683594 290.675781 350.683594 200.6875 C 350.683594 110.703125 277.480469 37.5 187.496094 37.5 " fill-opacity="1" fill-rule="nonzero"/></g><path fill="#c6a4a6" d="M 128.332031 161.148438 C 126.753906 163.511719 126.214844 161.738281 125.808594 159.414062 L 119.980469 150.117188 L 122.183594 150.589844 L 122.183594 149.960938 L 119.980469 148.855469 L 117.144531 137.984375 L 115.25 138.457031 L 115.09375 135.777344 L 114.464844 130.105469 C 113.03125 113.945312 96.828125 128.738281 101.855469 131.679688 C 103.199219 134.777344 103.511719 137.875 108.789062 140.976562 C 111.167969 144.914062 111.324219 150.4375 117.457031 151.691406 L 118.875 152.480469 C 117.773438 156.6875 119.707031 159.984375 124.546875 162.40625 C 125.480469 164.507812 126.222656 166.609375 124.234375 168.710938 L 125.496094 169.339844 L 124.234375 170.601562 L 124.074219 173.910156 L 125.179688 175.484375 L 124.863281 176.746094 L 125.652344 178.164062 L 125.019531 180.054688 L 125.335938 181.632812 L 130.851562 184.785156 L 129.589844 182.578125 L 134.632812 185.257812 L 131.953125 184.785156 L 134.160156 187.148438 C 131.886719 191.351562 131.222656 195.355469 133.6875 198.964844 L 133.375 202.117188 L 132.429688 201.328125 C 129.390625 207.769531 133.609375 216.1875 136.839844 224.335938 L 141.253906 224.496094 L 144.246094 226.859375 L 149.132812 226.859375 L 155.277344 222.917969 L 160.164062 221.183594 L 163.785156 222.761719 L 166.464844 222.289062 L 166.464844 223.390625 L 170.71875 223.078125 L 167.726562 222.289062 L 168.515625 221.183594 L 171.035156 221.816406 L 173.714844 221.027344 L 174.503906 218.507812 L 173.871094 217.402344 L 174.34375 216.300781 L 178.285156 216.300781 L 176.550781 217.089844 L 176.550781 218.035156 L 175.449219 218.035156 L 176.394531 218.820312 L 174.660156 218.820312 L 173.714844 221.183594 L 175.289062 221.183594 L 175.605469 223.707031 L 177.652344 223.707031 L 177.8125 221.34375 L 181.4375 219.136719 L 181.910156 221.183594 L 186.792969 217.875 L 185.53125 216.929688 L 187.109375 215.671875 L 186.164062 214.410156 L 184.585938 214.410156 L 184.429688 215.828125 L 175.605469 207.789062 L 175.132812 206.058594 L 175.132812 202.90625 L 175.449219 200.542969 L 171.824219 197.074219 L 169.773438 192.820312 L 170.261719 190.300781 L 175.449219 190.140625 L 175.449219 189.355469 L 176.09375 190.28125 L 176.867188 190.300781 L 179.078125 190.628906 L 181.910156 185.730469 L 182.695312 184.46875 L 187.621094 178.316406 L 188.054688 175.484375 L 184.746094 171.703125 L 184.746094 167.605469 L 183.640625 167.605469 L 182.855469 166.503906 L 178.914062 167.292969 L 179.230469 168.710938 L 174.816406 172.175781 L 172.136719 174.699219 L 170.246094 176.589844 L 169.933594 179.269531 L 167.882812 181.472656 L 169.300781 183.523438 L 169.300781 185.414062 L 168.042969 187.777344 L 169.300781 188.25 L 169.460938 189.984375 L 167.566406 193.609375 L 165.835938 198.652344 L 164.257812 202.589844 L 163.15625 205.585938 C 163.0625 201.65625 160.851562 199.421875 157.796875 197.863281 C 150.519531 198.015625 151.769531 192.742188 150.550781 189.039062 L 146.765625 185.097656 L 143.773438 181.789062 L 143.617188 180.054688 L 146.765625 174.382812 L 150.390625 172.964844 L 153.542969 174.855469 L 156.539062 174.382812 L 160.320312 172.335938 L 161.738281 169.8125 L 163.785156 169.8125 L 165.992188 171.863281 L 168.515625 172.808594 L 170.40625 171.074219 L 171.664062 171.390625 L 172.136719 175.011719 L 173.714844 174.382812 L 173.714844 171.230469 L 175.132812 169.972656 L 178.914062 167.292969 L 182.855469 166.660156 C 187.925781 163.300781 186.851562 159.9375 186.164062 156.578125 L 183.640625 149.011719 L 183.640625 146.492188 L 185.847656 145.546875 L 186.320312 143.65625 L 185.847656 142.550781 L 186.636719 140.34375 L 187.898438 138.140625 L 181.75 119.542969 L 181.59375 123.484375 L 180.175781 123.800781 L 178.597656 131.046875 L 177.652344 137.035156 L 177.652344 141.761719 L 179.230469 144.757812 L 181.59375 145.859375 L 183.484375 146.648438 L 183.640625 149.011719 L 182.382812 148.382812 L 178.441406 146.648438 L 177.339844 147.59375 L 175.761719 147.277344 L 174.816406 144.914062 L 172.769531 144.914062 L 167.882812 145.230469 L 165.203125 145.230469 L 164.257812 141.449219 L 166.625 137.507812 C 169.578125 133.9375 169.386719 130.363281 168.828125 126.792969 C 165.417969 120.753906 168.523438 114.710938 169.460938 108.671875 L 170.71875 103.3125 L 170.5625 99.6875 L 169.300781 96.066406 L 170.878906 95.277344 L 171.035156 93.070312 L 189.472656 93.859375 L 187.582031 95.117188 L 190.734375 99.214844 L 191.992188 107.09375 L 191.679688 110.71875 L 190.734375 110.878906 L 191.679688 112.453125 L 192.308594 116.707031 L 193.570312 119.070312 L 194.515625 114.972656 L 194.515625 112.769531 L 198.925781 104.417969 L 195.777344 101.894531 L 196.40625 100.949219 L 197.195312 100.792969 L 195.460938 100.003906 L 195.777344 99.214844 L 197.035156 98.429688 L 196.089844 96.222656 L 194.832031 94.332031 L 192.308594 93.070312 L 189.460938 93.855469 L 171.105469 93.046875 L 167.398438 85.191406 C 158.617188 78.894531 158.535156 84.621094 157.144531 88.546875 L 157.144531 93.226562 L 156.921875 100.804688 L 158.261719 113.28125 L 158.929688 127.546875 C 158.394531 132.300781 155.386719 137.054688 163.832031 141.808594 L 165.167969 145.597656 L 158.039062 143.144531 L 147.785156 149.832031 L 146.894531 151.167969 L 146.226562 148.492188 L 146.226562 141.363281 L 148.007812 139.800781 C 150.894531 136.328125 152.949219 132.644531 151.128906 127.992188 L 149.125 124.425781 L 149.125 116.847656 C 151.15625 112.804688 148.640625 110.707031 146.671875 108.378906 L 147.5625 101.699219 C 147.671875 93.035156 139.710938 88.007812 137.3125 96.347656 C 136.203125 98.542969 134.957031 100.710938 137.3125 103.480469 C 137.242188 109.125 135.394531 114.773438 137.980469 120.417969 L 137.980469 129.554688 L 141.546875 140.03125 C 142.640625 143.078125 144.585938 145.445312 142.882812 150.726562 L 143.550781 158.304688 L 142.214844 161.203125 L 140.210938 160.085938 L 138.203125 158.304688 L 136.421875 157.859375 L 128.332031 161.160156 Z M 128.332031 161.148438 " fill-opacity="1" fill-rule="nonzero"/><g clip-path="url(#56c2110f11)"><path fill="#ff2e21" d="M 246.667969 161.527344 C 248.242188 163.890625 248.785156 162.121094 249.1875 159.796875 L 255.019531 150.5 L 252.8125 150.972656 L 252.8125 150.339844 L 255.019531 149.238281 L 257.855469 138.363281 L 259.746094 138.835938 L 259.902344 136.160156 L 260.535156 130.484375 C 261.964844 114.328125 278.171875 129.121094 273.140625 132.0625 C 271.800781 135.160156 271.484375 138.261719 266.207031 141.359375 C 263.828125 145.296875 263.671875 150.820312 257.539062 152.074219 L 256.121094 152.863281 C 257.222656 157.070312 255.289062 160.367188 250.449219 162.789062 C 249.519531 164.890625 248.777344 166.992188 250.765625 169.09375 L 249.503906 169.722656 L 250.765625 170.984375 L 250.921875 174.292969 L 249.820312 175.871094 L 250.132812 177.128906 L 249.347656 178.546875 L 249.976562 180.441406 L 249.660156 182.015625 L 244.144531 185.167969 L 245.40625 182.960938 L 240.363281 185.640625 L 243.042969 185.167969 L 240.835938 187.53125 C 243.113281 191.734375 243.777344 195.738281 241.308594 199.351562 L 241.625 202.5 L 242.570312 201.714844 C 245.609375 208.152344 241.386719 216.570312 238.15625 224.71875 L 233.746094 224.878906 L 230.75 227.242188 L 225.867188 227.242188 L 219.722656 223.300781 L 214.835938 221.570312 L 211.210938 223.144531 L 208.53125 222.671875 L 208.53125 223.773438 L 204.277344 223.460938 L 207.273438 222.671875 L 206.484375 221.570312 L 203.960938 222.199219 L 201.285156 221.410156 L 200.496094 218.890625 L 201.125 217.785156 L 200.652344 216.683594 L 196.714844 216.683594 L 198.445312 217.472656 L 198.445312 218.417969 L 199.550781 218.417969 L 198.605469 219.207031 L 200.339844 219.207031 L 201.285156 221.570312 L 199.707031 221.570312 L 199.394531 224.089844 L 197.34375 224.089844 L 197.1875 221.726562 L 193.5625 219.519531 L 193.089844 221.570312 L 188.203125 218.261719 L 189.464844 217.3125 L 187.890625 216.054688 L 188.835938 214.792969 L 190.410156 214.792969 L 190.566406 216.210938 L 199.394531 208.175781 L 199.867188 206.441406 L 199.867188 203.289062 L 199.550781 200.925781 L 203.175781 197.457031 L 205.222656 193.203125 L 205.222656 190.683594 L 199.550781 190.523438 L 199.550781 189.738281 L 197.976562 189.738281 L 198.132812 190.683594 L 196.554688 190.523438 L 193.089844 186.113281 L 192.300781 184.851562 L 187.574219 177.917969 L 186.945312 175.871094 L 190.253906 172.089844 L 190.253906 167.992188 L 191.355469 167.992188 L 192.144531 166.886719 L 196.082031 167.675781 L 195.769531 169.09375 L 200.179688 172.5625 L 202.859375 175.082031 L 204.75 176.972656 L 205.066406 179.652344 L 207.113281 181.859375 L 205.695312 183.90625 L 205.695312 185.796875 L 206.957031 188.160156 L 205.695312 188.632812 L 205.539062 190.367188 L 207.429688 193.992188 L 209.164062 199.035156 L 210.738281 202.972656 L 211.84375 205.96875 C 211.9375 202.042969 214.148438 199.804688 217.199219 198.246094 C 224.476562 198.398438 223.226562 193.125 224.449219 189.421875 L 228.230469 185.480469 L 231.226562 182.171875 L 231.382812 180.441406 L 228.230469 174.765625 L 224.605469 173.347656 L 221.453125 175.238281 L 218.460938 174.765625 L 214.679688 172.71875 L 213.261719 170.195312 L 211.210938 170.195312 L 209.003906 172.246094 L 206.484375 173.191406 L 204.59375 171.457031 L 203.332031 171.773438 L 202.859375 175.398438 L 201.285156 174.765625 L 201.285156 171.613281 L 199.867188 170.355469 L 196.082031 167.675781 L 192.144531 167.046875 C 187.074219 163.683594 188.144531 160.320312 188.835938 156.960938 L 191.355469 149.394531 L 191.355469 146.875 L 189.148438 145.929688 L 188.675781 144.039062 L 189.148438 142.933594 L 188.363281 140.730469 L 187.101562 138.523438 L 193.246094 119.929688 L 193.40625 123.867188 L 194.824219 124.183594 L 196.398438 131.429688 L 197.34375 137.417969 L 197.34375 142.148438 L 195.769531 145.140625 L 193.40625 146.246094 L 191.511719 147.03125 L 191.355469 149.394531 L 192.617188 148.765625 L 196.554688 147.03125 L 197.660156 147.976562 L 199.234375 147.664062 L 200.179688 145.296875 L 202.230469 145.296875 L 207.113281 145.613281 L 209.792969 145.613281 L 210.738281 141.832031 L 208.375 137.890625 C 205.421875 134.320312 205.609375 130.75 206.167969 127.175781 C 209.578125 121.136719 206.476562 115.09375 205.539062 109.054688 L 204.277344 103.695312 L 204.433594 100.074219 L 205.695312 96.449219 L 204.121094 95.660156 L 203.960938 93.453125 L 185.527344 94.242188 L 187.417969 95.503906 L 184.265625 99.601562 L 183.003906 107.480469 L 183.320312 111.101562 L 184.265625 111.261719 L 183.320312 112.835938 L 182.6875 117.089844 L 181.429688 119.457031 L 180.484375 115.359375 L 180.484375 113.152344 L 176.070312 104.800781 L 179.222656 102.277344 L 178.589844 101.332031 L 177.804688 101.175781 L 179.539062 100.386719 L 179.222656 99.601562 L 177.960938 98.8125 L 178.90625 96.605469 L 180.167969 94.714844 L 182.6875 93.453125 L 185.535156 94.238281 L 203.894531 93.429688 L 207.597656 85.574219 C 216.378906 79.265625 216.464844 84.992188 217.851562 88.917969 L 217.851562 93.597656 L 218.074219 101.175781 L 216.738281 113.65625 L 216.066406 127.917969 C 216.601562 132.671875 219.609375 137.425781 211.164062 142.179688 L 209.828125 145.96875 L 216.960938 143.519531 L 227.210938 150.203125 L 228.101562 151.539062 L 228.769531 148.867188 L 228.769531 141.734375 L 226.988281 140.175781 C 224.105469 136.699219 222.046875 133.015625 223.867188 128.363281 L 225.875 124.796875 L 225.875 117.21875 C 223.84375 113.175781 226.355469 111.082031 228.324219 108.75 L 227.433594 102.066406 C 227.324219 93.402344 235.289062 88.375 237.683594 96.71875 C 238.796875 98.910156 240.042969 101.078125 237.683594 103.847656 C 237.753906 109.496094 239.605469 115.140625 237.015625 120.785156 L 237.015625 129.921875 L 233.453125 140.398438 C 232.359375 143.445312 230.414062 145.8125 232.113281 151.09375 L 231.445312 158.671875 L 232.78125 161.570312 L 234.789062 160.453125 L 236.792969 158.671875 L 238.578125 158.226562 L 246.667969 161.53125 Z M 246.667969 161.527344 " fill-opacity="1" fill-rule="nonzero"/></g><path fill="#f8bdc1" d="M 187.660156 177.539062 L 178.679688 190.222656 L 177.183594 190.222656 L 175.527344 189.042969 L 175.210938 190.066406 L 169.855469 190.144531 L 169.695312 192.980469 L 171.902344 197.472656 L 175.289062 200.625 L 175.289062 202.4375 L 175.054688 203.066406 L 175.210938 206.375 L 175.289062 207.792969 L 176.867188 208.898438 L 184.351562 215.832031 L 184.507812 214.648438 L 185.925781 214.648438 L 187.03125 215.910156 L 185.847656 216.933594 L 188.371094 218.351562 L 189.789062 217.171875 L 188.132812 215.988281 L 188.921875 215.121094 L 190.105469 215.042969 L 190.734375 216.144531 L 199.402344 208.738281 L 200.269531 206.375 L 199.875 201.019531 L 202.867188 198.261719 L 205.308594 193.53125 L 205.390625 190.617188 L 199.796875 190.460938 L 199.558594 189.515625 L 198.140625 189.59375 L 197.902344 190.617188 L 196.566406 190.460938 Z M 187.660156 177.539062 " fill-opacity="1" fill-rule="nonzero"/><path fill="#ff2e21" d="M 161.265625 174.542969 L 158.824219 174.542969 L 158.507812 175.25 L 157.878906 175.960938 L 159.847656 176.90625 L 160.480469 178.007812 L 163.472656 177.929688 L 163.472656 176.984375 L 162.132812 175.960938 L 161.582031 175.40625 Z M 161.265625 174.542969 " fill-opacity="1" fill-rule="nonzero"/><path fill="#c6a4a6" d="M 213.625 173.992188 L 216.066406 173.992188 L 216.382812 174.703125 L 217.011719 175.414062 L 215.042969 176.359375 L 214.414062 177.460938 L 211.417969 177.382812 L 211.417969 176.4375 L 212.757812 175.414062 L 213.308594 174.859375 Z M 213.625 173.992188 " fill-opacity="1" fill-rule="nonzero"/><path fill="#f8bdc1" d="M 187.566406 137.300781 C 185.167969 131.453125 183.335938 125.308594 181.441406 119.460938 L 182.582031 117.070312 L 183.277344 112.773438 L 184.226562 111.324219 L 183.78125 111.046875 C 181.066406 112.855469 182.195312 98.109375 187.179688 95.558594 L 187.734375 95.167969 L 190.855469 99.347656 C 191.613281 103.316406 193.957031 107.898438 191.707031 110.90625 L 190.855469 111.046875 L 191.691406 112.550781 L 192.554688 117.070312 L 193.53125 118.957031 C 191.828125 124.976562 189.921875 131.285156 187.570312 137.300781 Z M 187.566406 137.300781 " fill-opacity="1" fill-rule="nonzero"/><path fill="#f8bdc1" d="M 230.691406 159.558594 L 228.183594 160.898438 L 226.234375 162.179688 L 224.953125 163.125 L 224.226562 164.128906 L 224.003906 168.195312 L 222.222656 168.585938 L 220.273438 168.640625 L 219.324219 168.195312 L 217.988281 167.027344 L 218.097656 168.308594 L 218.324219 169.535156 L 220.382812 170.203125 L 220.550781 171.039062 C 220.550781 171.039062 219.269531 171.816406 219.046875 171.816406 C 218.824219 171.816406 216.707031 171.816406 216.429688 171.761719 C 216.148438 171.707031 213.753906 171.316406 213.753906 171.316406 C 213.753906 171.316406 213.308594 168.808594 213.53125 168.640625 C 213.753906 168.476562 214.8125 166.691406 214.8125 166.691406 L 216.09375 166.023438 L 215.480469 163.347656 L 216.539062 161.789062 L 217.429688 161.066406 L 218.210938 161.121094 L 218.265625 160.171875 C 218.265625 160.171875 218.488281 158.726562 218.769531 158.558594 C 219.046875 158.390625 221.109375 156.941406 221.332031 156.773438 C 221.554688 156.609375 223.503906 155.882812 223.894531 155.660156 C 224.285156 155.4375 225.507812 154.824219 226.121094 154.878906 C 226.734375 154.9375 229.296875 155.9375 229.296875 155.9375 L 230.746094 158.054688 Z M 230.691406 159.558594 " fill-opacity="1" fill-rule="nonzero"/><path fill="#c6a4a6" d="M 232.027344 159.558594 L 230.914062 159.558594 L 225.453125 162.625 L 224.285156 164.074219 L 223.949219 168.195312 L 222 168.585938 L 220.105469 168.585938 L 218.714844 167.695312 L 218.101562 167.191406 L 218.269531 169.535156 L 220.550781 170.257812 L 220.496094 170.980469 L 219.269531 171.761719 L 216.207031 171.816406 L 213.753906 171.09375 L 215.257812 173.433594 C 215.257812 173.433594 216.707031 174.492188 217.042969 174.601562 C 217.375 174.714844 219.046875 174.992188 219.046875 174.992188 L 219.828125 175.4375 L 220.71875 175.773438 L 223.003906 174.15625 L 224.507812 173.824219 L 226.179688 172.097656 L 227.960938 169.980469 C 227.960938 169.980469 228.128906 168.308594 228.464844 168.027344 C 228.796875 167.75 229.6875 167.191406 229.6875 167.191406 L 230.246094 165.242188 L 231.417969 163.183594 L 231.917969 162.734375 Z M 232.027344 159.558594 " fill-opacity="1" fill-rule="nonzero"/><path fill="#f8bdc1" d="M 144.027344 159.324219 L 146.53125 160.660156 L 148.484375 161.941406 L 149.765625 162.886719 L 150.488281 163.890625 L 150.710938 167.957031 L 152.492188 168.347656 L 154.445312 168.402344 L 155.390625 167.957031 L 156.726562 166.789062 L 156.617188 168.070312 L 156.394531 169.296875 L 154.332031 169.964844 L 154.164062 170.800781 C 154.164062 170.800781 155.445312 171.578125 155.667969 171.578125 C 155.894531 171.578125 158.007812 171.578125 158.289062 171.523438 C 158.566406 171.46875 160.960938 171.078125 160.960938 171.078125 C 160.960938 171.078125 161.410156 168.570312 161.183594 168.402344 C 160.960938 168.238281 159.902344 166.453125 159.902344 166.453125 L 158.621094 165.785156 L 159.234375 163.109375 L 158.175781 161.550781 L 157.285156 160.828125 L 156.503906 160.882812 L 156.449219 159.933594 C 156.449219 159.933594 156.226562 158.488281 155.949219 158.320312 C 155.667969 158.152344 153.609375 156.703125 153.386719 156.535156 C 153.164062 156.371094 151.210938 155.644531 150.824219 155.421875 C 150.433594 155.199219 149.207031 154.585938 148.59375 154.644531 C 147.980469 154.699219 145.417969 155.703125 145.417969 155.703125 L 143.96875 157.816406 Z M 144.027344 159.324219 " fill-opacity="1" fill-rule="nonzero"/><path fill="#ff2e21" d="M 142.6875 159.324219 L 143.800781 159.324219 L 149.261719 162.386719 L 150.433594 163.835938 L 150.765625 167.957031 L 152.71875 168.347656 L 154.609375 168.347656 L 156.003906 167.457031 L 156.617188 166.957031 L 156.449219 169.296875 L 154.164062 170.019531 L 154.222656 170.742188 L 155.445312 171.523438 L 158.511719 171.578125 L 160.960938 170.855469 L 159.457031 173.195312 C 159.457031 173.195312 158.007812 174.253906 157.675781 174.367188 C 157.339844 174.476562 155.667969 174.753906 155.667969 174.753906 L 154.890625 175.199219 L 154 175.535156 L 151.714844 173.917969 L 150.210938 173.585938 L 148.539062 171.859375 L 146.753906 169.742188 C 146.753906 169.742188 146.589844 168.070312 146.253906 167.792969 C 145.917969 167.511719 145.027344 166.957031 145.027344 166.957031 L 144.472656 165.003906 L 143.300781 162.945312 L 142.800781 162.5 Z M 142.6875 159.324219 " fill-opacity="1" fill-rule="nonzero"/><g fill="#272727" fill-opacity="1"><g transform="translate(47.262065, 268.225149)"><g><path d="M 2.5625 0 L 2.5625 -29.4375 L 8.78125 -29.4375 L 8.78125 -17.28125 L 21.40625 -17.28125 L 21.40625 -29.4375 L 27.625 -29.4375 L 27.625 0 L 21.40625 0 L 21.40625 -12.15625 L 8.78125 -12.15625 L 8.78125 0 Z M 2.5625 0 "/></g></g></g><g fill="#272727" fill-opacity="1"><g transform="translate(78.866718, 268.225149)"><g><path d="M 20.78125 -29.4375 L 26.953125 -29.4375 L 26.953125 -9.96875 C 26.953125 -7.75 26.429688 -5.863281 25.390625 -4.3125 C 24.347656 -2.769531 22.910156 -1.59375 21.078125 -0.78125 C 19.242188 0.0195312 17.140625 0.421875 14.765625 0.421875 C 12.378906 0.421875 10.265625 0.0195312 8.421875 -0.78125 C 6.585938 -1.59375 5.148438 -2.769531 4.109375 -4.3125 C 3.078125 -5.863281 2.5625 -7.75 2.5625 -9.96875 L 2.5625 -29.4375 L 8.78125 -29.4375 L 8.78125 -10.1875 C 8.78125 -8.613281 9.347656 -7.375 10.484375 -6.46875 C 11.617188 -5.570312 13.046875 -5.125 14.765625 -5.125 C 16.503906 -5.125 17.941406 -5.570312 19.078125 -6.46875 C 20.210938 -7.375 20.78125 -8.613281 20.78125 -10.1875 Z M 20.78125 -29.4375 "/></g></g></g><g fill="#272727" fill-opacity="1"><g transform="translate(109.796043, 268.225149)"><g><path d="M 2.5625 -29.4375 L 10.234375 -29.4375 L 18.34375 -9.65625 L 18.6875 -9.65625 L 26.78125 -29.4375 L 34.46875 -29.4375 L 34.46875 0 L 28.421875 0 L 28.421875 -19.15625 L 28.1875 -19.15625 L 20.5625 -0.140625 L 16.453125 -0.140625 L 8.84375 -19.234375 L 8.59375 -19.234375 L 8.59375 0 L 2.5625 0 Z M 2.5625 -29.4375 "/></g></g></g><g fill="#272727" fill-opacity="1"><g transform="translate(148.599333, 268.225149)"><g><path d="M 7.625 0 L 0.96875 0 L 11.125 -29.4375 L 19.140625 -29.4375 L 29.28125 0 L 22.625 0 L 20.4375 -6.71875 L 9.8125 -6.71875 Z M 11.390625 -11.5625 L 18.875 -11.5625 L 15.25 -22.703125 L 15.015625 -22.703125 Z M 11.390625 -11.5625 "/></g></g></g><g fill="#272727" fill-opacity="1"><g transform="translate(180.275835, 268.225149)"><g><path d="M 27.171875 -29.4375 L 27.171875 0 L 21.796875 0 L 9 -18.53125 L 8.78125 -18.53125 L 8.78125 0 L 2.5625 0 L 2.5625 -29.4375 L 8.015625 -29.4375 L 20.71875 -10.921875 L 20.984375 -10.921875 L 20.984375 -29.4375 Z M 27.171875 -29.4375 "/></g></g></g><g fill="#272727" fill-opacity="1"><g transform="translate(211.435069, 268.225149)"><g><path d="M 28.53125 -19.125 L 22.234375 -19.125 C 21.992188 -20.75 21.300781 -22.019531 20.15625 -22.9375 C 19.019531 -23.863281 17.597656 -24.328125 15.890625 -24.328125 C 13.609375 -24.328125 11.78125 -23.488281 10.40625 -21.8125 C 9.03125 -20.144531 8.34375 -17.78125 8.34375 -14.71875 C 8.34375 -11.570312 9.035156 -9.179688 10.421875 -7.546875 C 11.804688 -5.921875 13.613281 -5.109375 15.84375 -5.109375 C 17.507812 -5.109375 18.914062 -5.539062 20.0625 -6.40625 C 21.207031 -7.269531 21.929688 -8.488281 22.234375 -10.0625 L 28.53125 -10.03125 C 28.3125 -8.226562 27.664062 -6.53125 26.59375 -4.9375 C 25.53125 -3.351562 24.085938 -2.066406 22.265625 -1.078125 C 20.441406 -0.0859375 18.269531 0.40625 15.75 0.40625 C 13.125 0.40625 10.78125 -0.1875 8.71875 -1.375 C 6.65625 -2.5625 5.023438 -4.28125 3.828125 -6.53125 C 2.640625 -8.789062 2.046875 -11.519531 2.046875 -14.71875 C 2.046875 -17.925781 2.644531 -20.65625 3.84375 -22.90625 C 5.050781 -25.15625 6.691406 -26.867188 8.765625 -28.046875 C 10.835938 -29.234375 13.164062 -29.828125 15.75 -29.828125 C 18.019531 -29.828125 20.066406 -29.40625 21.890625 -28.5625 C 23.710938 -27.726562 25.207031 -26.515625 26.375 -24.921875 C 27.539062 -23.328125 28.257812 -21.394531 28.53125 -19.125 Z M 28.53125 -19.125 "/></g></g></g><g fill="#272727" fill-opacity="1"><g transform="translate(243.283988, 268.225149)"><g><path d="M 7.625 0 L 0.96875 0 L 11.125 -29.4375 L 19.140625 -29.4375 L 29.28125 0 L 22.625 0 L 20.4375 -6.71875 L 9.8125 -6.71875 Z M 11.390625 -11.5625 L 18.875 -11.5625 L 15.25 -22.703125 L 15.015625 -22.703125 Z M 11.390625 -11.5625 "/></g></g></g><g fill="#272727" fill-opacity="1"><g transform="translate(274.960498, 268.225149)"><g><path d="M 2.5625 0 L 2.5625 -29.4375 L 14.171875 -29.4375 C 17.515625 -29.4375 20.109375 -28.5625 21.953125 -26.8125 C 23.796875 -25.070312 24.71875 -22.738281 24.71875 -19.8125 C 24.71875 -17.800781 24.269531 -16.082031 23.375 -14.65625 C 22.476562 -13.226562 21.191406 -12.15625 19.515625 -11.4375 L 25.765625 0 L 18.890625 0 L 13.328125 -10.4375 L 8.78125 -10.4375 L 8.78125 0 Z M 8.78125 -15.4375 L 13 -15.4375 C 16.539062 -15.4375 18.3125 -16.894531 18.3125 -19.8125 C 18.3125 -22.832031 16.535156 -24.34375 12.984375 -24.34375 L 8.78125 -24.34375 Z M 8.78125 -15.4375 "/></g></g></g><g fill="#272727" fill-opacity="1"><g transform="translate(302.929918, 268.225149)"><g><path d="M 2.5625 0 L 2.5625 -29.4375 L 22.390625 -29.4375 L 22.390625 -24.296875 L 8.78125 -24.296875 L 8.78125 -17.28125 L 21.375 -17.28125 L 21.375 -12.15625 L 8.78125 -12.15625 L 8.78125 -5.125 L 22.453125 -5.125 L 22.453125 0 Z M 2.5625 0 "/></g></g></g><g fill="#737373" fill-opacity="1"><g transform="translate(69.606196, 291.244448)"><g><path d="M 3.09375 -11.59375 L 5.90625 -2.78125 L 6.015625 -2.78125 L 8.8125 -11.59375 L 11.53125 -11.59375 L 7.53125 0 L 4.375 0 L 0.375 -11.59375 Z M 3.09375 -11.59375 "/></g></g></g><g fill="#737373" fill-opacity="1"><g transform="translate(83.233254, 291.244448)"><g><path d="M 11.65625 -5.796875 C 11.65625 -4.535156 11.414062 -3.457031 10.9375 -2.5625 C 10.46875 -1.675781 9.820312 -1 9 -0.53125 C 8.175781 -0.0703125 7.253906 0.15625 6.234375 0.15625 C 5.203125 0.15625 4.273438 -0.078125 3.453125 -0.546875 C 2.640625 -1.015625 1.992188 -1.691406 1.515625 -2.578125 C 1.035156 -3.460938 0.796875 -4.535156 0.796875 -5.796875 C 0.796875 -7.054688 1.035156 -8.128906 1.515625 -9.015625 C 1.992188 -9.898438 2.640625 -10.578125 3.453125 -11.046875 C 4.273438 -11.515625 5.203125 -11.75 6.234375 -11.75 C 7.253906 -11.75 8.175781 -11.515625 9 -11.046875 C 9.820312 -10.578125 10.46875 -9.898438 10.9375 -9.015625 C 11.414062 -8.128906 11.65625 -7.054688 11.65625 -5.796875 Z M 9.171875 -5.796875 C 9.171875 -7.023438 8.898438 -7.960938 8.359375 -8.609375 C 7.828125 -9.253906 7.117188 -9.578125 6.234375 -9.578125 C 5.335938 -9.578125 4.617188 -9.253906 4.078125 -8.609375 C 3.546875 -7.960938 3.28125 -7.023438 3.28125 -5.796875 C 3.28125 -4.566406 3.546875 -3.628906 4.078125 -2.984375 C 4.617188 -2.335938 5.335938 -2.015625 6.234375 -2.015625 C 7.117188 -2.015625 7.828125 -2.335938 8.359375 -2.984375 C 8.898438 -3.628906 9.171875 -4.566406 9.171875 -5.796875 Z M 9.171875 -5.796875 "/></g></g></g><g fill="#737373" fill-opacity="1"><g transform="translate(97.403043, 291.244448)"><g><path d="M 1 0 L 1 -11.59375 L 3.453125 -11.59375 L 3.453125 -2.015625 L 8.421875 -2.015625 L 8.421875 0 Z M 1 0 "/></g></g></g><g fill="#737373" fill-opacity="1"><g transform="translate(108.158146, 291.244448)"><g><path d="M 8.1875 -11.59375 L 10.625 -11.59375 L 10.625 -3.921875 C 10.625 -3.046875 10.414062 -2.300781 10 -1.6875 C 9.59375 -1.082031 9.023438 -0.617188 8.296875 -0.296875 C 7.578125 0.015625 6.75 0.171875 5.8125 0.171875 C 4.875 0.171875 4.039062 0.015625 3.3125 -0.296875 C 2.59375 -0.617188 2.023438 -1.082031 1.609375 -1.6875 C 1.203125 -2.300781 1 -3.046875 1 -3.921875 L 1 -11.59375 L 3.453125 -11.59375 L 3.453125 -4.015625 C 3.453125 -3.390625 3.675781 -2.898438 4.125 -2.546875 C 4.570312 -2.191406 5.132812 -2.015625 5.8125 -2.015625 C 6.5 -2.015625 7.066406 -2.191406 7.515625 -2.546875 C 7.960938 -2.898438 8.1875 -3.390625 8.1875 -4.015625 Z M 8.1875 -11.59375 "/></g></g></g><g fill="#737373" fill-opacity="1"><g transform="translate(121.491228, 291.244448)"><g><path d="M 10.703125 -11.59375 L 10.703125 0 L 8.578125 0 L 3.546875 -7.296875 L 3.453125 -7.296875 L 3.453125 0 L 1 0 L 1 -11.59375 L 3.15625 -11.59375 L 8.15625 -4.296875 L 8.265625 -4.296875 L 8.265625 -11.59375 Z M 10.703125 -11.59375 "/></g></g></g><g fill="#737373" fill-opacity="1"><g transform="translate(134.914765, 291.244448)"><g><path d="M 0.5625 -9.578125 L 0.5625 -11.59375 L 10.078125 -11.59375 L 10.078125 -9.578125 L 6.53125 -9.578125 L 6.53125 0 L 4.109375 0 L 4.109375 -9.578125 Z M 0.5625 -9.578125 "/></g></g></g><g fill="#737373" fill-opacity="1"><g transform="translate(147.275454, 291.244448)"><g><path d="M 1 0 L 1 -11.59375 L 8.8125 -11.59375 L 8.8125 -9.578125 L 3.453125 -9.578125 L 3.453125 -6.8125 L 8.421875 -6.8125 L 8.421875 -4.78125 L 3.453125 -4.78125 L 3.453125 -2.015625 L 8.84375 -2.015625 L 8.84375 0 Z M 1 0 "/></g></g></g><g fill="#737373" fill-opacity="1"><g transform="translate(158.748556, 291.244448)"><g><path d="M 1 0 L 1 -11.59375 L 8.8125 -11.59375 L 8.8125 -9.578125 L 3.453125 -9.578125 L 3.453125 -6.8125 L 8.421875 -6.8125 L 8.421875 -4.78125 L 3.453125 -4.78125 L 3.453125 -2.015625 L 8.84375 -2.015625 L 8.84375 0 Z M 1 0 "/></g></g></g><g fill="#737373" fill-opacity="1"><g transform="translate(170.221659, 291.244448)"><g><path d="M 1 0 L 1 -11.59375 L 5.578125 -11.59375 C 6.898438 -11.59375 7.921875 -11.25 8.640625 -10.5625 C 9.367188 -9.875 9.734375 -8.953125 9.734375 -7.796875 C 9.734375 -7.003906 9.554688 -6.328125 9.203125 -5.765625 C 8.847656 -5.203125 8.34375 -4.78125 7.6875 -4.5 L 10.140625 0 L 7.4375 0 L 5.25 -4.109375 L 3.453125 -4.109375 L 3.453125 0 Z M 3.453125 -6.078125 L 5.125 -6.078125 C 6.507812 -6.078125 7.203125 -6.648438 7.203125 -7.796875 C 7.203125 -8.992188 6.503906 -9.59375 5.109375 -9.59375 L 3.453125 -9.59375 Z M 3.453125 -6.078125 "/></g></g></g><g fill="#737373" fill-opacity="1"><g transform="translate(182.390137, 291.244448)"><g/></g></g><g fill="#737373" fill-opacity="1"><g transform="translate(187.802743, 291.244448)"><g><path d="M 11.234375 -7.53125 L 8.75 -7.53125 C 8.65625 -8.164062 8.382812 -8.664062 7.9375 -9.03125 C 7.488281 -9.394531 6.929688 -9.578125 6.265625 -9.578125 C 5.359375 -9.578125 4.632812 -9.25 4.09375 -8.59375 C 3.550781 -7.9375 3.28125 -7.003906 3.28125 -5.796875 C 3.28125 -4.554688 3.550781 -3.613281 4.09375 -2.96875 C 4.644531 -2.332031 5.363281 -2.015625 6.25 -2.015625 C 6.894531 -2.015625 7.441406 -2.179688 7.890625 -2.515625 C 8.347656 -2.859375 8.632812 -3.34375 8.75 -3.96875 L 11.234375 -3.953125 C 11.148438 -3.242188 10.894531 -2.570312 10.46875 -1.9375 C 10.050781 -1.3125 9.484375 -0.804688 8.765625 -0.421875 C 8.046875 -0.0351562 7.191406 0.15625 6.203125 0.15625 C 5.171875 0.15625 4.25 -0.078125 3.4375 -0.546875 C 2.625 -1.015625 1.976562 -1.691406 1.5 -2.578125 C 1.03125 -3.460938 0.796875 -4.535156 0.796875 -5.796875 C 0.796875 -7.054688 1.035156 -8.128906 1.515625 -9.015625 C 1.992188 -9.898438 2.640625 -10.578125 3.453125 -11.046875 C 4.265625 -11.515625 5.179688 -11.75 6.203125 -11.75 C 7.097656 -11.75 7.90625 -11.582031 8.625 -11.25 C 9.34375 -10.925781 9.929688 -10.445312 10.390625 -9.8125 C 10.847656 -9.1875 11.128906 -8.425781 11.234375 -7.53125 Z M 11.234375 -7.53125 "/></g></g></g><g fill="#737373" fill-opacity="1"><g transform="translate(201.497645, 291.244448)"><g><path d="M 11.65625 -5.796875 C 11.65625 -4.535156 11.414062 -3.457031 10.9375 -2.5625 C 10.46875 -1.675781 9.820312 -1 9 -0.53125 C 8.175781 -0.0703125 7.253906 0.15625 6.234375 0.15625 C 5.203125 0.15625 4.273438 -0.078125 3.453125 -0.546875 C 2.640625 -1.015625 1.992188 -1.691406 1.515625 -2.578125 C 1.035156 -3.460938 0.796875 -4.535156 0.796875 -5.796875 C 0.796875 -7.054688 1.035156 -8.128906 1.515625 -9.015625 C 1.992188 -9.898438 2.640625 -10.578125 3.453125 -11.046875 C 4.273438 -11.515625 5.203125 -11.75 6.234375 -11.75 C 7.253906 -11.75 8.175781 -11.515625 9 -11.046875 C 9.820312 -10.578125 10.46875 -9.898438 10.9375 -9.015625 C 11.414062 -8.128906 11.65625 -7.054688 11.65625 -5.796875 Z M 9.171875 -5.796875 C 9.171875 -7.023438 8.898438 -7.960938 8.359375 -8.609375 C 7.828125 -9.253906 7.117188 -9.578125 6.234375 -9.578125 C 5.335938 -9.578125 4.617188 -9.253906 4.078125 -8.609375 C 3.546875 -7.960938 3.28125 -7.023438 3.28125 -5.796875 C 3.28125 -4.566406 3.546875 -3.628906 4.078125 -2.984375 C 4.617188 -2.335938 5.335938 -2.015625 6.234375 -2.015625 C 7.117188 -2.015625 7.828125 -2.335938 8.359375 -2.984375 C 8.898438 -3.628906 9.171875 -4.566406 9.171875 -5.796875 Z M 9.171875 -5.796875 "/></g></g></g><g fill="#737373" fill-opacity="1"><g transform="translate(215.667442, 291.244448)"><g><path d="M 1 -11.59375 L 4.03125 -11.59375 L 7.21875 -3.796875 L 7.359375 -3.796875 L 10.546875 -11.59375 L 13.578125 -11.59375 L 13.578125 0 L 11.1875 0 L 11.1875 -7.546875 L 11.09375 -7.546875 L 8.09375 -0.0625 L 6.484375 -0.0625 L 3.484375 -7.578125 L 3.390625 -7.578125 L 3.390625 0 L 1 0 Z M 1 -11.59375 "/></g></g></g><g fill="#737373" fill-opacity="1"><g transform="translate(232.098609, 291.244448)"><g><path d="M 1 -11.59375 L 4.03125 -11.59375 L 7.21875 -3.796875 L 7.359375 -3.796875 L 10.546875 -11.59375 L 13.578125 -11.59375 L 13.578125 0 L 11.1875 0 L 11.1875 -7.546875 L 11.09375 -7.546875 L 8.09375 -0.0625 L 6.484375 -0.0625 L 3.484375 -7.578125 L 3.390625 -7.578125 L 3.390625 0 L 1 0 Z M 1 -11.59375 "/></g></g></g><g fill="#737373" fill-opacity="1"><g transform="translate(248.529776, 291.244448)"><g><path d="M 8.1875 -11.59375 L 10.625 -11.59375 L 10.625 -3.921875 C 10.625 -3.046875 10.414062 -2.300781 10 -1.6875 C 9.59375 -1.082031 9.023438 -0.617188 8.296875 -0.296875 C 7.578125 0.015625 6.75 0.171875 5.8125 0.171875 C 4.875 0.171875 4.039062 0.015625 3.3125 -0.296875 C 2.59375 -0.617188 2.023438 -1.082031 1.609375 -1.6875 C 1.203125 -2.300781 1 -3.046875 1 -3.921875 L 1 -11.59375 L 3.453125 -11.59375 L 3.453125 -4.015625 C 3.453125 -3.390625 3.675781 -2.898438 4.125 -2.546875 C 4.570312 -2.191406 5.132812 -2.015625 5.8125 -2.015625 C 6.5 -2.015625 7.066406 -2.191406 7.515625 -2.546875 C 7.960938 -2.898438 8.1875 -3.390625 8.1875 -4.015625 Z M 8.1875 -11.59375 "/></g></g></g><g fill="#737373" fill-opacity="1"><g transform="translate(261.862858, 291.244448)"><g><path d="M 10.703125 -11.59375 L 10.703125 0 L 8.578125 0 L 3.546875 -7.296875 L 3.453125 -7.296875 L 3.453125 0 L 1 0 L 1 -11.59375 L 3.15625 -11.59375 L 8.15625 -4.296875 L 8.265625 -4.296875 L 8.265625 -11.59375 Z M 10.703125 -11.59375 "/></g></g></g><g fill="#737373" fill-opacity="1"><g transform="translate(275.286395, 291.244448)"><g><path d="M 3.453125 -11.59375 L 3.453125 0 L 1 0 L 1 -11.59375 Z M 3.453125 -11.59375 "/></g></g></g><g fill="#737373" fill-opacity="1"><g transform="translate(281.473518, 291.244448)"><g><path d="M 0.5625 -9.578125 L 0.5625 -11.59375 L 10.078125 -11.59375 L 10.078125 -9.578125 L 6.53125 -9.578125 L 6.53125 0 L 4.109375 0 L 4.109375 -9.578125 Z M 0.5625 -9.578125 "/></g></g></g><g fill="#737373" fill-opacity="1"><g transform="translate(293.834203, 291.244448)"><g><path d="M 0.328125 -11.59375 L 3.078125 -11.59375 L 5.71875 -6.59375 L 5.828125 -6.59375 L 8.46875 -11.59375 L 11.21875 -11.59375 L 6.984375 -4.09375 L 6.984375 0 L 4.5625 0 L 4.5625 -4.09375 Z M 0.328125 -11.59375 "/></g></g></g></svg>