<svg xmlns="http://www.w3.org/2000/svg" xmlns:xlink="http://www.w3.org/1999/xlink" width="500" zoomAndPan="magnify" viewBox="0 0 375 374.999991" height="500" preserveAspectRatio="xMidYMid meet" version="1.0"><defs><g/><clipPath id="637d7cc435"><path d="M 24.304688 37.5 L 350.554688 37.5 L 350.554688 363.75 L 24.304688 363.75 Z M 24.304688 37.5 " clip-rule="nonzero"/></clipPath><clipPath id="5e511b3d40"><path d="M 104.882812 131 L 218 131 L 218 228 L 104.882812 228 Z M 104.882812 131 " clip-rule="nonzero"/></clipPath></defs><g clip-path="url(#637d7cc435)"><path fill="#e3ebf2" d="M 187.496094 37.5 C 97.507812 37.5 24.304688 110.703125 24.304688 200.6875 C 24.304688 290.675781 97.507812 363.878906 187.496094 363.878906 C 277.480469 363.878906 350.683594 290.675781 350.683594 200.6875 C 350.683594 110.703125 277.480469 37.5 187.496094 37.5 " fill-opacity="1" fill-rule="nonzero"/></g><g clip-path="url(#5e511b3d40)"><path fill="#23c9cb" d="M 217.570312 227.875 C 155.382812 221.835938 105.613281 192.152344 104.882812 135.058594 C 104.882812 133.816406 104.882812 132.578125 104.925781 131.335938 C 110.839844 157.246094 137.476562 179.390625 162.792969 192.238281 C 169.085938 195.492188 176.238281 195.492188 174.097656 187.355469 C 172.34375 180.632812 161.761719 178.105469 159.023438 170.222656 C 158.292969 168.125 157.695312 161.742188 160.992188 160.714844 C 162.492188 160.246094 165.359375 162.8125 168.402344 164.011719 C 216.542969 183.117188 187.632812 209.800781 217.570312 227.875 Z M 217.570312 227.875 " fill-opacity="1" fill-rule="nonzero"/></g><path fill="#ff4fbb" d="M 267.8125 133.390625 C 266.441406 83.234375 214.101562 80.453125 194.957031 100.324219 C 174.871094 75.011719 139.105469 72.957031 119.789062 91.714844 C 118.546875 92.914062 117.390625 94.199219 116.320312 95.527344 C 107.710938 106.105469 107.667969 121.738281 113.664062 134.03125 C 118.035156 143.027344 124.03125 152.621094 132.210938 160.585938 C 120.773438 136.773438 119.191406 108.804688 143.347656 99.125 C 171.65625 88.847656 192.171875 121.355469 192.171875 121.355469 C 217.230469 94.671875 255.433594 103.878906 252.222656 147.136719 C 249.308594 186.328125 218.386719 218.023438 217.613281 218.792969 C 218.511719 218.152344 269.308594 187.441406 267.8125 133.390625 Z M 267.8125 133.390625 " fill-opacity="1" fill-rule="nonzero"/><g fill="#001249" fill-opacity="1"><g transform="translate(51.120432, 271.90749)"><g><path d="M 23.71875 -26.859375 C 24.445312 -26.859375 25.023438 -26.632812 25.453125 -26.1875 C 25.878906 -25.75 26.09375 -25.164062 26.09375 -24.4375 L 26.09375 -2.234375 C 26.09375 -1.503906 25.875 -0.910156 25.4375 -0.453125 C 25 0.00390625 24.425781 0.234375 23.71875 0.234375 C 22.988281 0.234375 22.40625 0.00390625 21.96875 -0.453125 C 21.539062 -0.910156 21.328125 -1.503906 21.328125 -2.234375 L 21.328125 -11.578125 L 7.671875 -11.578125 L 7.671875 -2.234375 C 7.671875 -1.503906 7.453125 -0.910156 7.015625 -0.453125 C 6.578125 0.00390625 5.992188 0.234375 5.265625 0.234375 C 4.554688 0.234375 3.976562 0.00390625 3.53125 -0.453125 C 3.09375 -0.910156 2.875 -1.503906 2.875 -2.234375 L 2.875 -24.4375 C 2.875 -25.164062 3.085938 -25.75 3.515625 -26.1875 C 3.941406 -26.632812 4.523438 -26.859375 5.265625 -26.859375 C 5.992188 -26.859375 6.578125 -26.632812 7.015625 -26.1875 C 7.453125 -25.75 7.671875 -25.164062 7.671875 -24.4375 L 7.671875 -15.515625 L 21.328125 -15.515625 L 21.328125 -24.4375 C 21.328125 -25.164062 21.539062 -25.75 21.96875 -26.1875 C 22.40625 -26.632812 22.988281 -26.859375 23.71875 -26.859375 Z M 23.71875 -26.859375 "/></g></g></g><g fill="#001249" fill-opacity="1"><g transform="translate(83.493527, 271.90749)"><g><path d="M 5.21875 0 C 4.488281 0 3.914062 -0.195312 3.5 -0.59375 C 3.082031 -1 2.875 -1.570312 2.875 -2.3125 L 2.875 -24.359375 C 2.875 -25.085938 3.082031 -25.65625 3.5 -26.0625 C 3.914062 -26.46875 4.488281 -26.671875 5.21875 -26.671875 L 18.875 -26.671875 C 19.601562 -26.671875 20.171875 -26.503906 20.578125 -26.171875 C 20.984375 -25.847656 21.1875 -25.382812 21.1875 -24.78125 C 21.1875 -24.144531 20.984375 -23.65625 20.578125 -23.3125 C 20.171875 -22.976562 19.601562 -22.8125 18.875 -22.8125 L 7.640625 -22.8125 L 7.640625 -15.46875 L 18.125 -15.46875 C 18.851562 -15.46875 19.414062 -15.300781 19.8125 -14.96875 C 20.21875 -14.644531 20.421875 -14.171875 20.421875 -13.546875 C 20.421875 -12.941406 20.21875 -12.472656 19.8125 -12.140625 C 19.414062 -11.816406 18.851562 -11.65625 18.125 -11.65625 L 7.640625 -11.65625 L 7.640625 -3.859375 L 18.875 -3.859375 C 19.601562 -3.859375 20.171875 -3.6875 20.578125 -3.34375 C 20.984375 -3.007812 21.1875 -2.523438 21.1875 -1.890625 C 21.1875 -1.285156 20.984375 -0.816406 20.578125 -0.484375 C 20.171875 -0.160156 19.601562 0 18.875 0 Z M 5.21875 0 "/></g></g></g><g fill="#001249" fill-opacity="1"><g transform="translate(109.172964, 271.90749)"><g><path d="M 27.046875 -2.90625 C 27.203125 -2.582031 27.28125 -2.253906 27.28125 -1.921875 C 27.28125 -1.347656 27.046875 -0.859375 26.578125 -0.453125 C 26.109375 -0.046875 25.570312 0.15625 24.96875 0.15625 C 24.5625 0.15625 24.179688 0.0507812 23.828125 -0.15625 C 23.472656 -0.375 23.195312 -0.710938 23 -1.171875 L 20.734375 -6.234375 L 7.421875 -6.234375 L 5.140625 -1.171875 C 4.941406 -0.710938 4.664062 -0.375 4.3125 -0.15625 C 3.957031 0.0507812 3.566406 0.15625 3.140625 0.15625 C 2.554688 0.15625 2.023438 -0.046875 1.546875 -0.453125 C 1.066406 -0.859375 0.828125 -1.347656 0.828125 -1.921875 C 0.828125 -2.253906 0.90625 -2.582031 1.0625 -2.90625 L 11.5 -25.34375 C 11.726562 -25.84375 12.070312 -26.222656 12.53125 -26.484375 C 13 -26.753906 13.5 -26.890625 14.03125 -26.890625 C 14.5625 -26.890625 15.0625 -26.753906 15.53125 -26.484375 C 16 -26.222656 16.34375 -25.84375 16.5625 -25.34375 Z M 9.078125 -10.03125 L 19.0625 -10.03125 L 14.078125 -21.265625 Z M 9.078125 -10.03125 "/></g></g></g><g fill="#001249" fill-opacity="1"><g transform="translate(140.638446, 271.90749)"><g><path d="M 24.203125 -3.0625 C 24.503906 -2.613281 24.65625 -2.171875 24.65625 -1.734375 C 24.65625 -1.160156 24.421875 -0.679688 23.953125 -0.296875 C 23.492188 0.078125 22.945312 0.265625 22.3125 0.265625 C 21.914062 0.265625 21.53125 0.171875 21.15625 -0.015625 C 20.789062 -0.203125 20.484375 -0.488281 20.234375 -0.875 L 15.203125 -8.515625 C 14.703125 -9.316406 14.164062 -9.878906 13.59375 -10.203125 C 13.03125 -10.535156 12.296875 -10.703125 11.390625 -10.703125 L 7.671875 -10.703125 L 7.671875 -2.234375 C 7.671875 -1.472656 7.457031 -0.867188 7.03125 -0.421875 C 6.601562 0.015625 6.023438 0.234375 5.296875 0.234375 C 4.566406 0.234375 3.976562 0.015625 3.53125 -0.421875 C 3.09375 -0.867188 2.875 -1.472656 2.875 -2.234375 L 2.875 -24.359375 C 2.875 -25.085938 3.082031 -25.65625 3.5 -26.0625 C 3.914062 -26.46875 4.488281 -26.671875 5.21875 -26.671875 L 14.671875 -26.671875 C 17.703125 -26.671875 20.003906 -25.992188 21.578125 -24.640625 C 23.148438 -23.296875 23.9375 -21.347656 23.9375 -18.796875 C 23.9375 -16.734375 23.347656 -15.039062 22.171875 -13.71875 C 21.003906 -12.394531 19.351562 -11.539062 17.21875 -11.15625 C 17.945312 -10.976562 18.585938 -10.660156 19.140625 -10.203125 C 19.691406 -9.753906 20.234375 -9.128906 20.765625 -8.328125 Z M 14 -14.453125 C 15.84375 -14.453125 17.191406 -14.796875 18.046875 -15.484375 C 18.898438 -16.179688 19.328125 -17.25 19.328125 -18.6875 C 19.328125 -20.144531 18.898438 -21.207031 18.046875 -21.875 C 17.191406 -22.550781 15.84375 -22.890625 14 -22.890625 L 7.640625 -22.890625 L 7.640625 -14.453125 Z M 14 -14.453125 "/></g></g></g><g fill="#001249" fill-opacity="1"><g transform="translate(170.326516, 271.90749)"><g><path d="M 11.609375 0.1875 C 10.859375 0.1875 10.257812 -0.03125 9.8125 -0.46875 C 9.375 -0.914062 9.15625 -1.503906 9.15625 -2.234375 L 9.15625 -22.65625 L 2.265625 -22.65625 C 0.753906 -22.65625 0 -23.320312 0 -24.65625 C 0 -26 0.753906 -26.671875 2.265625 -26.671875 L 20.921875 -26.671875 C 22.429688 -26.671875 23.1875 -26 23.1875 -24.65625 C 23.1875 -23.320312 22.429688 -22.65625 20.921875 -22.65625 L 14.03125 -22.65625 L 14.03125 -2.234375 C 14.03125 -1.503906 13.804688 -0.914062 13.359375 -0.46875 C 12.921875 -0.03125 12.335938 0.1875 11.609375 0.1875 Z M 11.609375 0.1875 "/></g></g></g><g fill="#001249" fill-opacity="1"><g transform="translate(196.913566, 271.90749)"><g/></g></g><g fill="#001249" fill-opacity="1"><g transform="translate(210.567112, 271.90749)"><g><path d="M 14.796875 0.34375 C 12.222656 0.34375 9.96875 -0.207031 8.03125 -1.3125 C 6.101562 -2.425781 4.625 -4.015625 3.59375 -6.078125 C 2.5625 -8.148438 2.046875 -10.578125 2.046875 -13.359375 C 2.046875 -16.128906 2.5625 -18.539062 3.59375 -20.59375 C 4.625 -22.65625 6.101562 -24.238281 8.03125 -25.34375 C 9.96875 -26.457031 12.222656 -27.015625 14.796875 -27.015625 C 16.453125 -27.015625 18.007812 -26.765625 19.46875 -26.265625 C 20.9375 -25.773438 22.238281 -25.066406 23.375 -24.140625 C 23.707031 -23.878906 23.9375 -23.609375 24.0625 -23.328125 C 24.1875 -23.054688 24.25 -22.71875 24.25 -22.3125 C 24.25 -21.757812 24.097656 -21.296875 23.796875 -20.921875 C 23.492188 -20.546875 23.128906 -20.359375 22.703125 -20.359375 C 22.191406 -20.359375 21.671875 -20.53125 21.140625 -20.875 C 20.054688 -21.6875 19.046875 -22.25 18.109375 -22.5625 C 17.179688 -22.875 16.148438 -23.03125 15.015625 -23.03125 C 12.390625 -23.03125 10.398438 -22.210938 9.046875 -20.578125 C 7.703125 -18.941406 7.03125 -16.535156 7.03125 -13.359375 C 7.03125 -10.148438 7.703125 -7.722656 9.046875 -6.078125 C 10.398438 -4.441406 12.390625 -3.625 15.015625 -3.625 C 16.097656 -3.625 17.097656 -3.785156 18.015625 -4.109375 C 18.941406 -4.441406 19.984375 -5 21.140625 -5.78125 C 21.398438 -5.9375 21.65625 -6.0625 21.90625 -6.15625 C 22.15625 -6.257812 22.421875 -6.3125 22.703125 -6.3125 C 23.128906 -6.3125 23.492188 -6.125 23.796875 -5.75 C 24.097656 -5.375 24.25 -4.90625 24.25 -4.34375 C 24.25 -3.96875 24.1875 -3.632812 24.0625 -3.34375 C 23.9375 -3.050781 23.707031 -2.78125 23.375 -2.53125 C 22.238281 -1.601562 20.9375 -0.890625 19.46875 -0.390625 C 18.007812 0.0976562 16.453125 0.34375 14.796875 0.34375 Z M 14.796875 0.34375 "/></g></g></g><g fill="#001249" fill-opacity="1"><g transform="translate(239.612283, 271.90749)"><g><path d="M 27.046875 -2.90625 C 27.203125 -2.582031 27.28125 -2.253906 27.28125 -1.921875 C 27.28125 -1.347656 27.046875 -0.859375 26.578125 -0.453125 C 26.109375 -0.046875 25.570312 0.15625 24.96875 0.15625 C 24.5625 0.15625 24.179688 0.0507812 23.828125 -0.15625 C 23.472656 -0.375 23.195312 -0.710938 23 -1.171875 L 20.734375 -6.234375 L 7.421875 -6.234375 L 5.140625 -1.171875 C 4.941406 -0.710938 4.664062 -0.375 4.3125 -0.15625 C 3.957031 0.0507812 3.566406 0.15625 3.140625 0.15625 C 2.554688 0.15625 2.023438 -0.046875 1.546875 -0.453125 C 1.066406 -0.859375 0.828125 -1.347656 0.828125 -1.921875 C 0.828125 -2.253906 0.90625 -2.582031 1.0625 -2.90625 L 11.5 -25.34375 C 11.726562 -25.84375 12.070312 -26.222656 12.53125 -26.484375 C 13 -26.753906 13.5 -26.890625 14.03125 -26.890625 C 14.5625 -26.890625 15.0625 -26.753906 15.53125 -26.484375 C 16 -26.222656 16.34375 -25.84375 16.5625 -25.34375 Z M 9.078125 -10.03125 L 19.0625 -10.03125 L 14.078125 -21.265625 Z M 9.078125 -10.03125 "/></g></g></g><g fill="#001249" fill-opacity="1"><g transform="translate(271.077758, 271.90749)"><g><path d="M 24.203125 -3.0625 C 24.503906 -2.613281 24.65625 -2.171875 24.65625 -1.734375 C 24.65625 -1.160156 24.421875 -0.679688 23.953125 -0.296875 C 23.492188 0.078125 22.945312 0.265625 22.3125 0.265625 C 21.914062 0.265625 21.53125 0.171875 21.15625 -0.015625 C 20.789062 -0.203125 20.484375 -0.488281 20.234375 -0.875 L 15.203125 -8.515625 C 14.703125 -9.316406 14.164062 -9.878906 13.59375 -10.203125 C 13.03125 -10.535156 12.296875 -10.703125 11.390625 -10.703125 L 7.671875 -10.703125 L 7.671875 -2.234375 C 7.671875 -1.472656 7.457031 -0.867188 7.03125 -0.421875 C 6.601562 0.015625 6.023438 0.234375 5.296875 0.234375 C 4.566406 0.234375 3.976562 0.015625 3.53125 -0.421875 C 3.09375 -0.867188 2.875 -1.472656 2.875 -2.234375 L 2.875 -24.359375 C 2.875 -25.085938 3.082031 -25.65625 3.5 -26.0625 C 3.914062 -26.46875 4.488281 -26.671875 5.21875 -26.671875 L 14.671875 -26.671875 C 17.703125 -26.671875 20.003906 -25.992188 21.578125 -24.640625 C 23.148438 -23.296875 23.9375 -21.347656 23.9375 -18.796875 C 23.9375 -16.734375 23.347656 -15.039062 22.171875 -13.71875 C 21.003906 -12.394531 19.351562 -11.539062 17.21875 -11.15625 C 17.945312 -10.976562 18.585938 -10.660156 19.140625 -10.203125 C 19.691406 -9.753906 20.234375 -9.128906 20.765625 -8.328125 Z M 14 -14.453125 C 15.84375 -14.453125 17.191406 -14.796875 18.046875 -15.484375 C 18.898438 -16.179688 19.328125 -17.25 19.328125 -18.6875 C 19.328125 -20.144531 18.898438 -21.207031 18.046875 -21.875 C 17.191406 -22.550781 15.84375 -22.890625 14 -22.890625 L 7.640625 -22.890625 L 7.640625 -14.453125 Z M 14 -14.453125 "/></g></g></g><g fill="#001249" fill-opacity="1"><g transform="translate(300.765829, 271.90749)"><g><path d="M 5.21875 0 C 4.488281 0 3.914062 -0.195312 3.5 -0.59375 C 3.082031 -1 2.875 -1.570312 2.875 -2.3125 L 2.875 -24.359375 C 2.875 -25.085938 3.082031 -25.65625 3.5 -26.0625 C 3.914062 -26.46875 4.488281 -26.671875 5.21875 -26.671875 L 18.875 -26.671875 C 19.601562 -26.671875 20.171875 -26.503906 20.578125 -26.171875 C 20.984375 -25.847656 21.1875 -25.382812 21.1875 -24.78125 C 21.1875 -24.144531 20.984375 -23.65625 20.578125 -23.3125 C 20.171875 -22.976562 19.601562 -22.8125 18.875 -22.8125 L 7.640625 -22.8125 L 7.640625 -15.46875 L 18.125 -15.46875 C 18.851562 -15.46875 19.414062 -15.300781 19.8125 -14.96875 C 20.21875 -14.644531 20.421875 -14.171875 20.421875 -13.546875 C 20.421875 -12.941406 20.21875 -12.472656 19.8125 -12.140625 C 19.414062 -11.816406 18.851562 -11.65625 18.125 -11.65625 L 7.640625 -11.65625 L 7.640625 -3.859375 L 18.875 -3.859375 C 19.601562 -3.859375 20.171875 -3.6875 20.578125 -3.34375 C 20.984375 -3.007812 21.1875 -2.523438 21.1875 -1.890625 C 21.1875 -1.285156 20.984375 -0.816406 20.578125 -0.484375 C 20.171875 -0.160156 19.601562 0 18.875 0 Z M 5.21875 0 "/></g></g></g><g fill="#001249" fill-opacity="1"><g transform="translate(100.704989, 297.054789)"><g><path d="M 2.328125 0 C 1.992188 0 1.734375 -0.0859375 1.546875 -0.265625 C 1.367188 -0.453125 1.28125 -0.703125 1.28125 -1.015625 L 1.28125 -10.953125 C 1.28125 -11.273438 1.378906 -11.535156 1.578125 -11.734375 C 1.773438 -11.929688 2.039062 -12.03125 2.375 -12.03125 C 2.707031 -12.03125 2.972656 -11.929688 3.171875 -11.734375 C 3.367188 -11.535156 3.46875 -11.273438 3.46875 -10.953125 L 3.46875 -1.796875 L 8.234375 -1.796875 C 8.910156 -1.796875 9.25 -1.5 9.25 -0.90625 C 9.25 -0.300781 8.910156 0 8.234375 0 Z M 2.328125 0 "/></g></g></g><g fill="#001249" fill-opacity="1"><g transform="translate(113.242426, 297.054789)"><g><path d="M 6.609375 0.15625 C 5.441406 0.15625 4.429688 -0.09375 3.578125 -0.59375 C 2.734375 -1.09375 2.078125 -1.804688 1.609375 -2.734375 C 1.148438 -3.660156 0.921875 -4.742188 0.921875 -5.984375 C 0.921875 -7.222656 1.144531 -8.300781 1.59375 -9.21875 C 2.050781 -10.144531 2.707031 -10.859375 3.5625 -11.359375 C 4.425781 -11.859375 5.441406 -12.109375 6.609375 -12.109375 C 7.773438 -12.109375 8.785156 -11.859375 9.640625 -11.359375 C 10.492188 -10.859375 11.148438 -10.144531 11.609375 -9.21875 C 12.066406 -8.300781 12.296875 -7.222656 12.296875 -5.984375 C 12.296875 -4.742188 12.0625 -3.660156 11.59375 -2.734375 C 11.132812 -1.804688 10.476562 -1.09375 9.625 -0.59375 C 8.769531 -0.09375 7.765625 0.15625 6.609375 0.15625 Z M 6.609375 -1.59375 C 7.703125 -1.59375 8.554688 -1.96875 9.171875 -2.71875 C 9.796875 -3.476562 10.109375 -4.566406 10.109375 -5.984375 C 10.109375 -7.398438 9.796875 -8.484375 9.171875 -9.234375 C 8.554688 -9.984375 7.703125 -10.359375 6.609375 -10.359375 C 5.503906 -10.359375 4.644531 -9.984375 4.03125 -9.234375 C 3.414062 -8.484375 3.109375 -7.398438 3.109375 -5.984375 C 3.109375 -4.566406 3.414062 -3.476562 4.03125 -2.71875 C 4.644531 -1.96875 5.503906 -1.59375 6.609375 -1.59375 Z M 6.609375 -1.59375 "/></g></g></g><g fill="#001249" fill-opacity="1"><g transform="translate(129.573473, 297.054789)"><g><path d="M 6.625 0.15625 C 5.476562 0.15625 4.472656 -0.09375 3.609375 -0.59375 C 2.742188 -1.09375 2.078125 -1.804688 1.609375 -2.734375 C 1.148438 -3.660156 0.921875 -4.742188 0.921875 -5.984375 C 0.921875 -7.222656 1.148438 -8.300781 1.609375 -9.21875 C 2.078125 -10.144531 2.742188 -10.859375 3.609375 -11.359375 C 4.472656 -11.859375 5.476562 -12.109375 6.625 -12.109375 C 7.375 -12.109375 8.078125 -11.992188 8.734375 -11.765625 C 9.390625 -11.546875 9.972656 -11.226562 10.484375 -10.8125 C 10.628906 -10.695312 10.726562 -10.578125 10.78125 -10.453125 C 10.832031 -10.335938 10.859375 -10.1875 10.859375 -10 C 10.859375 -9.75 10.789062 -9.539062 10.65625 -9.375 C 10.519531 -9.207031 10.359375 -9.125 10.171875 -9.125 C 9.941406 -9.125 9.710938 -9.203125 9.484375 -9.359375 C 8.992188 -9.722656 8.539062 -9.972656 8.125 -10.109375 C 7.707031 -10.253906 7.242188 -10.328125 6.734375 -10.328125 C 5.554688 -10.328125 4.664062 -9.957031 4.0625 -9.21875 C 3.457031 -8.488281 3.15625 -7.410156 3.15625 -5.984375 C 3.15625 -4.546875 3.457031 -3.457031 4.0625 -2.71875 C 4.664062 -1.988281 5.554688 -1.625 6.734375 -1.625 C 7.210938 -1.625 7.660156 -1.695312 8.078125 -1.84375 C 8.492188 -1.988281 8.960938 -2.238281 9.484375 -2.59375 C 9.585938 -2.664062 9.695312 -2.722656 9.8125 -2.765625 C 9.925781 -2.804688 10.046875 -2.828125 10.171875 -2.828125 C 10.359375 -2.828125 10.519531 -2.742188 10.65625 -2.578125 C 10.789062 -2.410156 10.859375 -2.203125 10.859375 -1.953125 C 10.859375 -1.785156 10.832031 -1.632812 10.78125 -1.5 C 10.726562 -1.375 10.628906 -1.253906 10.484375 -1.140625 C 9.972656 -0.722656 9.390625 -0.398438 8.734375 -0.171875 C 8.078125 0.046875 7.375 0.15625 6.625 0.15625 Z M 6.625 0.15625 "/></g></g></g><g fill="#001249" fill-opacity="1"><g transform="translate(144.194007, 297.054789)"><g><path d="M 12.125 -1.3125 C 12.1875 -1.15625 12.21875 -1.003906 12.21875 -0.859375 C 12.21875 -0.597656 12.113281 -0.378906 11.90625 -0.203125 C 11.695312 -0.0234375 11.457031 0.0625 11.1875 0.0625 C 11.007812 0.0625 10.835938 0.015625 10.671875 -0.078125 C 10.515625 -0.171875 10.394531 -0.320312 10.3125 -0.53125 L 9.296875 -2.796875 L 3.328125 -2.796875 L 2.3125 -0.53125 C 2.21875 -0.320312 2.09375 -0.171875 1.9375 -0.078125 C 1.78125 0.015625 1.601562 0.0625 1.40625 0.0625 C 1.144531 0.0625 0.90625 -0.0234375 0.6875 -0.203125 C 0.476562 -0.378906 0.375 -0.597656 0.375 -0.859375 C 0.375 -1.003906 0.40625 -1.15625 0.46875 -1.3125 L 5.15625 -11.359375 C 5.257812 -11.585938 5.414062 -11.757812 5.625 -11.875 C 5.832031 -11.988281 6.054688 -12.046875 6.296875 -12.046875 C 6.523438 -12.046875 6.742188 -11.988281 6.953125 -11.875 C 7.160156 -11.757812 7.316406 -11.585938 7.421875 -11.359375 Z M 4.0625 -4.5 L 8.546875 -4.5 L 6.3125 -9.53125 Z M 4.0625 -4.5 "/></g></g></g><g fill="#001249" fill-opacity="1"><g transform="translate(159.898427, 297.054789)"><g><path d="M 2.328125 0 C 1.992188 0 1.734375 -0.0859375 1.546875 -0.265625 C 1.367188 -0.453125 1.28125 -0.703125 1.28125 -1.015625 L 1.28125 -10.953125 C 1.28125 -11.273438 1.378906 -11.535156 1.578125 -11.734375 C 1.773438 -11.929688 2.039062 -12.03125 2.375 -12.03125 C 2.707031 -12.03125 2.972656 -11.929688 3.171875 -11.734375 C 3.367188 -11.535156 3.46875 -11.273438 3.46875 -10.953125 L 3.46875 -1.796875 L 8.234375 -1.796875 C 8.910156 -1.796875 9.25 -1.5 9.25 -0.90625 C 9.25 -0.300781 8.910156 0 8.234375 0 Z M 2.328125 0 "/></g></g></g><g fill="#001249" fill-opacity="1"><g transform="translate(172.435862, 297.054789)"><g/></g></g><g fill="#001249" fill-opacity="1"><g transform="translate(180.16355, 297.054789)"><g><path d="M 6.625 0.15625 C 5.476562 0.15625 4.472656 -0.09375 3.609375 -0.59375 C 2.742188 -1.09375 2.078125 -1.804688 1.609375 -2.734375 C 1.148438 -3.660156 0.921875 -4.742188 0.921875 -5.984375 C 0.921875 -7.222656 1.148438 -8.300781 1.609375 -9.21875 C 2.078125 -10.144531 2.742188 -10.859375 3.609375 -11.359375 C 4.472656 -11.859375 5.476562 -12.109375 6.625 -12.109375 C 7.375 -12.109375 8.078125 -11.992188 8.734375 -11.765625 C 9.390625 -11.546875 9.972656 -11.226562 10.484375 -10.8125 C 10.628906 -10.695312 10.726562 -10.578125 10.78125 -10.453125 C 10.832031 -10.335938 10.859375 -10.1875 10.859375 -10 C 10.859375 -9.75 10.789062 -9.539062 10.65625 -9.375 C 10.519531 -9.207031 10.359375 -9.125 10.171875 -9.125 C 9.941406 -9.125 9.710938 -9.203125 9.484375 -9.359375 C 8.992188 -9.722656 8.539062 -9.972656 8.125 -10.109375 C 7.707031 -10.253906 7.242188 -10.328125 6.734375 -10.328125 C 5.554688 -10.328125 4.664062 -9.957031 4.0625 -9.21875 C 3.457031 -8.488281 3.15625 -7.410156 3.15625 -5.984375 C 3.15625 -4.546875 3.457031 -3.457031 4.0625 -2.71875 C 4.664062 -1.988281 5.554688 -1.625 6.734375 -1.625 C 7.210938 -1.625 7.660156 -1.695312 8.078125 -1.84375 C 8.492188 -1.988281 8.960938 -2.238281 9.484375 -2.59375 C 9.585938 -2.664062 9.695312 -2.722656 9.8125 -2.765625 C 9.925781 -2.804688 10.046875 -2.828125 10.171875 -2.828125 C 10.359375 -2.828125 10.519531 -2.742188 10.65625 -2.578125 C 10.789062 -2.410156 10.859375 -2.203125 10.859375 -1.953125 C 10.859375 -1.785156 10.832031 -1.632812 10.78125 -1.5 C 10.726562 -1.375 10.628906 -1.253906 10.484375 -1.140625 C 9.972656 -0.722656 9.390625 -0.398438 8.734375 -0.171875 C 8.078125 0.046875 7.375 0.15625 6.625 0.15625 Z M 6.625 0.15625 "/></g></g></g><g fill="#001249" fill-opacity="1"><g transform="translate(194.784087, 297.054789)"><g><path d="M 10.625 -12.03125 C 10.957031 -12.03125 11.21875 -11.929688 11.40625 -11.734375 C 11.601562 -11.535156 11.703125 -11.273438 11.703125 -10.953125 L 11.703125 -1 C 11.703125 -0.675781 11.601562 -0.410156 11.40625 -0.203125 C 11.207031 0.00390625 10.945312 0.109375 10.625 0.109375 C 10.300781 0.109375 10.039062 0.00390625 9.84375 -0.203125 C 9.65625 -0.410156 9.5625 -0.675781 9.5625 -1 L 9.5625 -5.1875 L 3.4375 -5.1875 L 3.4375 -1 C 3.4375 -0.675781 3.335938 -0.410156 3.140625 -0.203125 C 2.941406 0.00390625 2.679688 0.109375 2.359375 0.109375 C 2.035156 0.109375 1.773438 0.00390625 1.578125 -0.203125 C 1.378906 -0.410156 1.28125 -0.675781 1.28125 -1 L 1.28125 -10.953125 C 1.28125 -11.273438 1.375 -11.535156 1.5625 -11.734375 C 1.757812 -11.929688 2.023438 -12.03125 2.359375 -12.03125 C 2.679688 -12.03125 2.941406 -11.929688 3.140625 -11.734375 C 3.335938 -11.535156 3.4375 -11.273438 3.4375 -10.953125 L 3.4375 -6.953125 L 9.5625 -6.953125 L 9.5625 -10.953125 C 9.5625 -11.273438 9.65625 -11.535156 9.84375 -11.734375 C 10.039062 -11.929688 10.300781 -12.03125 10.625 -12.03125 Z M 10.625 -12.03125 "/></g></g></g><g fill="#001249" fill-opacity="1"><g transform="translate(210.894965, 297.054789)"><g><path d="M 12.125 -1.3125 C 12.1875 -1.15625 12.21875 -1.003906 12.21875 -0.859375 C 12.21875 -0.597656 12.113281 -0.378906 11.90625 -0.203125 C 11.695312 -0.0234375 11.457031 0.0625 11.1875 0.0625 C 11.007812 0.0625 10.835938 0.015625 10.671875 -0.078125 C 10.515625 -0.171875 10.394531 -0.320312 10.3125 -0.53125 L 9.296875 -2.796875 L 3.328125 -2.796875 L 2.3125 -0.53125 C 2.21875 -0.320312 2.09375 -0.171875 1.9375 -0.078125 C 1.78125 0.015625 1.601562 0.0625 1.40625 0.0625 C 1.144531 0.0625 0.90625 -0.0234375 0.6875 -0.203125 C 0.476562 -0.378906 0.375 -0.597656 0.375 -0.859375 C 0.375 -1.003906 0.40625 -1.15625 0.46875 -1.3125 L 5.15625 -11.359375 C 5.257812 -11.585938 5.414062 -11.757812 5.625 -11.875 C 5.832031 -11.988281 6.054688 -12.046875 6.296875 -12.046875 C 6.523438 -12.046875 6.742188 -11.988281 6.953125 -11.875 C 7.160156 -11.757812 7.316406 -11.585938 7.421875 -11.359375 Z M 4.0625 -4.5 L 8.546875 -4.5 L 6.3125 -9.53125 Z M 4.0625 -4.5 "/></g></g></g><g fill="#001249" fill-opacity="1"><g transform="translate(226.599385, 297.054789)"><g><path d="M 10.84375 -1.375 C 10.976562 -1.164062 11.046875 -0.96875 11.046875 -0.78125 C 11.046875 -0.519531 10.941406 -0.300781 10.734375 -0.125 C 10.523438 0.0390625 10.28125 0.125 10 0.125 C 9.820312 0.125 9.648438 0.0820312 9.484375 0 C 9.316406 -0.09375 9.175781 -0.222656 9.0625 -0.390625 L 6.8125 -3.8125 C 6.582031 -4.175781 6.34375 -4.429688 6.09375 -4.578125 C 5.84375 -4.722656 5.515625 -4.796875 5.109375 -4.796875 L 3.4375 -4.796875 L 3.4375 -1 C 3.4375 -0.65625 3.335938 -0.382812 3.140625 -0.1875 C 2.953125 0.0078125 2.695312 0.109375 2.375 0.109375 C 2.039062 0.109375 1.773438 0.0078125 1.578125 -0.1875 C 1.378906 -0.382812 1.28125 -0.65625 1.28125 -1 L 1.28125 -10.921875 C 1.28125 -11.242188 1.375 -11.492188 1.5625 -11.671875 C 1.75 -11.859375 2.007812 -11.953125 2.34375 -11.953125 L 6.578125 -11.953125 C 7.929688 -11.953125 8.960938 -11.648438 9.671875 -11.046875 C 10.378906 -10.441406 10.734375 -9.566406 10.734375 -8.421875 C 10.734375 -7.492188 10.46875 -6.734375 9.9375 -6.140625 C 9.414062 -5.546875 8.675781 -5.164062 7.71875 -5 C 8.039062 -4.914062 8.328125 -4.769531 8.578125 -4.5625 C 8.828125 -4.363281 9.070312 -4.085938 9.3125 -3.734375 Z M 6.265625 -6.46875 C 7.097656 -6.46875 7.703125 -6.625 8.078125 -6.9375 C 8.460938 -7.25 8.65625 -7.726562 8.65625 -8.375 C 8.65625 -9.03125 8.460938 -9.503906 8.078125 -9.796875 C 7.703125 -10.097656 7.097656 -10.25 6.265625 -10.25 L 3.421875 -10.25 L 3.421875 -6.46875 Z M 6.265625 -6.46875 "/></g></g></g><g fill="#001249" fill-opacity="1"><g transform="translate(241.507837, 297.054789)"><g><path d="M 2.375 0.109375 C 2.039062 0.109375 1.773438 0.00390625 1.578125 -0.203125 C 1.378906 -0.410156 1.28125 -0.675781 1.28125 -1 L 1.28125 -10.953125 C 1.28125 -11.273438 1.378906 -11.535156 1.578125 -11.734375 C 1.773438 -11.929688 2.039062 -12.03125 2.375 -12.03125 C 2.707031 -12.03125 2.972656 -11.929688 3.171875 -11.734375 C 3.367188 -11.535156 3.46875 -11.273438 3.46875 -10.953125 L 3.46875 -1 C 3.46875 -0.675781 3.367188 -0.410156 3.171875 -0.203125 C 2.972656 0.00390625 2.707031 0.109375 2.375 0.109375 Z M 2.375 0.109375 "/></g></g></g><g fill="#001249" fill-opacity="1"><g transform="translate(249.404868, 297.054789)"><g><path d="M 5.203125 0.078125 C 4.867188 0.078125 4.601562 -0.0195312 4.40625 -0.21875 C 4.207031 -0.414062 4.109375 -0.675781 4.109375 -1 L 4.109375 -10.15625 L 1.015625 -10.15625 C 0.335938 -10.15625 0 -10.453125 0 -11.046875 C 0 -11.648438 0.335938 -11.953125 1.015625 -11.953125 L 9.375 -11.953125 C 10.050781 -11.953125 10.390625 -11.648438 10.390625 -11.046875 C 10.390625 -10.453125 10.050781 -10.15625 9.375 -10.15625 L 6.296875 -10.15625 L 6.296875 -1 C 6.296875 -0.675781 6.195312 -0.414062 6 -0.21875 C 5.800781 -0.0195312 5.535156 0.078125 5.203125 0.078125 Z M 5.203125 0.078125 "/></g></g></g><g fill="#001249" fill-opacity="1"><g transform="translate(262.924582, 297.054789)"><g><path d="M 8.75 -11.65625 C 8.945312 -11.90625 9.191406 -12.03125 9.484375 -12.03125 C 9.734375 -12.03125 9.960938 -11.929688 10.171875 -11.734375 C 10.378906 -11.535156 10.484375 -11.300781 10.484375 -11.03125 C 10.484375 -10.8125 10.394531 -10.597656 10.21875 -10.390625 L 6.375 -5.703125 L 6.375 -1 C 6.375 -0.644531 6.269531 -0.367188 6.0625 -0.171875 C 5.863281 0.015625 5.609375 0.109375 5.296875 0.109375 C 4.960938 0.109375 4.691406 0.015625 4.484375 -0.171875 C 4.285156 -0.367188 4.1875 -0.644531 4.1875 -1 L 4.1875 -5.703125 L 0.34375 -10.390625 C 0.164062 -10.597656 0.078125 -10.8125 0.078125 -11.03125 C 0.078125 -11.300781 0.175781 -11.535156 0.375 -11.734375 C 0.582031 -11.929688 0.816406 -12.03125 1.078125 -12.03125 C 1.367188 -12.03125 1.613281 -11.90625 1.8125 -11.65625 L 5.296875 -7.359375 Z M 8.75 -11.65625 "/></g></g></g></svg>