<svg xmlns="http://www.w3.org/2000/svg" xmlns:xlink="http://www.w3.org/1999/xlink" width="500" zoomAndPan="magnify" viewBox="0 0 375 374.999991" height="500" preserveAspectRatio="xMidYMid meet" version="1.0"><defs><g/><clipPath id="293e5becfb"><path d="M 24.304688 37.5 L 350.554688 37.5 L 350.554688 363.75 L 24.304688 363.75 Z M 24.304688 37.5 " clip-rule="nonzero"/></clipPath><clipPath id="4501579871"><path d="M 94 164 L 249 164 L 249 244.238281 L 94 244.238281 Z M 94 164 " clip-rule="nonzero"/></clipPath><clipPath id="edb8681530"><path d="M 126 55.238281 L 281 55.238281 L 281 135 L 126 135 Z M 126 55.238281 " clip-rule="nonzero"/></clipPath><clipPath id="a23dd0baa7"><path d="M 202 89 L 281.847656 89 L 281.847656 243 L 202 243 Z M 202 89 " clip-rule="nonzero"/></clipPath><clipPath id="87cb2cf0e9"><path d="M 92.847656 57 L 173 57 L 173 211 L 92.847656 211 Z M 92.847656 57 " clip-rule="nonzero"/></clipPath></defs><g clip-path="url(#293e5becfb)"><path fill="#e3ebf2" d="M 187.496094 37.5 C 97.507812 37.5 24.304688 110.703125 24.304688 200.6875 C 24.304688 290.675781 97.507812 363.878906 187.496094 363.878906 C 277.480469 363.878906 350.683594 290.675781 350.683594 200.6875 C 350.683594 110.703125 277.480469 37.5 187.496094 37.5 " fill-opacity="1" fill-rule="nonzero"/></g><g clip-path="url(#4501579871)"><path fill="#76ab85" d="M 229.445312 212.710938 L 247.113281 195.480469 C 247.113281 195.480469 249.613281 193.183594 247.257812 191.210938 C 247.257812 191.210938 245.566406 189.398438 242.964844 192.074219 L 229.949219 204.132812 C 229.949219 204.132812 228.804688 204.765625 228.316406 204.089844 C 228.316406 204.089844 227.554688 203.589844 228.386719 202.339844 C 228.386719 202.339844 243.144531 185.609375 246.933594 180.992188 C 246.933594 180.992188 248.300781 179.027344 246.4375 177.324219 C 246.4375 177.324219 244.429688 175.242188 241.667969 178.308594 L 226.945312 196.203125 C 226.945312 196.203125 226.089844 197.191406 224.980469 196.132812 C 224.980469 196.132812 224.148438 195.515625 225.207031 194.3125 L 242.753906 172.035156 C 242.753906 172.035156 244.769531 169.980469 242.769531 168.199219 C 242.769531 168.199219 240.644531 166.304688 238.148438 169.113281 L 219.789062 191.511719 C 219.789062 191.511719 218.996094 192.652344 217.335938 191.96875 C 217.335938 191.96875 216.421875 190.832031 217.785156 189.089844 L 230.738281 169.988281 C 230.738281 169.988281 232.695312 167.253906 230.179688 165.476562 C 230.179688 165.476562 227.78125 163.621094 225.132812 167.136719 L 202.90625 196.558594 C 202.90625 196.558594 199.875 201.734375 196.039062 197.683594 C 196.039062 197.683594 195.132812 195.847656 195.132812 191.003906 C 195.132812 191.003906 196.039062 181.621094 189.382812 178.800781 C 189.382812 178.800781 184.640625 176.777344 186.25 184.652344 C 186.25 184.652344 187.5625 191.816406 187.460938 198.175781 C 187.460938 198.175781 185.75 213.613281 186.65625 224.109375 C 186.65625 224.109375 186.453125 226.628906 184.835938 229.054688 L 179.332031 233.976562 L 179.324219 233.976562 C 176.785156 233.730469 174.292969 233.375 171.828125 232.902344 L 171.820312 232.902344 C 146.039062 228.058594 124.351562 211.453125 112.566406 188.894531 L 112.566406 188.886719 C 108.453125 184.875 104.769531 180.734375 101.976562 177.414062 L 100.613281 175.796875 L 100.613281 175.761719 C 99.039062 173.851562 97.917969 172.402344 97.378906 171.699219 L 94.886719 169.449219 C 102.59375 205.960938 131.410156 234.78125 167.921875 242.488281 L 167.929688 242.488281 C 172.101562 243.367188 176.355469 243.96875 180.699219 244.277344 L 180.707031 244.277344 C 182.957031 244.445312 185.21875 244.527344 187.5 244.527344 C 191.035156 244.527344 194.519531 244.328125 197.953125 243.953125 L 205.371094 235.714844 C 205.371094 235.714844 207.808594 233.894531 211.300781 230.949219 C 216.488281 226.597656 224.023438 219.761719 229.445312 212.710938 Z M 229.445312 212.710938 " fill-opacity="1" fill-rule="nonzero"/></g><g clip-path="url(#edb8681530)"><path fill="#76ab85" d="M 145.558594 87.054688 L 127.886719 104.285156 C 127.886719 104.285156 125.386719 106.582031 127.742188 108.554688 C 127.742188 108.554688 129.429688 110.367188 132.035156 107.691406 L 145.050781 95.632812 C 145.050781 95.632812 146.195312 95 146.691406 95.675781 C 146.691406 95.675781 147.453125 96.175781 146.617188 97.421875 C 146.617188 97.421875 131.851562 114.152344 128.074219 118.773438 C 128.074219 118.773438 126.695312 120.738281 128.5625 122.441406 C 128.5625 122.441406 130.570312 124.523438 133.332031 121.457031 L 148.054688 103.558594 C 148.054688 103.558594 148.910156 102.574219 150.019531 103.632812 C 150.019531 103.632812 150.851562 104.25 149.792969 105.453125 L 132.246094 127.730469 C 132.246094 127.730469 130.230469 129.78125 132.238281 131.566406 C 132.238281 131.566406 134.355469 133.457031 136.847656 130.652344 L 155.210938 108.25 C 155.210938 108.25 156 107.113281 157.667969 107.792969 C 157.667969 107.792969 158.574219 108.933594 157.210938 110.675781 L 144.261719 129.773438 C 144.261719 129.773438 142.300781 132.507812 144.820312 134.285156 C 144.820312 134.285156 147.21875 136.140625 149.875 132.625 L 172.101562 103.203125 C 172.101562 103.203125 175.125 98.027344 178.960938 102.082031 C 178.960938 102.082031 179.867188 103.914062 179.867188 108.757812 C 179.867188 108.757812 178.960938 118.144531 185.625 120.964844 C 185.625 120.964844 190.367188 122.988281 188.75 115.113281 C 188.75 115.113281 187.4375 107.949219 187.539062 101.589844 C 187.539062 101.589844 189.257812 86.152344 188.34375 75.65625 C 188.34375 75.65625 188.546875 73.132812 190.164062 70.710938 L 195.671875 65.78125 C 198.210938 66.027344 200.714844 66.382812 203.179688 66.855469 C 228.964844 71.707031 250.65625 88.320312 262.441406 110.886719 L 262.441406 110.894531 C 266.546875 114.898438 270.230469 119.03125 273.019531 122.351562 L 274.382812 123.96875 L 274.382812 124.003906 C 275.957031 125.914062 277.082031 127.363281 277.617188 128.066406 L 280.113281 130.316406 C 272.402344 93.792969 243.585938 64.976562 207.082031 57.285156 C 202.910156 56.398438 198.640625 55.796875 194.289062 55.484375 C 192.050781 55.316406 189.785156 55.238281 187.503906 55.238281 C 183.972656 55.238281 180.484375 55.433594 177.046875 55.8125 L 169.628906 64.050781 C 169.628906 64.050781 167.191406 65.871094 163.695312 68.8125 C 158.511719 73.167969 150.984375 80.007812 145.558594 87.054688 Z M 145.558594 87.054688 " fill-opacity="1" fill-rule="nonzero"/></g><g clip-path="url(#a23dd0baa7)"><path fill="#76ab85" d="M 281.578125 139.433594 L 273.332031 132.007812 C 273.332031 132.007812 271.519531 129.585938 268.582031 126.097656 C 268.582031 126.089844 268.582031 126.089844 268.582031 126.085938 C 264.214844 120.898438 257.378906 113.371094 250.324219 107.941406 L 233.097656 90.269531 C 233.097656 90.269531 230.792969 87.765625 228.828125 90.128906 C 228.828125 90.128906 227.007812 91.820312 229.683594 94.414062 L 241.742188 107.433594 C 241.742188 107.433594 242.375 108.585938 241.699219 109.070312 C 241.699219 109.070312 241.207031 109.832031 239.953125 109 C 239.953125 109 223.226562 94.242188 218.609375 90.457031 C 218.609375 90.457031 216.644531 89.085938 214.941406 90.949219 C 214.941406 90.949219 212.859375 92.949219 215.917969 95.714844 L 233.824219 110.433594 C 233.824219 110.433594 234.808594 111.296875 233.742188 112.40625 C 233.742188 112.40625 233.132812 113.242188 231.921875 112.179688 L 209.65625 94.632812 C 209.65625 94.632812 207.597656 92.609375 205.820312 94.617188 C 205.820312 94.617188 203.925781 96.734375 206.726562 99.238281 L 229.132812 117.59375 C 229.132812 117.59375 230.265625 118.382812 229.582031 120.050781 C 229.582031 120.050781 228.453125 120.957031 226.710938 119.59375 L 207.605469 106.640625 C 207.605469 106.640625 204.871094 104.683594 203.101562 107.207031 C 203.101562 107.207031 201.238281 109.609375 204.761719 112.253906 L 234.179688 134.480469 C 234.179688 134.480469 239.359375 137.511719 235.304688 141.34375 C 235.304688 141.34375 233.472656 142.257812 228.625 142.257812 C 228.625 142.257812 219.242188 141.34375 216.414062 148.007812 C 216.414062 148.007812 214.398438 152.75 222.265625 151.132812 C 222.265625 151.132812 229.429688 149.820312 235.789062 149.921875 C 235.789062 149.921875 251.226562 151.640625 261.730469 150.734375 C 261.730469 150.734375 264.253906 150.9375 266.675781 152.546875 L 271.597656 158.058594 L 271.597656 158.066406 C 271.351562 160.605469 270.996094 163.097656 270.523438 165.5625 L 270.523438 165.570312 C 265.679688 191.34375 249.082031 213.019531 226.527344 224.808594 L 226.523438 224.808594 C 222.503906 228.921875 218.363281 232.605469 215.035156 235.398438 C 212.308594 237.6875 210.214844 239.328125 209.3125 240.015625 L 207.082031 242.496094 C 243.59375 234.789062 272.402344 205.976562 280.105469 169.464844 L 280.105469 169.457031 C 280.992188 165.292969 281.59375 161.023438 281.90625 156.679688 L 281.90625 156.671875 C 282.070312 154.433594 282.152344 152.167969 282.152344 149.886719 C 282.152344 146.351562 281.957031 142.863281 281.578125 139.433594 Z M 281.578125 139.433594 " fill-opacity="1" fill-rule="nonzero"/></g><g clip-path="url(#87cb2cf0e9)"><path fill="#76ab85" d="M 106.414062 173.667969 C 106.414062 173.675781 106.414062 173.675781 106.414062 173.683594 C 110.78125 178.867188 117.617188 186.394531 124.675781 191.824219 L 141.902344 209.496094 C 141.902344 209.496094 144.203125 212 146.167969 209.636719 C 146.167969 209.636719 147.988281 207.945312 145.3125 205.351562 L 133.253906 192.332031 C 133.253906 192.332031 132.621094 191.179688 133.296875 190.695312 C 133.296875 190.695312 133.796875 189.933594 135.046875 190.769531 C 135.046875 190.769531 151.773438 205.523438 156.386719 209.3125 C 156.386719 209.3125 158.359375 210.683594 160.0625 208.820312 C 160.0625 208.820312 162.144531 206.816406 159.078125 204.054688 L 141.171875 189.332031 C 141.171875 189.332031 140.195312 188.46875 141.253906 187.359375 C 141.253906 187.359375 141.863281 186.527344 143.074219 187.585938 L 165.351562 205.136719 C 165.351562 205.136719 167.402344 207.15625 169.179688 205.148438 C 169.179688 205.148438 171.074219 203.03125 168.273438 200.53125 L 145.871094 182.175781 C 145.871094 182.175781 144.734375 181.386719 145.414062 179.71875 C 145.414062 179.71875 146.546875 178.8125 148.292969 180.171875 L 167.394531 193.125 C 167.394531 193.125 170.128906 195.082031 171.898438 192.558594 C 171.898438 192.558594 173.761719 190.160156 170.238281 187.511719 L 140.824219 165.285156 C 140.824219 165.285156 135.640625 162.253906 139.695312 158.425781 C 139.695312 158.425781 141.527344 157.511719 146.371094 157.511719 C 146.371094 157.511719 155.757812 158.425781 158.585938 151.757812 C 158.585938 151.757812 160.601562 147.015625 152.734375 148.632812 C 152.734375 148.632812 145.566406 149.945312 139.210938 149.84375 C 139.210938 149.84375 123.769531 148.125 113.269531 149.03125 C 113.269531 149.03125 110.753906 148.828125 108.332031 147.21875 L 103.402344 141.703125 C 103.648438 139.164062 104.003906 136.660156 104.46875 134.195312 C 109.316406 108.410156 125.929688 86.722656 148.503906 74.9375 C 152.511719 70.832031 156.644531 67.15625 159.960938 64.371094 C 162.6875 62.082031 164.78125 60.441406 165.683594 59.753906 L 167.914062 57.273438 C 131.410156 64.980469 102.597656 93.792969 94.890625 130.304688 L 94.890625 130.3125 C 94.007812 134.472656 93.40625 138.746094 93.089844 143.089844 L 93.089844 143.097656 C 92.925781 145.335938 92.84375 147.601562 92.84375 149.882812 C 92.84375 153.414062 93.039062 156.902344 93.417969 160.332031 L 101.664062 167.757812 C 101.664062 167.757812 103.476562 170.179688 106.414062 173.667969 Z M 106.414062 173.667969 " fill-opacity="1" fill-rule="nonzero"/></g><g fill="#000000" fill-opacity="1"><g transform="translate(86.265209, 290.368743)"><g><path d="M 2.546875 0 L 2.546875 -21.203125 L 11.609375 -21.203125 C 13.222656 -21.203125 14.625 -20.910156 15.8125 -20.328125 C 17.007812 -19.742188 17.929688 -18.90625 18.578125 -17.8125 C 19.222656 -16.71875 19.546875 -15.414062 19.546875 -13.90625 C 19.546875 -12.351562 19.191406 -11.015625 18.484375 -9.890625 C 17.773438 -8.765625 16.785156 -7.921875 15.515625 -7.359375 L 19.90625 0 L 14.328125 0 L 10.546875 -6.609375 L 7.359375 -6.609375 L 7.359375 0 Z M 7.296875 -10.671875 L 10.96875 -10.671875 C 12.15625 -10.671875 13.066406 -10.945312 13.703125 -11.5 C 14.335938 -12.050781 14.65625 -12.84375 14.65625 -13.875 C 14.65625 -14.90625 14.335938 -15.695312 13.703125 -16.25 C 13.066406 -16.8125 12.15625 -17.09375 10.96875 -17.09375 L 7.296875 -17.09375 Z M 7.296875 -10.671875 "/></g></g></g><g fill="#000000" fill-opacity="1"><g transform="translate(107.588773, 290.368743)"><g><path d="M 2.546875 0 L 2.546875 -21.203125 L 7.359375 -21.203125 L 7.359375 0 Z M 2.546875 0 "/></g></g></g><g fill="#000000" fill-opacity="1"><g transform="translate(117.493325, 290.368743)"><g><path d="M 9.9375 0.421875 C 8.15625 0.421875 6.625 0.128906 5.34375 -0.453125 C 4.0625 -1.035156 3.070312 -1.867188 2.375 -2.953125 C 1.675781 -4.035156 1.328125 -5.300781 1.328125 -6.75 L 6.0625 -6.75 C 6.0625 -5.738281 6.410156 -4.953125 7.109375 -4.390625 C 7.804688 -3.828125 8.738281 -3.546875 9.90625 -3.546875 C 10.914062 -3.546875 11.710938 -3.738281 12.296875 -4.125 C 12.878906 -4.519531 13.171875 -5.070312 13.171875 -5.78125 C 13.171875 -6.53125 12.816406 -7.132812 12.109375 -7.59375 C 11.410156 -8.0625 10.3125 -8.457031 8.8125 -8.78125 C 6.332031 -9.3125 4.492188 -10.109375 3.296875 -11.171875 C 2.109375 -12.242188 1.515625 -13.640625 1.515625 -15.359375 C 1.515625 -17.296875 2.21875 -18.820312 3.625 -19.9375 C 5.039062 -21.0625 6.972656 -21.625 9.421875 -21.625 C 11.097656 -21.625 12.550781 -21.335938 13.78125 -20.765625 C 15.019531 -20.191406 15.972656 -19.382812 16.640625 -18.34375 C 17.316406 -17.300781 17.65625 -16.066406 17.65625 -14.640625 L 13.03125 -14.640625 C 13.03125 -15.585938 12.71875 -16.332031 12.09375 -16.875 C 11.46875 -17.414062 10.597656 -17.6875 9.484375 -17.6875 C 8.472656 -17.6875 7.671875 -17.488281 7.078125 -17.09375 C 6.492188 -16.707031 6.203125 -16.160156 6.203125 -15.453125 C 6.203125 -14.804688 6.523438 -14.257812 7.171875 -13.8125 C 7.828125 -13.375 8.960938 -12.960938 10.578125 -12.578125 C 13.222656 -11.953125 15.128906 -11.113281 16.296875 -10.0625 C 17.472656 -9.007812 18.0625 -7.644531 18.0625 -5.96875 C 18.0625 -3.96875 17.335938 -2.398438 15.890625 -1.265625 C 14.441406 -0.140625 12.457031 0.421875 9.9375 0.421875 Z M 9.9375 0.421875 "/></g></g></g><g fill="#000000" fill-opacity="1"><g transform="translate(136.90867, 290.368743)"><g><path d="M 2.546875 0 L 2.546875 -21.203125 L 7.359375 -21.203125 L 7.359375 0 Z M 2.546875 0 "/></g></g></g><g fill="#000000" fill-opacity="1"><g transform="translate(146.813222, 290.368743)"><g><path d="M 2.546875 0 L 2.546875 -21.203125 L 6.640625 -21.203125 L 16 -8.296875 L 16 -21.203125 L 20.78125 -21.203125 L 20.78125 0 L 16.6875 0 L 7.328125 -13 L 7.328125 0 Z M 2.546875 0 "/></g></g></g><g fill="#000000" fill-opacity="1"><g transform="translate(170.135866, 290.368743)"><g><path d="M 12.421875 0.421875 C 10.265625 0.421875 8.347656 -0.046875 6.671875 -0.984375 C 4.992188 -1.921875 3.675781 -3.21875 2.71875 -4.875 C 1.769531 -6.53125 1.296875 -8.441406 1.296875 -10.609375 C 1.296875 -12.765625 1.765625 -14.671875 2.703125 -16.328125 C 3.648438 -17.984375 4.957031 -19.28125 6.625 -20.21875 C 8.289062 -21.15625 10.191406 -21.625 12.328125 -21.625 C 14.046875 -21.625 15.628906 -21.320312 17.078125 -20.71875 C 18.535156 -20.113281 19.773438 -19.257812 20.796875 -18.15625 C 21.816406 -17.0625 22.539062 -15.765625 22.96875 -14.265625 L 17.78125 -14.265625 C 17.28125 -15.191406 16.554688 -15.910156 15.609375 -16.421875 C 14.671875 -16.941406 13.609375 -17.203125 12.421875 -17.203125 C 11.191406 -17.203125 10.097656 -16.921875 9.140625 -16.359375 C 8.191406 -15.796875 7.453125 -15.019531 6.921875 -14.03125 C 6.390625 -13.039062 6.125 -11.898438 6.125 -10.609375 C 6.125 -9.328125 6.382812 -8.191406 6.90625 -7.203125 C 7.4375 -6.210938 8.175781 -5.429688 9.125 -4.859375 C 10.070312 -4.285156 11.191406 -4 12.484375 -4 C 14.035156 -4 15.328125 -4.390625 16.359375 -5.171875 C 17.390625 -5.960938 18.054688 -7.003906 18.359375 -8.296875 L 11.484375 -8.296875 L 11.484375 -12.03125 L 23.453125 -12.03125 C 23.566406 -10.207031 23.382812 -8.535156 22.90625 -7.015625 C 22.4375 -5.503906 21.710938 -4.1875 20.734375 -3.0625 C 19.753906 -1.945312 18.5625 -1.085938 17.15625 -0.484375 C 15.757812 0.117188 14.179688 0.421875 12.421875 0.421875 Z M 12.421875 0.421875 "/></g></g></g><g fill="#000000" fill-opacity="1"><g transform="translate(194.851823, 290.368743)"><g/></g></g><g fill="#000000" fill-opacity="1"><g transform="translate(201.969778, 290.368743)"><g><path d="M 15.65625 0 L 15.65625 -8.546875 L 7.359375 -8.546875 L 7.359375 0 L 2.546875 0 L 2.546875 -21.203125 L 7.359375 -21.203125 L 7.359375 -13.0625 L 15.65625 -13.0625 L 15.65625 -21.203125 L 20.484375 -21.203125 L 20.484375 0 Z M 15.65625 0 "/></g></g></g><g fill="#000000" fill-opacity="1"><g transform="translate(224.989539, 290.368743)"><g><path d="M 12.609375 0.421875 C 10.398438 0.421875 8.441406 -0.046875 6.734375 -0.984375 C 5.035156 -1.921875 3.703125 -3.21875 2.734375 -4.875 C 1.773438 -6.53125 1.296875 -8.441406 1.296875 -10.609375 C 1.296875 -12.765625 1.773438 -14.671875 2.734375 -16.328125 C 3.703125 -17.984375 5.035156 -19.28125 6.734375 -20.21875 C 8.441406 -21.15625 10.398438 -21.625 12.609375 -21.625 C 14.828125 -21.625 16.785156 -21.15625 18.484375 -20.21875 C 20.179688 -19.28125 21.515625 -17.984375 22.484375 -16.328125 C 23.453125 -14.671875 23.9375 -12.765625 23.9375 -10.609375 C 23.9375 -8.441406 23.453125 -6.53125 22.484375 -4.875 C 21.515625 -3.21875 20.179688 -1.921875 18.484375 -0.984375 C 16.785156 -0.046875 14.828125 0.421875 12.609375 0.421875 Z M 6.203125 -10.609375 C 6.203125 -9.328125 6.472656 -8.203125 7.015625 -7.234375 C 7.566406 -6.265625 8.320312 -5.507812 9.28125 -4.96875 C 10.238281 -4.425781 11.347656 -4.15625 12.609375 -4.15625 C 13.878906 -4.15625 14.992188 -4.425781 15.953125 -4.96875 C 16.910156 -5.507812 17.65625 -6.265625 18.1875 -7.234375 C 18.726562 -8.203125 19 -9.328125 19 -10.609375 C 19 -11.878906 18.726562 -13 18.1875 -13.96875 C 17.65625 -14.9375 16.910156 -15.691406 15.953125 -16.234375 C 14.992188 -16.785156 13.878906 -17.0625 12.609375 -17.0625 C 11.347656 -17.0625 10.238281 -16.785156 9.28125 -16.234375 C 8.320312 -15.691406 7.566406 -14.9375 7.015625 -13.96875 C 6.472656 -13 6.203125 -11.878906 6.203125 -10.609375 Z M 6.203125 -10.609375 "/></g></g></g><g fill="#000000" fill-opacity="1"><g transform="translate(250.220402, 290.368743)"><g><path d="M 2.546875 0 L 2.546875 -21.203125 L 10.84375 -21.203125 C 12.5625 -21.203125 14.046875 -20.890625 15.296875 -20.265625 C 16.546875 -19.640625 17.519531 -18.75 18.21875 -17.59375 C 18.914062 -16.445312 19.265625 -15.097656 19.265625 -13.546875 C 19.265625 -12.003906 18.914062 -10.65625 18.21875 -9.5 C 17.519531 -8.351562 16.546875 -7.46875 15.296875 -6.84375 C 14.046875 -6.21875 12.5625 -5.90625 10.84375 -5.90625 L 7.359375 -5.90625 L 7.359375 0 Z M 7.328125 -10.0625 L 10.453125 -10.0625 C 11.703125 -10.0625 12.664062 -10.359375 13.34375 -10.953125 C 14.019531 -11.546875 14.359375 -12.398438 14.359375 -13.515625 C 14.359375 -14.617188 14.019531 -15.472656 13.34375 -16.078125 C 12.664062 -16.691406 11.703125 -17 10.453125 -17 L 7.328125 -17 Z M 7.328125 -10.0625 "/></g></g></g><g fill="#000000" fill-opacity="1"><g transform="translate(270.362691, 290.368743)"><g><path d="M 2.546875 0 L 2.546875 -21.203125 L 16.484375 -21.203125 L 16.484375 -17.140625 L 7.328125 -17.140625 L 7.328125 -12.75 L 15.65625 -12.75 L 15.65625 -8.71875 L 7.328125 -8.71875 L 7.328125 -4.09375 L 16.8125 -4.09375 L 16.8125 0 Z M 2.546875 0 "/></g></g></g><g fill="#000000" fill-opacity="1"><g transform="translate(96.324822, 313.966493)"><g><path d="M 2 0 L 2 -12.359375 L 8.8125 -12.359375 L 8.8125 -11.359375 L 3.078125 -11.359375 L 3.078125 -6.5 L 8.34375 -6.5 L 8.34375 -5.515625 L 3.078125 -5.515625 L 3.078125 0 Z M 2 0 "/></g></g></g><g fill="#000000" fill-opacity="1"><g transform="translate(112.963179, 313.966493)"><g><path d="M 7.5 0.234375 C 6.25 0.234375 5.144531 -0.0351562 4.1875 -0.578125 C 3.226562 -1.117188 2.476562 -1.875 1.9375 -2.84375 C 1.394531 -3.8125 1.125 -4.925781 1.125 -6.1875 C 1.125 -7.4375 1.394531 -8.546875 1.9375 -9.515625 C 2.476562 -10.484375 3.226562 -11.238281 4.1875 -11.78125 C 5.144531 -12.320312 6.25 -12.59375 7.5 -12.59375 C 8.757812 -12.59375 9.867188 -12.320312 10.828125 -11.78125 C 11.785156 -11.238281 12.53125 -10.484375 13.0625 -9.515625 C 13.601562 -8.546875 13.875 -7.4375 13.875 -6.1875 C 13.875 -4.925781 13.601562 -3.8125 13.0625 -2.84375 C 12.53125 -1.875 11.785156 -1.117188 10.828125 -0.578125 C 9.867188 -0.0351562 8.757812 0.234375 7.5 0.234375 Z M 2.21875 -6.1875 C 2.21875 -5.132812 2.441406 -4.203125 2.890625 -3.390625 C 3.335938 -2.585938 3.957031 -1.960938 4.75 -1.515625 C 5.550781 -1.066406 6.46875 -0.84375 7.5 -0.84375 C 8.550781 -0.84375 9.472656 -1.066406 10.265625 -1.515625 C 11.054688 -1.960938 11.675781 -2.585938 12.125 -3.390625 C 12.570312 -4.203125 12.796875 -5.132812 12.796875 -6.1875 C 12.796875 -7.238281 12.570312 -8.164062 12.125 -8.96875 C 11.675781 -9.769531 11.054688 -10.394531 10.265625 -10.84375 C 9.472656 -11.289062 8.550781 -11.515625 7.5 -11.515625 C 6.46875 -11.515625 5.550781 -11.289062 4.75 -10.84375 C 3.957031 -10.394531 3.335938 -9.769531 2.890625 -8.96875 C 2.441406 -8.164062 2.21875 -7.238281 2.21875 -6.1875 Z M 2.21875 -6.1875 "/></g></g></g><g fill="#000000" fill-opacity="1"><g transform="translate(134.722578, 313.966493)"><g><path d="M 6.5 0.21875 C 5.050781 0.21875 3.910156 -0.226562 3.078125 -1.125 C 2.253906 -2.03125 1.84375 -3.28125 1.84375 -4.875 L 1.84375 -12.359375 L 2.890625 -12.359375 L 2.890625 -4.921875 C 2.890625 -3.609375 3.203125 -2.597656 3.828125 -1.890625 C 4.460938 -1.179688 5.351562 -0.828125 6.5 -0.828125 C 7.65625 -0.828125 8.539062 -1.179688 9.15625 -1.890625 C 9.78125 -2.597656 10.09375 -3.609375 10.09375 -4.921875 L 10.09375 -12.359375 L 11.15625 -12.359375 L 11.15625 -4.875 C 11.15625 -3.28125 10.738281 -2.03125 9.90625 -1.125 C 9.082031 -0.226562 7.945312 0.21875 6.5 0.21875 Z M 6.5 0.21875 "/></g></g></g><g fill="#000000" fill-opacity="1"><g transform="translate(154.468873, 313.966493)"><g><path d="M 2 0 L 2 -12.359375 L 3 -12.359375 L 10.515625 -1.859375 L 10.515625 -12.359375 L 11.578125 -12.359375 L 11.578125 0 L 10.578125 0 L 3.046875 -10.515625 L 3.046875 0 Z M 2 0 "/></g></g></g><g fill="#000000" fill-opacity="1"><g transform="translate(174.797913, 313.966493)"><g><path d="M 2 0 L 2 -12.359375 L 5.890625 -12.359375 C 7.210938 -12.359375 8.351562 -12.101562 9.3125 -11.59375 C 10.269531 -11.082031 11.007812 -10.363281 11.53125 -9.4375 C 12.0625 -8.507812 12.328125 -7.425781 12.328125 -6.1875 C 12.328125 -4.945312 12.0625 -3.859375 11.53125 -2.921875 C 11.007812 -1.992188 10.269531 -1.273438 9.3125 -0.765625 C 8.351562 -0.253906 7.210938 0 5.890625 0 Z M 3.078125 -1.03125 L 5.890625 -1.03125 C 6.992188 -1.03125 7.941406 -1.238281 8.734375 -1.65625 C 9.535156 -2.082031 10.148438 -2.679688 10.578125 -3.453125 C 11.015625 -4.222656 11.234375 -5.132812 11.234375 -6.1875 C 11.234375 -7.226562 11.015625 -8.132812 10.578125 -8.90625 C 10.140625 -9.675781 9.519531 -10.269531 8.71875 -10.6875 C 7.914062 -11.113281 6.960938 -11.328125 5.859375 -11.328125 L 3.078125 -11.328125 Z M 3.078125 -1.03125 "/></g></g></g><g fill="#000000" fill-opacity="1"><g transform="translate(195.003332, 313.966493)"><g><path d="M 0.390625 0 L 5.515625 -12.359375 L 6.53125 -12.359375 L 11.65625 0 L 10.515625 0 L 9.234375 -3.109375 L 2.8125 -3.109375 L 1.53125 0 Z M 3.234375 -4.09375 L 8.828125 -4.09375 L 6.015625 -10.890625 Z M 3.234375 -4.09375 "/></g></g></g><g fill="#000000" fill-opacity="1"><g transform="translate(213.813705, 313.966493)"><g><path d="M 4.921875 0 L 4.921875 -11.328125 L 0.671875 -11.328125 L 0.671875 -12.359375 L 10.265625 -12.359375 L 10.265625 -11.328125 L 5.984375 -11.328125 L 5.984375 0 Z M 4.921875 0 "/></g></g></g><g fill="#000000" fill-opacity="1"><g transform="translate(231.493915, 313.966493)"><g><path d="M 2 0 L 2 -12.359375 L 3.078125 -12.359375 L 3.078125 0 Z M 2 0 "/></g></g></g><g fill="#000000" fill-opacity="1"><g transform="translate(243.311409, 313.966493)"><g><path d="M 7.5 0.234375 C 6.25 0.234375 5.144531 -0.0351562 4.1875 -0.578125 C 3.226562 -1.117188 2.476562 -1.875 1.9375 -2.84375 C 1.394531 -3.8125 1.125 -4.925781 1.125 -6.1875 C 1.125 -7.4375 1.394531 -8.546875 1.9375 -9.515625 C 2.476562 -10.484375 3.226562 -11.238281 4.1875 -11.78125 C 5.144531 -12.320312 6.25 -12.59375 7.5 -12.59375 C 8.757812 -12.59375 9.867188 -12.320312 10.828125 -11.78125 C 11.785156 -11.238281 12.53125 -10.484375 13.0625 -9.515625 C 13.601562 -8.546875 13.875 -7.4375 13.875 -6.1875 C 13.875 -4.925781 13.601562 -3.8125 13.0625 -2.84375 C 12.53125 -1.875 11.785156 -1.117188 10.828125 -0.578125 C 9.867188 -0.0351562 8.757812 0.234375 7.5 0.234375 Z M 2.21875 -6.1875 C 2.21875 -5.132812 2.441406 -4.203125 2.890625 -3.390625 C 3.335938 -2.585938 3.957031 -1.960938 4.75 -1.515625 C 5.550781 -1.066406 6.46875 -0.84375 7.5 -0.84375 C 8.550781 -0.84375 9.472656 -1.066406 10.265625 -1.515625 C 11.054688 -1.960938 11.675781 -2.585938 12.125 -3.390625 C 12.570312 -4.203125 12.796875 -5.132812 12.796875 -6.1875 C 12.796875 -7.238281 12.570312 -8.164062 12.125 -8.96875 C 11.675781 -9.769531 11.054688 -10.394531 10.265625 -10.84375 C 9.472656 -11.289062 8.550781 -11.515625 7.5 -11.515625 C 6.46875 -11.515625 5.550781 -11.289062 4.75 -10.84375 C 3.957031 -10.394531 3.335938 -9.769531 2.890625 -8.96875 C 2.441406 -8.164062 2.21875 -7.238281 2.21875 -6.1875 Z M 2.21875 -6.1875 "/></g></g></g><g fill="#000000" fill-opacity="1"><g transform="translate(265.070805, 313.966493)"><g><path d="M 2 0 L 2 -12.359375 L 3 -12.359375 L 10.515625 -1.859375 L 10.515625 -12.359375 L 11.578125 -12.359375 L 11.578125 0 L 10.578125 0 L 3.046875 -10.515625 L 3.046875 0 Z M 2 0 "/></g></g></g></svg>