<svg xmlns="http://www.w3.org/2000/svg" xmlns:xlink="http://www.w3.org/1999/xlink" width="500" zoomAndPan="magnify" viewBox="0 0 375 374.999991" height="500" preserveAspectRatio="xMidYMid meet" version="1.0"><defs><g/><clipPath id="212152e866"><path d="M 37.5 24.304688 L 363.75 24.304688 L 363.75 350.554688 L 37.5 350.554688 Z M 37.5 24.304688 " clip-rule="nonzero"/></clipPath><clipPath id="5b100250eb"><path d="M 208 71.015625 L 239 71.015625 L 239 101 L 208 101 Z M 208 71.015625 " clip-rule="nonzero"/></clipPath></defs><g clip-path="url(#212152e866)"><path fill="#e3ebf2" d="M 200.6875 24.304688 C 110.703125 24.304688 37.5 97.507812 37.5 187.496094 C 37.5 277.480469 110.703125 350.683594 200.6875 350.683594 C 290.675781 350.683594 363.878906 277.480469 363.878906 187.496094 C 363.878906 97.507812 290.675781 24.304688 200.6875 24.304688 " fill-opacity="1" fill-rule="nonzero"/></g><path fill="#272727" d="M 139.941406 119.492188 C 140.804688 114.09375 142.996094 111.0625 145.140625 109.359375 C 146.386719 108.371094 148.074219 109.761719 147.359375 111.1875 C 143.738281 118.378906 145.824219 127.859375 149.730469 136.773438 C 145.367188 131.308594 141.648438 125.351562 139.941406 119.492188 " fill-opacity="1" fill-rule="nonzero"/><path fill="#272727" d="M 194.144531 159.742188 C 188.730469 154.789062 173.398438 142.023438 173.179688 134.328125 C 172.960938 126.628906 159.769531 135.832031 173.320312 153.429688 C 173.320312 153.429688 131.597656 135.855469 138.921875 105.738281 C 139.339844 104.011719 136.460938 103.503906 135.773438 105.144531 C 132.789062 112.238281 123.03125 131.222656 157.710938 162.980469 C 181.597656 184.859375 192.753906 186.875 195.148438 205.808594 C 195.148438 205.808594 215.632812 179.375 194.144531 159.742188 " fill-opacity="1" fill-rule="nonzero"/><path fill="#272727" d="M 146.679688 119.617188 C 146.636719 124.867188 148.347656 130.675781 150.832031 136.320312 C 149.292969 129.492188 149.296875 122.867188 152.359375 117.726562 C 153.175781 116.359375 151.59375 114.851562 150.277344 115.75 C 149.050781 116.585938 147.78125 117.816406 146.679688 119.617188 " fill-opacity="1" fill-rule="nonzero"/><path fill="#ed0e64" d="M 245.910156 102.152344 C 233.101562 93.910156 214.3125 95.117188 192.703125 105.480469 C 176.976562 96.734375 157.125 97.234375 157.125 97.234375 C 186.609375 106.6875 192.800781 123.234375 192.800781 123.234375 C 208.417969 112.125 228.976562 110.273438 237.320312 115.496094 C 259.710938 129.5 232.394531 180.941406 204.765625 200.890625 C 243.535156 178.871094 258.636719 151.007812 259.652344 131.480469 C 260.308594 118.886719 255.300781 108.199219 245.910156 102.152344 " fill-opacity="1" fill-rule="nonzero"/><g clip-path="url(#5b100250eb)"><path fill="#ed0e64" d="M 238.261719 85.96875 C 238.261719 94.210938 231.582031 100.894531 223.339844 100.894531 C 215.097656 100.894531 208.417969 94.210938 208.417969 85.96875 C 208.417969 77.730469 215.097656 71.046875 223.339844 71.046875 C 231.582031 71.046875 238.261719 77.730469 238.261719 85.96875 " fill-opacity="1" fill-rule="nonzero"/></g><g fill="#ed0e64" fill-opacity="1"><g transform="translate(57.815397, 250.093874)"><g><path d="M 21.1875 0.765625 C 18.445312 0.765625 15.910156 0.296875 13.578125 -0.640625 C 11.242188 -1.585938 9.210938 -2.90625 7.484375 -4.59375 C 5.753906 -6.289062 4.40625 -8.28125 3.4375 -10.5625 C 2.476562 -12.84375 2 -15.320312 2 -18 C 2 -20.675781 2.476562 -23.148438 3.4375 -25.421875 C 4.40625 -27.703125 5.753906 -29.691406 7.484375 -31.390625 C 9.210938 -33.085938 11.242188 -34.40625 13.578125 -35.34375 C 15.910156 -36.289062 18.445312 -36.765625 21.1875 -36.765625 C 23.925781 -36.765625 26.460938 -36.289062 28.796875 -35.34375 C 31.128906 -34.40625 33.148438 -33.085938 34.859375 -31.390625 C 36.578125 -29.691406 37.914062 -27.703125 38.875 -25.421875 C 39.832031 -23.148438 40.3125 -20.675781 40.3125 -18 C 40.3125 -15.320312 39.832031 -12.84375 38.875 -10.5625 C 37.914062 -8.28125 36.578125 -6.289062 34.859375 -4.59375 C 33.148438 -2.90625 31.128906 -1.585938 28.796875 -0.640625 C 26.460938 0.296875 23.925781 0.765625 21.1875 0.765625 Z M 21.1875 -6.578125 C 23.34375 -6.578125 25.269531 -7.070312 26.96875 -8.0625 C 28.664062 -9.0625 30.003906 -10.414062 30.984375 -12.125 C 31.960938 -13.84375 32.453125 -15.800781 32.453125 -18 C 32.453125 -20.15625 31.960938 -22.097656 30.984375 -23.828125 C 30.003906 -25.566406 28.664062 -26.929688 26.96875 -27.921875 C 25.269531 -28.910156 23.34375 -29.40625 21.1875 -29.40625 C 19.0625 -29.40625 17.140625 -28.910156 15.421875 -27.921875 C 13.710938 -26.929688 12.359375 -25.566406 11.359375 -23.828125 C 10.367188 -22.097656 9.875 -20.15625 9.875 -18 C 9.875 -15.84375 10.367188 -13.894531 11.359375 -12.15625 C 12.359375 -10.425781 13.710938 -9.0625 15.421875 -8.0625 C 17.140625 -7.070312 19.0625 -6.578125 21.1875 -6.578125 Z M 21.1875 -6.578125 "/></g></g></g><g fill="#ed0e64" fill-opacity="1"><g transform="translate(97.20417, 250.093874)"><g><path d="M 18.765625 -28.546875 C 21.546875 -28.546875 24.03125 -27.910156 26.21875 -26.640625 C 28.414062 -25.367188 30.148438 -23.625 31.421875 -21.40625 C 32.691406 -19.195312 33.328125 -16.691406 33.328125 -13.890625 C 33.328125 -11.078125 32.691406 -8.5625 31.421875 -6.34375 C 30.148438 -4.132812 28.414062 -2.382812 26.21875 -1.09375 C 24.03125 0.1875 21.546875 0.828125 18.765625 0.828125 C 17.328125 0.828125 15.957031 0.617188 14.65625 0.203125 C 13.351562 -0.203125 12.171875 -0.765625 11.109375 -1.484375 L 11.109375 10.03125 L 3.59375 10.03125 L 3.59375 -27.765625 L 8.59375 -27.765625 L 9.875 -25.25 C 11.039062 -26.28125 12.375 -27.085938 13.875 -27.671875 C 15.382812 -28.253906 17.015625 -28.546875 18.765625 -28.546875 Z M 18.15625 -6.28125 C 19.59375 -6.28125 20.882812 -6.613281 22.03125 -7.28125 C 23.175781 -7.945312 24.078125 -8.851562 24.734375 -10 C 25.390625 -11.144531 25.71875 -12.441406 25.71875 -13.890625 C 25.71875 -15.328125 25.390625 -16.617188 24.734375 -17.765625 C 24.078125 -18.910156 23.175781 -19.816406 22.03125 -20.484375 C 20.882812 -21.160156 19.59375 -21.5 18.15625 -21.5 C 16.675781 -21.5 15.367188 -21.160156 14.234375 -20.484375 C 13.109375 -19.816406 12.21875 -18.910156 11.5625 -17.765625 C 10.914062 -16.617188 10.59375 -15.328125 10.59375 -13.890625 C 10.59375 -12.441406 10.914062 -11.144531 11.5625 -10 C 12.21875 -8.851562 13.109375 -7.945312 14.234375 -7.28125 C 15.367188 -6.613281 16.675781 -6.28125 18.15625 -6.28125 Z M 18.15625 -6.28125 "/></g></g></g><g fill="#ed0e64" fill-opacity="1"><g transform="translate(129.342477, 250.093874)"><g><path d="M 30.546875 -13.984375 C 30.546875 -13.265625 30.492188 -12.53125 30.390625 -11.78125 L 9.40625 -11.78125 C 9.71875 -9.894531 10.472656 -8.441406 11.671875 -7.421875 C 12.867188 -6.410156 14.378906 -5.90625 16.203125 -5.90625 C 17.503906 -5.90625 18.664062 -6.1875 19.6875 -6.75 C 20.71875 -7.320312 21.507812 -8.109375 22.0625 -9.109375 L 29.984375 -9.109375 C 28.953125 -6.085938 27.203125 -3.6875 24.734375 -1.90625 C 22.265625 -0.125 19.421875 0.765625 16.203125 0.765625 C 13.453125 0.765625 10.988281 0.125 8.8125 -1.15625 C 6.632812 -2.4375 4.921875 -4.179688 3.671875 -6.390625 C 2.421875 -8.609375 1.796875 -11.109375 1.796875 -13.890625 C 1.796875 -16.660156 2.421875 -19.148438 3.671875 -21.359375 C 4.921875 -23.578125 6.632812 -25.328125 8.8125 -26.609375 C 10.988281 -27.898438 13.453125 -28.546875 16.203125 -28.546875 C 19.046875 -28.546875 21.546875 -27.882812 23.703125 -26.5625 C 25.859375 -25.238281 27.535156 -23.476562 28.734375 -21.28125 C 29.941406 -19.09375 30.546875 -16.660156 30.546875 -13.984375 Z M 16.203125 -22.15625 C 14.515625 -22.15625 13.097656 -21.691406 11.953125 -20.765625 C 10.804688 -19.847656 10.023438 -18.566406 9.609375 -16.921875 L 23.03125 -16.921875 C 21.9375 -20.410156 19.660156 -22.15625 16.203125 -22.15625 Z M 16.203125 -22.15625 "/></g></g></g><g fill="#ed0e64" fill-opacity="1"><g transform="translate(158.704005, 250.093874)"><g><path d="M 19.4375 -28.4375 C 22.59375 -28.4375 25.085938 -27.378906 26.921875 -25.265625 C 28.753906 -23.160156 29.671875 -20.34375 29.671875 -16.8125 L 29.671875 0 L 22.15625 0 L 22.15625 -15.625 C 22.15625 -19.78125 20.546875 -21.859375 17.328125 -21.859375 C 15.410156 -21.859375 13.894531 -21.207031 12.78125 -19.90625 C 11.664062 -18.601562 11.109375 -16.835938 11.109375 -14.609375 L 11.109375 0 L 3.59375 0 L 3.59375 -27.765625 L 8.734375 -27.765625 L 10.234375 -24.328125 C 11.265625 -25.585938 12.582031 -26.585938 14.1875 -27.328125 C 15.800781 -28.066406 17.550781 -28.4375 19.4375 -28.4375 Z M 19.4375 -28.4375 "/></g></g></g><g fill="#242424" fill-opacity="1"><g transform="translate(196.427615, 250.598366)"><g><path d="M 28.078125 -36 L 32.546875 -36 L 32.546875 0 L 28.078125 0 L 28.078125 -16.359375 L 9.40625 -16.359375 L 9.40625 0 L 4.9375 0 L 4.9375 -36 L 9.40625 -36 L 9.40625 -20.671875 L 28.078125 -20.671875 Z M 28.078125 -36 "/></g></g></g><g fill="#242424" fill-opacity="1"><g transform="translate(230.982737, 250.598366)"><g><path d="M 30.390625 -13.78125 C 30.390625 -13.507812 30.367188 -13.242188 30.328125 -12.984375 C 30.296875 -12.722656 30.28125 -12.457031 30.28125 -12.1875 L 6.578125 -12.1875 C 6.921875 -9.613281 7.984375 -7.546875 9.765625 -5.984375 C 11.546875 -4.429688 13.742188 -3.65625 16.359375 -3.65625 C 18.273438 -3.65625 19.984375 -4.082031 21.484375 -4.9375 C 22.992188 -5.789062 24.179688 -6.972656 25.046875 -8.484375 L 29.625 -8.484375 C 28.457031 -5.609375 26.707031 -3.375 24.375 -1.78125 C 22.039062 -0.1875 19.367188 0.609375 16.359375 0.609375 C 13.679688 0.609375 11.269531 -0.0195312 9.125 -1.28125 C 6.976562 -2.550781 5.289062 -4.28125 4.0625 -6.46875 C 2.832031 -8.664062 2.21875 -11.140625 2.21875 -13.890625 C 2.21875 -16.628906 2.832031 -19.09375 4.0625 -21.28125 C 5.289062 -23.476562 6.976562 -25.210938 9.125 -26.484375 C 11.269531 -27.753906 13.679688 -28.390625 16.359375 -28.390625 C 19.160156 -28.390625 21.613281 -27.738281 23.71875 -26.4375 C 25.832031 -25.132812 27.472656 -23.375 28.640625 -21.15625 C 29.804688 -18.945312 30.390625 -16.488281 30.390625 -13.78125 Z M 16.359375 -24.21875 C 13.847656 -24.21875 11.726562 -23.488281 10 -22.03125 C 8.269531 -20.570312 7.164062 -18.644531 6.6875 -16.25 L 25.96875 -16.25 C 25.519531 -18.71875 24.421875 -20.660156 22.671875 -22.078125 C 20.921875 -23.503906 18.816406 -24.21875 16.359375 -24.21875 Z M 16.359375 -24.21875 "/></g></g></g><g fill="#242424" fill-opacity="1"><g transform="translate(260.549953, 250.598366)"><g><path d="M 28.078125 -27.765625 L 31.578125 -27.765625 L 31.578125 0 L 27.921875 0 L 27.453125 -4.21875 C 26.191406 -2.707031 24.625 -1.523438 22.75 -0.671875 C 20.882812 0.179688 18.820312 0.609375 16.5625 0.609375 C 13.851562 0.609375 11.410156 -0.0195312 9.234375 -1.28125 C 7.054688 -2.550781 5.34375 -4.28125 4.09375 -6.46875 C 2.84375 -8.664062 2.21875 -11.140625 2.21875 -13.890625 C 2.21875 -16.660156 2.84375 -19.132812 4.09375 -21.3125 C 5.34375 -23.488281 7.054688 -25.210938 9.234375 -26.484375 C 11.410156 -27.753906 13.851562 -28.390625 16.5625 -28.390625 C 18.851562 -28.390625 20.929688 -27.953125 22.796875 -27.078125 C 24.671875 -26.203125 26.242188 -25.007812 27.515625 -23.5 Z M 16.921875 -3.59375 C 18.867188 -3.59375 20.613281 -4.039062 22.15625 -4.9375 C 23.707031 -5.832031 24.914062 -7.054688 25.78125 -8.609375 C 26.65625 -10.171875 27.09375 -11.929688 27.09375 -13.890625 C 27.09375 -15.835938 26.65625 -17.59375 25.78125 -19.15625 C 24.914062 -20.71875 23.707031 -21.941406 22.15625 -22.828125 C 20.613281 -23.722656 18.867188 -24.171875 16.921875 -24.171875 C 14.960938 -24.171875 13.210938 -23.710938 11.671875 -22.796875 C 10.128906 -21.890625 8.910156 -20.664062 8.015625 -19.125 C 7.128906 -17.582031 6.6875 -15.835938 6.6875 -13.890625 C 6.6875 -11.929688 7.128906 -10.179688 8.015625 -8.640625 C 8.910156 -7.097656 10.128906 -5.867188 11.671875 -4.953125 C 13.210938 -4.046875 14.960938 -3.59375 16.921875 -3.59375 Z M 16.921875 -3.59375 "/></g></g></g><g fill="#242424" fill-opacity="1"><g transform="translate(293.562425, 250.598366)"><g><path d="M 17.078125 -27.921875 L 19.546875 -27.921875 L 19.546875 -23.75 L 16.71875 -23.75 C 14.175781 -23.75 12.21875 -22.976562 10.84375 -21.4375 C 9.476562 -19.894531 8.796875 -17.769531 8.796875 -15.0625 L 8.796875 0 L 4.421875 0 L 4.421875 -27.765625 L 7.5 -27.765625 L 8.234375 -23.546875 C 9.222656 -24.953125 10.445312 -26.03125 11.90625 -26.78125 C 13.363281 -27.539062 15.085938 -27.921875 17.078125 -27.921875 Z M 17.078125 -27.921875 "/></g></g></g><g fill="#242424" fill-opacity="1"><g transform="translate(310.479888, 250.598366)"><g><path d="M 15.890625 -4.0625 L 18.921875 -4.0625 L 18.921875 0 L 15.328125 0 C 12.335938 0 9.984375 -0.863281 8.265625 -2.59375 C 6.554688 -4.320312 5.703125 -6.695312 5.703125 -9.71875 L 5.703125 -23.8125 L 0.828125 -23.8125 L 0.828125 -24.578125 L 9.40625 -33.625 L 10.078125 -33.625 L 10.078125 -27.765625 L 18.765625 -27.765625 L 18.765625 -23.8125 L 10.078125 -23.8125 L 10.078125 -9.875 C 10.078125 -7.988281 10.570312 -6.546875 11.5625 -5.546875 C 12.5625 -4.554688 14.003906 -4.0625 15.890625 -4.0625 Z M 15.890625 -4.0625 "/></g></g></g><g fill="#272727" fill-opacity="1"><g transform="translate(115.005066, 274.835535)"><g><path d="M 9.5 0 L 9.5 -5.328125 L 3.21875 -5.328125 L 3.21875 0 L 1.71875 0 L 1.71875 -11.84375 L 3.21875 -11.84375 L 3.21875 -6.75 L 9.5 -6.75 L 9.5 -11.84375 L 10.984375 -11.84375 L 10.984375 0 Z M 9.5 0 "/></g></g></g><g fill="#272727" fill-opacity="1"><g transform="translate(127.706229, 274.835535)"><g><path d="M 5.078125 0.21875 C 3.921875 0.21875 3.019531 -0.148438 2.375 -0.890625 C 1.726562 -1.640625 1.40625 -2.640625 1.40625 -3.890625 L 1.40625 -8.78125 L 2.828125 -8.78125 L 2.828125 -4.03125 C 2.828125 -3.144531 3.039062 -2.441406 3.46875 -1.921875 C 3.90625 -1.410156 4.503906 -1.15625 5.265625 -1.15625 C 6.085938 -1.15625 6.753906 -1.445312 7.265625 -2.03125 C 7.773438 -2.613281 8.03125 -3.382812 8.03125 -4.34375 L 8.03125 -8.78125 L 9.453125 -8.78125 L 9.453125 0 L 8.296875 0 L 8.140625 -1.28125 C 7.753906 -0.757812 7.289062 -0.378906 6.75 -0.140625 C 6.21875 0.0976562 5.660156 0.21875 5.078125 0.21875 Z M 5.078125 0.21875 "/></g></g></g><g fill="#272727" fill-opacity="1"><g transform="translate(138.733072, 274.835535)"><g><path d="M 1.578125 0 L 1.578125 -8.78125 L 2.734375 -8.78125 L 2.875 -7.6875 C 3.550781 -8.5625 4.503906 -9 5.734375 -9 C 6.429688 -9 7.046875 -8.851562 7.578125 -8.5625 C 8.109375 -8.269531 8.519531 -7.84375 8.8125 -7.28125 C 9.519531 -8.425781 10.609375 -9 12.078125 -9 C 13.179688 -9 14.0625 -8.644531 14.71875 -7.9375 C 15.382812 -7.226562 15.71875 -6.257812 15.71875 -5.03125 L 15.71875 0 L 14.296875 0 L 14.296875 -4.78125 C 14.296875 -5.65625 14.078125 -6.351562 13.640625 -6.875 C 13.210938 -7.394531 12.628906 -7.65625 11.890625 -7.65625 C 11.140625 -7.65625 10.53125 -7.382812 10.0625 -6.84375 C 9.59375 -6.300781 9.359375 -5.578125 9.359375 -4.671875 L 9.359375 0 L 7.9375 0 L 7.9375 -4.78125 C 7.9375 -5.65625 7.71875 -6.351562 7.28125 -6.875 C 6.851562 -7.394531 6.269531 -7.65625 5.53125 -7.65625 C 4.78125 -7.65625 4.171875 -7.382812 3.703125 -6.84375 C 3.234375 -6.300781 3 -5.578125 3 -4.671875 L 3 0 Z M 1.578125 0 "/></g></g></g><g fill="#272727" fill-opacity="1"><g transform="translate(155.848362, 274.835535)"><g><path d="M 4.453125 0.140625 C 3.390625 0.140625 2.554688 -0.0976562 1.953125 -0.578125 C 1.359375 -1.054688 1.0625 -1.707031 1.0625 -2.53125 C 1.0625 -3.332031 1.335938 -3.96875 1.890625 -4.4375 C 2.441406 -4.914062 3.175781 -5.15625 4.09375 -5.15625 L 7.6875 -5.15625 L 7.6875 -5.484375 C 7.6875 -6.171875 7.46875 -6.707031 7.03125 -7.09375 C 6.601562 -7.488281 6.019531 -7.6875 5.28125 -7.6875 C 4.71875 -7.6875 4.226562 -7.554688 3.8125 -7.296875 C 3.394531 -7.046875 3.113281 -6.707031 2.96875 -6.28125 L 1.515625 -6.28125 C 1.710938 -7.125 2.144531 -7.785156 2.8125 -8.265625 C 3.488281 -8.753906 4.304688 -9 5.265625 -9 C 6.023438 -9 6.691406 -8.851562 7.265625 -8.5625 C 7.847656 -8.28125 8.300781 -7.878906 8.625 -7.359375 C 8.945312 -6.847656 9.109375 -6.253906 9.109375 -5.578125 L 9.109375 0 L 7.9375 0 L 7.78125 -1.21875 C 6.976562 -0.3125 5.867188 0.140625 4.453125 0.140625 Z M 2.484375 -2.5625 C 2.484375 -2.125 2.664062 -1.773438 3.03125 -1.515625 C 3.394531 -1.265625 3.882812 -1.140625 4.5 -1.140625 C 5.113281 -1.140625 5.65625 -1.253906 6.125 -1.484375 C 6.601562 -1.722656 6.984375 -2.050781 7.265625 -2.46875 C 7.546875 -2.882812 7.691406 -3.363281 7.703125 -3.90625 L 4.140625 -3.90625 C 3.660156 -3.90625 3.265625 -3.785156 2.953125 -3.546875 C 2.640625 -3.304688 2.484375 -2.976562 2.484375 -2.5625 Z M 2.484375 -2.5625 "/></g></g></g><g fill="#272727" fill-opacity="1"><g transform="translate(166.334017, 274.835535)"><g><path d="M 1.578125 0 L 1.578125 -8.78125 L 2.734375 -8.78125 L 2.890625 -7.5 C 3.273438 -8.03125 3.738281 -8.410156 4.28125 -8.640625 C 4.832031 -8.878906 5.398438 -9 5.984375 -9 C 7.160156 -9 8.078125 -8.625 8.734375 -7.875 C 9.390625 -7.132812 9.71875 -6.140625 9.71875 -4.890625 L 9.71875 0 L 8.296875 0 L 8.296875 -4.75 C 8.296875 -5.644531 8.070312 -6.351562 7.625 -6.875 C 7.175781 -7.394531 6.566406 -7.65625 5.796875 -7.65625 C 5.253906 -7.65625 4.769531 -7.519531 4.34375 -7.25 C 3.925781 -6.988281 3.597656 -6.613281 3.359375 -6.125 C 3.117188 -5.632812 3 -5.070312 3 -4.4375 L 3 0 Z M 1.578125 0 "/></g></g></g><g fill="#272727" fill-opacity="1"><g transform="translate(177.445427, 274.835535)"><g><path d="M 1.578125 0 L 1.578125 -8.78125 L 3 -8.78125 L 3 0 Z M 1.140625 -11.34375 C 1.140625 -11.664062 1.242188 -11.929688 1.453125 -12.140625 C 1.660156 -12.347656 1.9375 -12.453125 2.28125 -12.453125 C 2.632812 -12.453125 2.910156 -12.347656 3.109375 -12.140625 C 3.316406 -11.929688 3.421875 -11.664062 3.421875 -11.34375 C 3.421875 -11.019531 3.316406 -10.753906 3.109375 -10.546875 C 2.910156 -10.335938 2.632812 -10.234375 2.28125 -10.234375 C 1.9375 -10.234375 1.660156 -10.335938 1.453125 -10.546875 C 1.242188 -10.753906 1.140625 -11.019531 1.140625 -11.34375 Z M 1.140625 -11.34375 "/></g></g></g><g fill="#272727" fill-opacity="1"><g transform="translate(182.011755, 274.835535)"><g><path d="M 5.359375 0 C 4.390625 0 3.632812 -0.273438 3.09375 -0.828125 C 2.5625 -1.378906 2.296875 -2.160156 2.296875 -3.171875 L 2.296875 -7.484375 L 0.453125 -7.484375 L 0.453125 -8.78125 L 1.34375 -8.78125 C 1.75 -8.78125 2.03125 -8.847656 2.1875 -8.984375 C 2.34375 -9.117188 2.441406 -9.382812 2.484375 -9.78125 L 2.625 -10.96875 L 3.71875 -10.96875 L 3.71875 -8.78125 L 6.5625 -8.78125 L 6.5625 -7.484375 L 3.71875 -7.484375 L 3.71875 -3.234375 C 3.71875 -1.992188 4.289062 -1.375 5.4375 -1.375 L 6.6875 -1.375 L 6.6875 0 Z M 5.359375 0 "/></g></g></g><g fill="#272727" fill-opacity="1"><g transform="translate(189.520835, 274.835535)"><g><path d="M 4.453125 0.140625 C 3.390625 0.140625 2.554688 -0.0976562 1.953125 -0.578125 C 1.359375 -1.054688 1.0625 -1.707031 1.0625 -2.53125 C 1.0625 -3.332031 1.335938 -3.96875 1.890625 -4.4375 C 2.441406 -4.914062 3.175781 -5.15625 4.09375 -5.15625 L 7.6875 -5.15625 L 7.6875 -5.484375 C 7.6875 -6.171875 7.46875 -6.707031 7.03125 -7.09375 C 6.601562 -7.488281 6.019531 -7.6875 5.28125 -7.6875 C 4.71875 -7.6875 4.226562 -7.554688 3.8125 -7.296875 C 3.394531 -7.046875 3.113281 -6.707031 2.96875 -6.28125 L 1.515625 -6.28125 C 1.710938 -7.125 2.144531 -7.785156 2.8125 -8.265625 C 3.488281 -8.753906 4.304688 -9 5.265625 -9 C 6.023438 -9 6.691406 -8.851562 7.265625 -8.5625 C 7.847656 -8.28125 8.300781 -7.878906 8.625 -7.359375 C 8.945312 -6.847656 9.109375 -6.253906 9.109375 -5.578125 L 9.109375 0 L 7.9375 0 L 7.78125 -1.21875 C 6.976562 -0.3125 5.867188 0.140625 4.453125 0.140625 Z M 2.484375 -2.5625 C 2.484375 -2.125 2.664062 -1.773438 3.03125 -1.515625 C 3.394531 -1.265625 3.882812 -1.140625 4.5 -1.140625 C 5.113281 -1.140625 5.65625 -1.253906 6.125 -1.484375 C 6.601562 -1.722656 6.984375 -2.050781 7.265625 -2.46875 C 7.546875 -2.882812 7.691406 -3.363281 7.703125 -3.90625 L 4.140625 -3.90625 C 3.660156 -3.90625 3.265625 -3.785156 2.953125 -3.546875 C 2.640625 -3.304688 2.484375 -2.976562 2.484375 -2.5625 Z M 2.484375 -2.5625 "/></g></g></g><g fill="#272727" fill-opacity="1"><g transform="translate(200.00649, 274.835535)"><g><path d="M 1.578125 0 L 1.578125 -8.78125 L 2.734375 -8.78125 L 2.90625 -7.265625 C 3.226562 -7.796875 3.617188 -8.179688 4.078125 -8.421875 C 4.546875 -8.660156 5.15625 -8.78125 5.90625 -8.78125 L 6.703125 -8.78125 L 6.703125 -7.46875 L 5.84375 -7.46875 C 5.3125 -7.46875 4.828125 -7.359375 4.390625 -7.140625 C 3.960938 -6.921875 3.625 -6.5625 3.375 -6.0625 C 3.125 -5.570312 3 -4.910156 3 -4.078125 L 3 0 Z M 1.578125 0 "/></g></g></g><g fill="#272727" fill-opacity="1"><g transform="translate(207.380273, 274.835535)"><g><path d="M 1.578125 0 L 1.578125 -8.78125 L 3 -8.78125 L 3 0 Z M 1.140625 -11.34375 C 1.140625 -11.664062 1.242188 -11.929688 1.453125 -12.140625 C 1.660156 -12.347656 1.9375 -12.453125 2.28125 -12.453125 C 2.632812 -12.453125 2.910156 -12.347656 3.109375 -12.140625 C 3.316406 -11.929688 3.421875 -11.664062 3.421875 -11.34375 C 3.421875 -11.019531 3.316406 -10.753906 3.109375 -10.546875 C 2.910156 -10.335938 2.632812 -10.234375 2.28125 -10.234375 C 1.9375 -10.234375 1.660156 -10.335938 1.453125 -10.546875 C 1.242188 -10.753906 1.140625 -11.019531 1.140625 -11.34375 Z M 1.140625 -11.34375 "/></g></g></g><g fill="#272727" fill-opacity="1"><g transform="translate(211.946601, 274.835535)"><g><path d="M 4.453125 0.140625 C 3.390625 0.140625 2.554688 -0.0976562 1.953125 -0.578125 C 1.359375 -1.054688 1.0625 -1.707031 1.0625 -2.53125 C 1.0625 -3.332031 1.335938 -3.96875 1.890625 -4.4375 C 2.441406 -4.914062 3.175781 -5.15625 4.09375 -5.15625 L 7.6875 -5.15625 L 7.6875 -5.484375 C 7.6875 -6.171875 7.46875 -6.707031 7.03125 -7.09375 C 6.601562 -7.488281 6.019531 -7.6875 5.28125 -7.6875 C 4.71875 -7.6875 4.226562 -7.554688 3.8125 -7.296875 C 3.394531 -7.046875 3.113281 -6.707031 2.96875 -6.28125 L 1.515625 -6.28125 C 1.710938 -7.125 2.144531 -7.785156 2.8125 -8.265625 C 3.488281 -8.753906 4.304688 -9 5.265625 -9 C 6.023438 -9 6.691406 -8.851562 7.265625 -8.5625 C 7.847656 -8.28125 8.300781 -7.878906 8.625 -7.359375 C 8.945312 -6.847656 9.109375 -6.253906 9.109375 -5.578125 L 9.109375 0 L 7.9375 0 L 7.78125 -1.21875 C 6.976562 -0.3125 5.867188 0.140625 4.453125 0.140625 Z M 2.484375 -2.5625 C 2.484375 -2.125 2.664062 -1.773438 3.03125 -1.515625 C 3.394531 -1.265625 3.882812 -1.140625 4.5 -1.140625 C 5.113281 -1.140625 5.65625 -1.253906 6.125 -1.484375 C 6.601562 -1.722656 6.984375 -2.050781 7.265625 -2.46875 C 7.546875 -2.882812 7.691406 -3.363281 7.703125 -3.90625 L 4.140625 -3.90625 C 3.660156 -3.90625 3.265625 -3.785156 2.953125 -3.546875 C 2.640625 -3.304688 2.484375 -2.976562 2.484375 -2.5625 Z M 2.484375 -2.5625 "/></g></g></g><g fill="#272727" fill-opacity="1"><g transform="translate(222.432256, 274.835535)"><g><path d="M 1.578125 0 L 1.578125 -8.78125 L 2.734375 -8.78125 L 2.890625 -7.5 C 3.273438 -8.03125 3.738281 -8.410156 4.28125 -8.640625 C 4.832031 -8.878906 5.398438 -9 5.984375 -9 C 7.160156 -9 8.078125 -8.625 8.734375 -7.875 C 9.390625 -7.132812 9.71875 -6.140625 9.71875 -4.890625 L 9.71875 0 L 8.296875 0 L 8.296875 -4.75 C 8.296875 -5.644531 8.070312 -6.351562 7.625 -6.875 C 7.175781 -7.394531 6.566406 -7.65625 5.796875 -7.65625 C 5.253906 -7.65625 4.769531 -7.519531 4.34375 -7.25 C 3.925781 -6.988281 3.597656 -6.613281 3.359375 -6.125 C 3.117188 -5.632812 3 -5.070312 3 -4.4375 L 3 0 Z M 1.578125 0 "/></g></g></g><g fill="#272727" fill-opacity="1"><g transform="translate(233.543666, 274.835535)"><g/></g></g><g fill="#272727" fill-opacity="1"><g transform="translate(237.737928, 274.835535)"><g><path d="M 2.421875 -9.671875 C 2.421875 -10.679688 2.679688 -11.441406 3.203125 -11.953125 C 3.734375 -12.472656 4.492188 -12.734375 5.484375 -12.734375 L 6.984375 -12.734375 L 6.984375 -11.40625 L 5.625 -11.40625 C 5 -11.40625 4.546875 -11.257812 4.265625 -10.96875 C 3.984375 -10.6875 3.84375 -10.226562 3.84375 -9.59375 L 3.84375 -8.78125 L 6.90625 -8.78125 L 6.90625 -7.484375 L 3.84375 -7.484375 L 3.84375 0 L 2.421875 0 L 2.421875 -7.484375 L 0.5 -7.484375 L 0.5 -8.78125 L 2.421875 -8.78125 Z M 2.421875 -9.671875 "/></g></g></g><g fill="#272727" fill-opacity="1"><g transform="translate(244.891846, 274.835535)"><g><path d="M 5.078125 0.21875 C 3.921875 0.21875 3.019531 -0.148438 2.375 -0.890625 C 1.726562 -1.640625 1.40625 -2.640625 1.40625 -3.890625 L 1.40625 -8.78125 L 2.828125 -8.78125 L 2.828125 -4.03125 C 2.828125 -3.144531 3.039062 -2.441406 3.46875 -1.921875 C 3.90625 -1.410156 4.503906 -1.15625 5.265625 -1.15625 C 6.085938 -1.15625 6.753906 -1.445312 7.265625 -2.03125 C 7.773438 -2.613281 8.03125 -3.382812 8.03125 -4.34375 L 8.03125 -8.78125 L 9.453125 -8.78125 L 9.453125 0 L 8.296875 0 L 8.140625 -1.28125 C 7.753906 -0.757812 7.289062 -0.378906 6.75 -0.140625 C 6.21875 0.0976562 5.660156 0.21875 5.078125 0.21875 Z M 5.078125 0.21875 "/></g></g></g><g fill="#272727" fill-opacity="1"><g transform="translate(255.918688, 274.835535)"><g><path d="M 1.578125 0 L 1.578125 -8.78125 L 2.734375 -8.78125 L 2.890625 -7.5 C 3.273438 -8.03125 3.738281 -8.410156 4.28125 -8.640625 C 4.832031 -8.878906 5.398438 -9 5.984375 -9 C 7.160156 -9 8.078125 -8.625 8.734375 -7.875 C 9.390625 -7.132812 9.71875 -6.140625 9.71875 -4.890625 L 9.71875 0 L 8.296875 0 L 8.296875 -4.75 C 8.296875 -5.644531 8.070312 -6.351562 7.625 -6.875 C 7.175781 -7.394531 6.566406 -7.65625 5.796875 -7.65625 C 5.253906 -7.65625 4.769531 -7.519531 4.34375 -7.25 C 3.925781 -6.988281 3.597656 -6.613281 3.359375 -6.125 C 3.117188 -5.632812 3 -5.070312 3 -4.4375 L 3 0 Z M 1.578125 0 "/></g></g></g><g fill="#272727" fill-opacity="1"><g transform="translate(267.030099, 274.835535)"><g><path d="M 5.359375 0.21875 C 4.492188 0.21875 3.722656 0.0195312 3.046875 -0.375 C 2.367188 -0.78125 1.835938 -1.328125 1.453125 -2.015625 C 1.066406 -2.710938 0.875 -3.507812 0.875 -4.40625 C 0.875 -5.289062 1.066406 -6.078125 1.453125 -6.765625 C 1.835938 -7.453125 2.367188 -7.992188 3.046875 -8.390625 C 3.722656 -8.796875 4.492188 -9 5.359375 -9 C 6.046875 -9 6.675781 -8.867188 7.25 -8.609375 C 7.832031 -8.359375 8.320312 -8.003906 8.71875 -7.546875 L 8.71875 -12.515625 L 10.140625 -12.515625 L 10.140625 0 L 8.96875 0 L 8.796875 -1.359375 C 8.398438 -0.867188 7.90625 -0.484375 7.3125 -0.203125 C 6.726562 0.078125 6.078125 0.21875 5.359375 0.21875 Z M 2.296875 -4.40625 C 2.296875 -3.769531 2.429688 -3.207031 2.703125 -2.71875 C 2.984375 -2.226562 3.363281 -1.84375 3.84375 -1.5625 C 4.332031 -1.289062 4.894531 -1.15625 5.53125 -1.15625 C 6.175781 -1.15625 6.738281 -1.289062 7.21875 -1.5625 C 7.707031 -1.84375 8.085938 -2.226562 8.359375 -2.71875 C 8.628906 -3.207031 8.765625 -3.769531 8.765625 -4.40625 C 8.765625 -5.03125 8.628906 -5.585938 8.359375 -6.078125 C 8.085938 -6.566406 7.707031 -6.953125 7.21875 -7.234375 C 6.738281 -7.515625 6.175781 -7.65625 5.53125 -7.65625 C 4.894531 -7.65625 4.332031 -7.515625 3.84375 -7.234375 C 3.363281 -6.953125 2.984375 -6.566406 2.703125 -6.078125 C 2.429688 -5.585938 2.296875 -5.03125 2.296875 -4.40625 Z M 2.296875 -4.40625 "/></g></g></g></svg>